<!DOCTYPE svg PUBLIC "-//W3C//DTD SVG 20010904//EN" "http://www.w3.org/TR/2001/REC-SVG-20010904/DTD/svg10.dtd">
<svg version="1.0" xmlns="http://www.w3.org/2000/svg" width="1010px" height="1600px" viewBox="0 0 10100 16000" preserveAspectRatio="xMidYMid meet">
<g id="layer1" fill="#010101" stroke="none">
 <path d="M1027 15443 c-3 -3 -4 -10 -2 -16 6 -16 16 -74 22 -122 3 -22 12 -49 19 -60 8 -11 14 -29 14 -40 0 -11 9 -45 20 -75 11 -30 23 -71 26 -90 3 -19 10 -39 15 -44 5 -6 9 -21 9 -34 0 -13 7 -30 15 -38 8 -9 15 -26 15 -39 0 -12 7 -36 15 -51 8 -16 15 -36 15 -44 0 -9 11 -32 24 -51 16 -23 23 -44 19 -58 -3 -12 -1 -21 6 -21 6 0 11 -9 11 -20 0 -11 4 -28 9 -38 19 -38 32 -69 35 -82 1 -8 7 -26 13 -40 39 -91 73 -182 73 -195 0 -8 4 -23 9 -33 22 -39 61 -135 61 -148 0 -8 4 -14 9 -14 5 0 11 -10 15 -23 3 -12 13 -31 23 -42 17 -19 43 -80 43 -102 0 -14 -33 -10 -38 5 -2 6 -40 42 -85 79 -119 99 -235 173 -271 173 -8 0 -21 10 -27 22 -15 27 -28 43 -56 70 -13 12 -23 25 -23 29 0 7 -78 96 -157 178 -24 24 -43 49 -43 55 0 6 -18 24 -40 40 -22 16 -42 38 -46 48 -3 10 -9 18 -13 18 -5 0 -20 11 -35 25 -15 14 -34 25 -42 25 -7 0 -14 4 -14 9 0 5 -10 11 -22 14 -13 3 -34 9 -47 13 -22 6 -24 5 -18 -16 3 -12 1 -30 -6 -40 -8 -13 -8 -22 0 -32 19 -22 63 -110 63 -124 0 -8 12 -21 26 -31 15 -9 35 -36 45 -60 22 -53 47 -65 67 -35 8 12 22 22 31 22 17 0 161 -130 161 -146 0 -5 12 -22 28 -39 39 -43 82 -109 82 -126 0 -7 16 -29 35 -48 19 -19 35 -42 35 -52 0 -10 5 -21 10 -24 6 -3 10 -14 10 -24 0 -27 31 -50 68 -49 23 1 39 -7 57 -28 38 -44 45 -53 45 -60 0 -4 16 -24 36 -46 20 -22 42 -54 49 -72 7 -17 27 -44 44 -60 17 -17 31 -33 31 -38 0 -9 27 -44 53 -67 9 -8 17 -23 17 -32 0 -10 4 -19 8 -21 9 -3 96 -108 127 -152 11 -16 34 -43 51 -60 49 -48 114 -147 114 -173 0 -12 5 -23 10 -23 6 0 10 -8 10 -17 0 -10 14 -34 30 -53 16 -19 30 -41 30 -47 0 -7 24 -49 53 -93 38 -58 60 -82 84 -90 36 -13 52 -29 58 -60 2 -12 6 -29 9 -38 3 -9 8 -71 10 -137 3 -82 11 -141 25 -185 12 -36 21 -72 21 -81 0 -9 7 -22 15 -29 8 -7 15 -21 15 -31 0 -11 3 -19 8 -19 4 0 18 -23 31 -52 23 -50 24 -61 22 -228 -2 -96 -3 -188 -4 -205 0 -16 3 -45 7 -63 5 -20 4 -38 -3 -46 -7 -8 -13 -81 -16 -177 -3 -90 -7 -184 -10 -209 -3 -25 -8 -83 -11 -130 -3 -47 -10 -87 -15 -90 -5 -4 -11 -80 -14 -171 -4 -124 -2 -181 10 -234 8 -38 17 -92 19 -120 3 -27 7 -79 10 -115 8 -87 26 -199 37 -230 18 -50 36 -207 32 -285 -2 -44 -3 -91 -3 -105 6 -104 7 -262 1 -295 -4 -22 -3 -65 1 -95 5 -30 8 -98 9 -150 0 -73 5 -105 21 -138 11 -23 24 -70 29 -105 9 -62 22 -129 33 -177 4 -14 9 -41 12 -60 3 -19 9 -39 14 -45 4 -5 8 -28 9 -50 2 -22 3 -45 3 -52 1 -7 7 -14 15 -17 7 -3 13 -14 13 -24 0 -10 7 -27 15 -38 8 -10 15 -31 15 -46 0 -16 3 -28 8 -28 4 0 16 -20 27 -45 11 -25 23 -45 27 -45 5 0 8 -11 8 -25 0 -14 5 -25 10 -25 6 0 10 -6 10 -13 0 -7 30 -73 66 -146 44 -89 72 -135 85 -138 10 -3 19 -11 19 -18 0 -6 9 -20 19 -29 11 -10 17 -24 15 -31 -3 -7 4 -23 15 -34 12 -12 21 -27 21 -35 0 -8 9 -18 20 -21 11 -3 20 -10 20 -15 0 -5 13 -22 28 -38 29 -30 97 -49 108 -31 3 6 12 8 19 5 13 -5 45 58 45 89 0 17 -57 61 -85 67 -13 2 -32 27 -54 71 -29 56 -33 71 -23 89 28 60 18 123 -25 147 -9 5 -18 22 -19 38 -1 15 -2 31 -3 35 0 4 -18 14 -38 23 -65 28 -68 31 -84 81 -17 51 -39 152 -43 194 -1 14 -8 36 -15 49 -9 15 -14 71 -15 157 -1 73 -5 136 -8 140 -4 3 -2 17 4 30 8 17 8 27 0 37 -9 10 -7 19 4 36 15 21 14 25 -15 72 -17 28 -31 62 -31 75 0 14 -5 34 -10 44 -6 11 -11 43 -11 72 0 29 0 94 0 143 -1 151 -5 220 -14 235 -5 8 -8 50 -7 93 1 47 -3 87 -10 100 -17 31 -20 58 -7 73 14 17 19 140 7 179 -5 17 -11 37 -13 45 -2 8 -9 29 -16 45 -14 32 -16 41 -18 68 -2 25 -19 21 -24 -5 -3 -18 -5 -16 -5 7 -1 17 2 36 7 44 7 10 2 20 -15 34 -19 14 -25 27 -23 51 2 17 7 36 11 42 9 12 6 37 -7 67 -4 10 -4 37 0 60 3 23 8 56 10 72 1 17 8 62 15 100 20 114 24 203 10 220 -6 8 -8 20 -4 26 4 7 9 58 10 113 2 56 8 116 13 135 7 22 7 40 1 52 -6 10 -10 65 -10 123 0 94 2 106 18 106 22 0 67 -97 76 -164 3 -27 13 -57 21 -66 8 -9 15 -21 15 -26 0 -5 16 -19 36 -32 19 -12 39 -33 44 -46 5 -13 25 -39 44 -58 38 -37 37 -32 36 -163 0 -17 6 -53 14 -80 8 -26 13 -52 10 -57 -3 -5 0 -15 6 -23 6 -8 11 -24 10 -37 -1 -13 -1 -25 0 -28 1 -3 4 -24 6 -47 2 -24 7 -51 12 -60 5 -10 10 -40 11 -68 1 -27 7 -54 12 -60 5 -5 9 -26 9 -46 0 -20 7 -53 16 -74 8 -21 15 -52 14 -69 -3 -47 -1 -58 9 -51 5 3 12 1 16 -5 3 -5 -1 -10 -10 -10 -13 0 -12 -6 6 -42 19 -38 23 -41 30 -23 7 18 9 16 13 -14 0 -6 7 -16 13 -22 7 -7 13 -19 13 -27 0 -8 9 -27 21 -43 11 -16 17 -29 14 -29 -4 0 0 -12 10 -26 9 -14 18 -35 20 -47 6 -27 127 -271 137 -275 4 -2 8 -12 8 -22 0 -10 5 -22 10 -25 6 -3 10 -13 10 -21 0 -8 8 -23 18 -34 9 -10 24 -34 33 -52 57 -117 113 -208 149 -243 16 -16 30 -35 30 -43 0 -7 14 -25 30 -39 17 -14 42 -48 57 -76 14 -28 31 -57 39 -65 8 -7 14 -22 14 -32 0 -10 5 -22 11 -25 5 -4 26 -39 45 -78 19 -39 38 -74 42 -77 8 -6 36 -53 57 -97 8 -17 28 -52 45 -76 16 -25 30 -51 30 -59 0 -8 20 -32 45 -54 25 -21 45 -44 45 -50 0 -6 26 -38 58 -71 32 -33 64 -74 71 -92 8 -17 17 -31 22 -31 5 0 9 -9 9 -19 0 -11 11 -33 25 -49 14 -17 25 -33 25 -37 0 -3 11 -21 25 -39 14 -18 25 -40 25 -48 0 -8 9 -23 20 -33 11 -10 20 -22 20 -26 0 -5 21 -41 47 -81 26 -40 58 -93 71 -118 13 -25 32 -52 41 -60 10 -9 23 -26 30 -38 6 -11 26 -28 44 -37 17 -8 50 -31 71 -50 47 -41 66 -47 31 -9 -30 32 -31 41 -7 67 16 19 15 21 -28 58 -24 21 -56 39 -70 41 -20 2 -25 8 -24 28 2 33 -41 99 -72 110 -14 6 -23 14 -19 19 7 12 -29 72 -55 91 -11 8 -20 23 -20 33 0 18 -56 127 -70 137 -4 3 -16 21 -27 40 -24 44 -74 121 -91 138 -7 8 -19 29 -26 47 -8 18 -24 38 -35 45 -14 7 -21 21 -21 38 0 15 -6 36 -14 47 -15 22 -14 121 2 151 11 23 5 44 -13 44 -7 0 -16 10 -19 23 -3 12 -15 33 -26 46 -17 20 -23 22 -33 11 -9 -10 -9 -13 1 -17 17 -6 15 -28 -3 -43 -13 -10 -19 -9 -36 6 -12 11 -25 28 -30 39 -5 11 -20 38 -34 60 -13 22 -24 48 -25 57 0 9 -10 29 -23 45 -12 15 -30 44 -40 63 -9 19 -21 42 -26 50 -14 25 -41 116 -41 140 0 13 -8 28 -17 35 -10 7 -16 26 -16 46 0 19 -5 41 -12 49 -7 8 -16 25 -19 38 -4 12 -12 22 -17 22 -5 0 -9 15 -9 33 0 22 -10 44 -35 71 -19 22 -35 43 -35 48 0 4 -6 8 -12 8 -7 0 -21 14 -30 30 -9 17 -29 35 -43 40 -14 5 -25 14 -25 19 0 6 -19 28 -43 50 -34 32 -48 56 -66 113 -13 40 -32 92 -42 115 -10 24 -19 47 -19 53 0 12 -22 52 -32 60 -10 8 -29 98 -33 159 -3 31 -11 61 -20 72 -10 10 -14 22 -11 27 3 5 2 23 -4 38 -5 16 -11 49 -14 74 -3 25 -10 70 -15 100 -6 30 -12 92 -15 138 -3 61 -9 88 -22 103 -10 11 -12 19 -6 19 8 0 12 20 12 55 0 30 4 55 9 55 13 0 51 -55 51 -73 0 -9 11 -38 25 -65 14 -28 25 -55 25 -61 0 -6 5 -20 10 -31 5 -11 15 -29 21 -41 7 -15 7 -25 -2 -35 -9 -11 -6 -21 15 -47 14 -17 50 -62 78 -99 28 -38 55 -68 60 -68 4 0 8 -7 8 -15 0 -8 4 -15 8 -15 12 0 52 -78 52 -100 0 -10 11 -27 25 -38 14 -11 25 -27 25 -35 0 -42 97 -142 127 -130 17 7 17 38 0 55 -17 18 -72 127 -80 159 -5 18 -2 29 6 32 14 5 84 -35 122 -70 12 -10 52 -38 90 -63 38 -25 77 -52 86 -60 34 -32 70 -61 108 -85 22 -13 45 -33 50 -43 5 -10 42 -45 82 -78 40 -32 90 -76 112 -96 21 -21 40 -38 42 -38 10 0 175 -176 175 -187 0 -19 -25 -16 -62 7 -39 24 -118 28 -118 6 0 -24 52 -95 74 -102 12 -4 36 -23 55 -43 18 -20 47 -51 64 -68 20 -23 39 -33 59 -33 56 0 109 -24 154 -72 24 -26 44 -51 44 -56 0 -6 4 -12 8 -14 11 -4 52 -86 52 -103 0 -8 6 -29 14 -47 8 -18 23 -60 32 -93 9 -33 23 -71 30 -85 7 -14 29 -95 49 -180 44 -192 51 -221 66 -290 6 -30 15 -59 19 -65 7 -9 18 -59 26 -115 15 -103 35 -209 45 -231 22 -54 106 -108 165 -106 36 2 42 -2 81 -55 23 -32 45 -69 49 -83 3 -14 10 -28 15 -30 4 -3 23 -36 40 -72 18 -37 43 -78 55 -92 13 -14 24 -29 24 -33 0 -13 52 -68 65 -68 15 0 95 -76 95 -91 0 -6 -10 -28 -22 -48 -22 -34 -23 -46 -22 -221 0 -102 4 -205 7 -230 4 -25 9 -72 12 -105 7 -83 16 -156 22 -180 2 -11 6 -54 7 -95 2 -41 4 -79 6 -85 2 -5 0 -18 -5 -28 -4 -9 -3 -30 3 -45 6 -15 14 -54 17 -87 4 -33 13 -70 21 -82 8 -12 10 -24 5 -28 -11 -6 -5 -92 9 -145 13 -47 12 -113 -3 -185 -8 -37 -10 -73 -5 -95 9 -40 1 -117 -13 -125 -5 -4 -9 -16 -9 -29 0 -22 -8 -35 -71 -103 -39 -43 -72 -43 -115 1 -48 50 -72 103 -72 164 0 29 -5 58 -11 65 -7 9 -7 24 0 51 8 27 7 41 -2 52 -9 11 -9 17 1 29 7 8 13 37 15 64 1 27 5 53 9 59 3 6 1 12 -5 14 -8 3 -9 17 -2 48 5 27 5 69 0 105 -5 33 -10 94 -11 135 -1 41 -5 82 -9 90 -4 8 -5 32 -4 53 2 21 0 40 -4 43 -6 4 -9 31 -11 117 -1 12 2 60 4 107 3 47 2 90 -3 95 -4 6 -9 49 -10 95 -1 47 -6 90 -11 96 -5 6 -9 40 -9 75 -1 35 -7 75 -13 89 -7 14 -10 38 -6 55 11 52 -6 94 -62 155 -29 32 -57 58 -62 59 -10 1 -74 52 -137 110 -24 22 -51 41 -59 41 -25 0 -43 -40 -41 -94 5 -152 10 -215 19 -251 20 -74 34 -273 20 -281 -8 -5 -3 -89 12 -209 6 -44 12 -134 15 -200 2 -66 8 -141 13 -166 6 -29 5 -53 -1 -64 -5 -10 -6 -41 -2 -74 9 -75 12 -222 3 -227 -3 -2 -4 -21 -2 -41 3 -24 -1 -42 -12 -54 -14 -15 -15 -24 -6 -46 13 -32 23 -173 13 -173 -7 0 -8 -16 -16 -130 -1 -25 -6 -66 -10 -93 -7 -42 -5 -50 16 -71 13 -13 30 -31 37 -40 7 -9 26 -16 42 -16 17 0 30 -5 30 -10 0 -15 68 -73 96 -83 13 -5 22 -13 18 -18 -3 -5 -1 -9 4 -9 5 0 26 -14 47 -30 21 -17 43 -29 48 -27 16 5 34 75 31 119 -2 24 2 53 8 66 13 25 49 29 68 7 7 -8 18 -15 25 -15 8 0 15 -4 17 -8 2 -4 35 -30 73 -57 39 -27 72 -52 75 -55 3 -3 14 -10 25 -17 11 -7 46 -28 78 -47 61 -38 88 -39 132 -10 11 8 28 14 39 14 10 0 25 8 32 18 64 83 71 101 81 220 3 34 9 62 12 62 8 0 8 -2 12 93 1 37 7 67 12 67 15 0 -3 73 -21 86 -13 9 -14 16 -4 40 7 16 13 43 13 59 3 37 -20 213 -31 240 -4 11 -6 40 -4 65 3 46 -11 131 -27 162 -13 25 -11 105 2 114 6 3 8 16 4 28 -17 58 -19 79 -17 175 1 57 -2 109 -6 115 -9 14 -15 109 -15 247 0 81 4 111 17 130 9 14 14 28 11 31 -3 3 1 18 10 34 18 35 19 64 3 64 -7 0 -23 16 -36 35 -12 19 -29 35 -37 35 -8 0 -15 7 -15 15 0 8 -4 15 -9 15 -19 0 -101 62 -101 76 0 9 11 14 30 14 37 0 39 19 5 48 -14 13 -23 26 -21 31 3 5 -19 35 -49 67 -30 32 -55 55 -55 51 0 -3 -10 4 -23 16 -13 12 -42 39 -65 60 -24 21 -55 64 -71 95 -33 69 -52 102 -68 120 -7 7 -13 18 -13 24 0 6 -11 21 -25 34 -14 13 -25 32 -25 43 0 35 -20 73 -40 78 -14 4 -20 14 -20 34 0 15 -4 31 -10 34 -5 3 -10 19 -10 34 0 16 -8 39 -18 52 -11 13 -27 50 -37 82 -10 32 -22 60 -26 63 -5 3 -9 15 -9 27 0 12 -16 44 -35 71 -25 35 -35 60 -35 87 0 20 -6 42 -14 48 -7 6 -16 32 -19 57 -2 24 -12 53 -22 64 -10 11 -15 26 -12 35 4 8 -7 41 -24 73 -16 31 -34 75 -40 96 -6 22 -28 66 -50 97 -22 32 -44 70 -49 84 -5 14 -21 30 -35 37 -14 6 -25 19 -25 28 0 9 -9 25 -20 35 -11 10 -25 33 -32 51 -7 19 -18 34 -25 34 -8 0 -22 20 -33 44 -22 51 -58 96 -77 96 -8 0 -19 12 -26 28 -7 15 -25 41 -40 57 -15 17 -51 55 -80 87 -100 108 -150 158 -158 158 -5 0 -9 7 -9 15 0 8 -4 15 -10 15 -5 0 -10 7 -10 15 0 8 -5 15 -11 15 -6 0 -31 21 -56 46 -25 25 -68 63 -96 86 -29 22 -58 49 -65 59 -7 11 -20 19 -28 19 -8 0 -14 4 -14 9 0 5 -30 33 -67 62 -38 30 -84 68 -103 86 -72 67 -105 93 -122 99 -10 3 -18 10 -18 15 0 5 -5 9 -11 9 -6 0 -27 14 -46 30 -18 17 -40 30 -47 30 -7 0 -23 11 -36 25 -13 14 -34 25 -46 25 -25 0 -50 20 -59 49 -3 10 -15 23 -28 28 -13 6 -38 43 -62 89 -21 44 -52 98 -67 121 -15 23 -28 46 -28 51 0 5 -13 27 -28 48 -16 22 -32 51 -35 66 -4 15 -20 42 -35 60 -15 18 -35 49 -45 69 -10 20 -29 47 -43 62 -13 14 -24 30 -24 34 0 5 -9 16 -20 26 -14 12 -20 31 -22 67 -1 27 -3 65 -4 83 -1 17 2 42 8 54 13 27 -6 129 -25 136 -6 2 -11 20 -10 41 1 31 -3 39 -23 46 -13 5 -24 13 -24 18 0 18 -84 92 -105 92 -6 0 -38 -61 -42 -80 -1 -8 -10 -40 -20 -70 -23 -70 -48 -77 -86 -26 -15 19 -27 40 -27 45 0 15 -21 50 -47 80 -13 14 -23 34 -23 43 0 10 -4 18 -10 18 -5 0 -10 6 -10 13 0 8 -19 52 -43 98 l-42 84 2 135 c3 160 11 251 24 264 9 10 134 -116 144 -146 4 -10 10 -18 15 -18 10 0 62 -46 169 -150 112 -109 170 -160 181 -160 6 0 45 -34 87 -75 42 -41 79 -75 82 -75 3 0 35 -27 70 -60 35 -33 67 -60 72 -60 4 0 9 -3 11 -7 4 -10 95 -84 119 -98 10 -5 42 -34 72 -62 31 -29 60 -53 66 -53 6 0 21 -11 33 -25 12 -14 26 -25 30 -25 5 0 35 -26 67 -57 112 -112 136 -133 149 -133 6 0 12 -4 12 -10 0 -5 19 -29 43 -53 23 -24 63 -67 89 -95 26 -29 51 -52 57 -52 6 0 11 -5 11 -10 0 -6 25 -34 55 -63 30 -28 55 -55 55 -59 0 -4 20 -34 44 -65 58 -77 119 -174 156 -250 17 -33 37 -64 46 -67 8 -3 13 -10 9 -16 -3 -5 1 -23 10 -40 8 -16 14 -31 13 -32 -7 -8 75 -111 141 -177 65 -65 76 -73 79 -55 2 12 -8 45 -22 73 -15 28 -37 73 -51 100 -13 27 -29 52 -34 55 -5 4 -22 31 -37 62 -19 40 -24 58 -16 66 8 8 26 -5 64 -47 29 -31 86 -91 125 -133 40 -42 73 -82 73 -89 0 -7 4 -13 8 -13 8 0 42 -63 42 -75 -1 -3 6 -12 14 -20 14 -14 56 -115 56 -135 0 -5 10 -20 23 -33 12 -14 32 -35 43 -48 12 -14 35 -31 50 -39 67 -34 114 -116 114 -199 0 -17 9 -54 20 -83 11 -29 20 -63 20 -75 0 -13 5 -23 11 -23 8 0 10 -12 6 -35 -3 -19 -2 -35 4 -35 5 0 9 -14 9 -32 0 -17 3 -28 6 -25 11 10 16 97 6 97 -5 0 -10 26 -11 57 -1 32 -6 63 -12 69 -6 7 -4 16 6 24 12 10 17 9 30 -3 8 -9 15 -22 15 -31 0 -8 5 -18 10 -21 6 -4 8 -11 4 -16 -5 -9 3 -31 42 -113 8 -16 14 -35 14 -43 0 -7 4 -13 9 -13 4 0 16 -21 25 -47 20 -55 33 -86 52 -128 23 -49 44 -115 37 -115 -4 0 -2 -5 5 -12 7 -7 12 -33 12 -58 0 -25 6 -52 13 -59 6 -6 12 -33 13 -59 1 -56 8 -87 27 -116 8 -12 17 -42 19 -66 3 -25 14 -76 25 -115 45 -154 51 -180 46 -188 -2 -4 0 -13 5 -20 6 -7 13 -30 17 -52 9 -67 30 -153 38 -161 4 -4 7 -17 7 -29 0 -11 4 -25 8 -31 5 -5 17 -30 26 -56 10 -27 22 -48 27 -48 5 0 9 -9 9 -20 0 -11 5 -20 10 -20 6 0 10 -6 10 -12 0 -13 35 -58 103 -132 20 -22 37 -45 37 -49 0 -11 19 -29 52 -51 15 -10 25 -22 22 -27 -3 -5 -1 -9 4 -9 5 0 19 -9 32 -20 13 -11 28 -19 34 -17 13 4 99 -68 107 -90 5 -13 49 -27 49 -16 0 4 -11 20 -25 35 -14 15 -25 31 -25 36 0 5 -22 31 -48 58 -27 27 -52 62 -56 78 -4 15 -16 40 -27 56 -12 15 -23 49 -26 76 -2 27 -9 53 -14 58 -5 6 -9 31 -9 56 0 25 -5 51 -11 57 -6 6 -13 26 -15 44 -3 19 -7 53 -11 76 -3 23 -11 47 -19 54 -8 6 -14 28 -14 48 0 20 -6 62 -14 94 -8 32 -11 67 -9 78 3 12 -3 29 -15 42 -11 12 -20 35 -20 50 0 16 -4 38 -9 50 -24 54 -36 94 -34 120 7 118 -6 183 -47 235 -18 22 -32 47 -32 57 0 9 -11 31 -23 48 -13 18 -32 58 -41 90 -11 34 -23 57 -32 57 -8 0 -14 9 -14 19 0 11 -4 23 -10 26 -5 3 -10 17 -10 31 0 13 -9 33 -21 45 -11 11 -25 34 -31 50 -5 16 -14 29 -19 29 -5 0 -9 11 -9 24 0 14 -8 31 -17 38 -10 7 -27 30 -38 51 -10 21 -31 49 -46 62 -15 12 -41 45 -58 71 -16 27 -55 68 -85 92 -30 23 -58 51 -61 62 -4 11 -11 20 -16 20 -5 0 -14 10 -19 23 -6 12 -14 29 -18 37 -26 44 -33 64 -37 98 -3 22 -14 67 -25 102 -11 34 -20 74 -20 87 0 36 -21 113 -31 113 -5 0 -9 7 -9 15 0 9 -7 27 -16 40 -9 13 -13 28 -10 33 3 6 -1 15 -9 22 -8 7 -15 21 -15 31 0 10 -4 20 -9 23 -4 3 -11 19 -14 34 -7 32 -108 190 -172 267 -23 28 -52 68 -65 90 -13 22 -28 42 -33 44 -21 8 -77 64 -77 77 0 7 -13 20 -30 29 -16 9 -30 21 -30 28 0 8 -17 27 -37 43 -46 35 -113 100 -113 109 0 6 -41 44 -97 90 -27 22 -33 34 -33 65 0 21 -3 40 -7 42 -5 2 -19 24 -33 51 -25 48 -89 117 -109 117 -6 0 -11 7 -11 15 0 8 -4 15 -10 15 -5 0 -10 6 -10 13 0 8 -11 19 -25 25 -14 6 -25 17 -25 25 0 7 -12 20 -28 29 -15 9 -56 44 -90 77 -34 33 -73 66 -85 73 -52 29 -116 73 -117 80 0 8 -48 58 -56 58 -2 0 -26 21 -53 48 -56 55 -88 82 -99 82 -4 1 -29 21 -57 46 -27 25 -62 53 -77 62 -16 9 -28 20 -28 24 0 13 -38 9 -43 -4 -3 -8 -23 5 -54 35 -27 26 -54 47 -61 47 -6 0 -21 14 -34 30 -12 17 -37 35 -55 42 -18 7 -33 15 -33 19 0 4 -17 18 -37 30 -21 13 -42 29 -46 36 -4 7 -13 13 -20 13 -7 0 -30 14 -51 30 -22 17 -44 30 -50 30 -6 0 -27 11 -46 23 -19 13 -50 24 -67 24 -22 0 -40 8 -56 24 -12 14 -52 45 -87 69 -36 24 -71 50 -78 57 -7 7 -19 13 -26 13 -7 0 -25 11 -40 25 -15 14 -31 25 -35 25 -14 0 -91 88 -91 104 0 8 -8 22 -17 32 -13 13 -19 36 -20 83 -1 36 -3 66 -4 66 0 0 -2 56 -4 125 -1 94 1 128 11 138 19 19 17 43 -6 72 -11 14 -20 31 -20 38 0 6 -4 12 -10 12 -5 0 -10 13 -10 28 0 15 -4 32 -8 38 -5 5 -15 36 -21 69 -13 59 -36 99 -52 90 -4 -3 -7 15 -7 40 0 37 3 45 18 45 13 0 21 -12 29 -44 6 -24 17 -49 25 -55 22 -18 30 19 15 71 -6 24 -11 48 -11 53 9 158 14 289 17 505 2 146 6 279 9 295 2 17 1 47 -4 67 -4 20 -4 54 0 76 4 22 4 46 -1 54 -4 7 -3 36 2 63 6 28 12 94 14 147 2 54 6 101 8 105 24 41 24 201 -1 268 -20 57 -62 135 -73 135 -4 0 -10 -29 -14 -64 -3 -36 -12 -66 -19 -69 -8 -3 -11 -21 -10 -47 1 -27 -5 -54 -17 -75 -14 -24 -19 -49 -18 -101 1 -38 -2 -92 -5 -120 -4 -28 -8 -104 -11 -167 -2 -64 -7 -122 -12 -129 -4 -7 -9 -22 -10 -33 -2 -11 -7 -49 -13 -85 -5 -36 -12 -121 -15 -190 -8 -216 -19 -249 -63 -204 -12 13 -18 24 -12 24 8 0 8 6 0 20 -6 11 -8 25 -5 30 4 6 2 25 -4 43 -21 68 -32 155 -31 261 0 73 5 86 36 90 30 5 26 61 -9 129 -16 31 -33 60 -38 63 -5 3 -9 16 -9 30 0 13 -4 24 -9 24 -5 0 -14 13 -21 30 -7 16 -16 27 -21 24 -5 -3 -12 2 -15 10 -10 27 -22 18 -48 -35 -19 -40 -22 -57 -15 -76 5 -13 9 -57 9 -97 0 -39 4 -76 10 -82 5 -5 12 -36 14 -69 13 -154 38 -291 62 -338 9 -16 17 -47 20 -70 3 -23 15 -62 27 -87 23 -48 24 -58 26 -192 1 -60 6 -90 16 -98 7 -6 12 -17 9 -24 -3 -7 2 -19 11 -26 8 -7 15 -18 15 -25 0 -7 6 -18 14 -24 8 -7 18 -31 21 -54 4 -23 13 -45 19 -49 12 -8 19 -140 9 -177 -9 -36 -36 -20 -58 34 -11 28 -33 68 -48 90 -62 90 -87 131 -87 146 0 9 -7 22 -15 29 -9 7 -13 15 -11 18 3 2 -6 19 -19 37 -14 17 -25 36 -25 41 0 5 -15 32 -33 59 -19 28 -46 76 -61 108 -16 31 -32 57 -36 57 -5 0 -21 26 -37 58 -15 31 -31 59 -34 62 -12 10 -29 49 -29 68 0 11 -6 25 -14 31 -20 17 -54 125 -61 196 -3 33 -8 72 -11 87 -5 33 24 53 67 44 37 -7 39 15 4 56 -14 16 -25 38 -25 47 0 10 -9 30 -20 44 -11 14 -20 28 -20 32 0 9 -40 45 -50 45 -3 0 -16 -13 -28 -30 -13 -16 -29 -30 -38 -30 -11 0 -14 -10 -12 -40 1 -21 7 -41 14 -44 15 -6 25 -87 13 -102 -7 -8 -7 -19 -1 -31 6 -10 18 -45 27 -78 14 -47 110 -257 153 -335 11 -19 30 -54 59 -111 13 -25 34 -56 47 -70 23 -25 66 -111 66 -132 0 -5 11 -20 25 -33 14 -13 29 -43 35 -69 10 -43 19 -62 89 -170 43 -67 84 -115 97 -115 15 0 36 -34 27 -44 -3 -3 -1 -6 5 -6 7 0 12 -6 12 -14 0 -8 8 -22 17 -32 17 -17 18 -22 24 -103 5 -74 -30 -63 -76 23 -11 20 -25 36 -32 36 -7 0 -13 7 -13 15 0 8 -16 32 -35 54 -19 21 -35 43 -35 48 0 22 -51 111 -84 148 -20 22 -39 50 -42 62 -4 13 -9 23 -13 23 -3 0 -19 26 -36 57 -16 32 -35 63 -41 70 -6 6 -16 24 -21 40 -19 49 -23 57 -47 98 -13 22 -36 65 -51 95 -14 30 -34 71 -44 90 -10 19 -21 48 -25 65 -4 16 -11 32 -15 35 -10 6 -61 119 -61 134 0 6 -9 22 -19 35 -10 13 -16 32 -14 42 3 11 1 19 -5 19 -12 0 -42 61 -48 98 -3 15 -20 59 -39 98 -19 39 -35 79 -35 88 0 9 -4 16 -10 16 -5 0 -10 7 -10 16 0 9 -20 75 -44 148 -25 72 -47 149 -51 171 -3 22 -9 52 -11 68 -7 37 8 34 50 -8 39 -39 46 -42 46 -20 0 19 -41 109 -52 113 -4 2 -8 11 -8 20 0 10 -11 29 -25 44 -14 15 -25 34 -25 42 0 13 -24 57 -72 130 -7 11 -23 28 -35 39 -13 11 -23 25 -23 31 0 13 -36 37 -43 29z m502 -1684 c24 -27 49 -49 56 -49 7 0 20 -12 30 -26 9 -14 37 -47 61 -72 24 -26 44 -50 44 -54 0 -4 14 -21 30 -38 17 -17 30 -33 30 -36 0 -4 11 -20 25 -36 14 -17 35 -49 47 -71 11 -23 27 -47 34 -55 8 -7 17 -24 20 -38 3 -13 10 -24 15 -24 5 0 9 -4 9 -10 0 -25 -33 -4 -109 68 -44 42 -81 80 -81 84 0 5 -25 34 -55 65 -30 32 -55 64 -55 70 0 7 -9 18 -20 25 -11 7 -20 16 -20 20 0 5 -8 17 -17 27 -23 26 -34 40 -57 76 -11 16 -28 38 -38 49 -10 11 -18 23 -18 28 0 4 -6 8 -13 8 -14 0 -37 40 -37 65 0 24 69 -20 119 -76z m1202 -1485 c19 -8 41 -20 49 -25 8 -5 29 -16 45 -23 17 -8 39 -24 50 -35 10 -12 42 -35 71 -51 28 -17 57 -37 64 -45 7 -8 19 -15 27 -15 8 0 39 -16 69 -35 30 -19 59 -35 64 -35 6 0 10 -4 10 -9 0 -4 19 -16 43 -25 23 -9 58 -30 77 -46 19 -17 45 -33 58 -36 12 -4 22 -10 22 -15 0 -5 5 -9 10 -9 16 0 187 -112 252 -164 31 -25 60 -46 66 -46 5 0 17 -11 26 -25 9 -14 21 -25 28 -25 6 0 18 -8 27 -18 9 -10 31 -28 49 -41 17 -12 32 -28 32 -35 0 -7 19 -26 43 -42 23 -16 47 -33 53 -39 7 -5 33 -28 59 -50 59 -50 66 -57 142 -138 34 -37 69 -67 77 -67 9 0 16 -6 16 -12 0 -7 16 -28 35 -47 19 -19 35 -40 35 -47 0 -7 19 -34 43 -58 49 -52 54 -60 85 -103 13 -18 29 -33 37 -33 7 0 16 -12 19 -26 8 -30 51 -98 84 -130 12 -13 22 -29 22 -37 0 -7 14 -26 30 -42 17 -16 30 -34 30 -39 0 -15 73 -160 82 -164 4 -2 20 -27 34 -55 15 -29 33 -64 41 -79 8 -15 25 -36 37 -46 15 -11 22 -26 20 -42 -1 -14 -3 -25 -3 -26 -1 -1 -33 30 -73 67 -40 38 -76 69 -80 69 -4 0 -8 5 -8 11 0 7 -19 30 -43 53 -50 49 -85 90 -111 131 -10 17 -25 37 -32 45 -34 37 -85 107 -90 123 -4 9 -11 17 -16 17 -8 0 -23 15 -66 65 -11 13 -59 54 -96 83 -16 12 -39 22 -53 22 -14 0 -40 16 -66 43 -23 23 -55 54 -72 69 -56 50 -95 94 -95 107 0 18 -69 86 -88 86 -8 0 -16 7 -17 16 -2 10 -11 26 -21 36 -11 11 -26 30 -34 42 -8 12 -28 37 -45 55 -16 18 -39 45 -50 61 -11 15 -26 34 -32 41 -7 7 -13 16 -13 21 0 5 -20 28 -45 51 -25 23 -45 48 -45 56 0 7 -13 19 -30 26 -16 7 -30 18 -30 25 0 14 -40 56 -109 115 -23 19 -52 44 -64 55 -30 26 -81 49 -84 38 -13 -34 -59 -54 -69 -29 -3 9 -15 16 -25 16 -11 0 -33 14 -49 30 -16 17 -35 30 -42 30 -7 0 -21 13 -30 29 -9 17 -34 39 -55 49 -21 11 -61 44 -89 74 -28 29 -72 68 -98 86 -26 17 -49 39 -53 48 -3 8 -30 38 -59 66 -30 28 -54 55 -54 59 0 14 34 10 71 -7z m2004 -1602 c3 -9 37 -50 75 -90 38 -40 72 -83 76 -95 3 -12 14 -31 24 -42 19 -21 45 -70 75 -140 10 -22 33 -70 51 -106 19 -37 34 -81 34 -97 0 -17 5 -34 10 -37 6 -3 10 -16 10 -29 0 -12 4 -26 10 -32 6 -6 6 -15 0 -24 -14 -22 -120 88 -120 124 0 13 -4 28 -10 31 -5 3 -10 15 -10 26 0 10 -11 29 -25 41 -14 12 -25 30 -25 41 0 10 -13 32 -30 49 -16 16 -30 35 -30 41 0 21 -33 97 -41 97 -5 0 -9 7 -9 15 0 25 -47 119 -74 148 -14 16 -26 36 -26 45 0 9 -9 28 -20 42 -11 14 -20 30 -20 37 0 17 68 -24 75 -45z m-2193 -494 c-6 -6 -15 -8 -19 -4 -4 4 -1 11 7 16 19 12 27 3 12 -12z m18 -64 c0 -8 -4 -14 -10 -14 -5 0 -10 9 -10 21 0 11 5 17 10 14 6 -3 10 -13 10 -21z"/>
 <path d="M5310 15181 c-10 -19 -6 -113 5 -131 3 -5 1 -11 -4 -14 -5 -3 -9 -43 -10 -88 -1 -46 -6 -97 -11 -113 -11 -32 -5 -498 6 -567 3 -21 2 -38 -2 -38 -5 0 -10 -20 -11 -44 -1 -24 -5 -53 -10 -63 -14 -27 -5 -256 11 -281 3 -5 8 -35 11 -66 3 -32 12 -64 20 -73 8 -8 15 -21 15 -29 0 -8 4 -14 8 -14 5 0 15 -18 22 -40 7 -22 27 -54 43 -71 16 -17 39 -46 52 -65 26 -39 74 -80 77 -67 3 14 6 104 7 232 0 69 5 138 10 155 13 41 20 410 9 461 -11 48 -11 54 -4 130 3 33 8 130 12 215 3 85 8 158 10 162 4 7 -18 100 -33 133 -15 36 -76 125 -84 125 -5 0 -9 7 -9 15 0 23 -72 122 -102 139 -25 16 -28 15 -38 -3z"/>
 <path d="M6286 13702 c-3 -3 -48 -5 -101 -4 -52 0 -95 -3 -95 -8 0 -4 -12 -13 -27 -18 -16 -6 -40 -22 -55 -36 -15 -15 -39 -31 -53 -36 -14 -5 -30 -20 -36 -34 -7 -15 -26 -28 -53 -36 -66 -20 -146 -62 -146 -77 0 -7 -24 -24 -54 -38 -30 -14 -57 -29 -61 -34 -3 -5 -29 -17 -59 -25 -29 -9 -64 -24 -77 -34 -13 -11 -45 -30 -71 -44 -48 -26 -318 -286 -318 -307 0 -6 -4 -11 -9 -11 -12 0 -101 -88 -121 -119 -20 -31 -56 -68 -85 -87 -13 -8 -31 -32 -41 -52 -9 -20 -25 -43 -36 -50 -10 -7 -18 -21 -19 -30 0 -9 -8 -29 -17 -43 -9 -14 -32 -48 -49 -75 -18 -27 -33 -57 -33 -66 0 -10 -6 -18 -14 -18 -8 0 -34 -29 -58 -65 -23 -36 -46 -65 -50 -65 -4 0 -8 -10 -8 -23 0 -12 -11 -43 -25 -69 -14 -26 -25 -52 -25 -58 0 -5 -9 -32 -21 -58 -12 -26 -27 -60 -34 -77 -7 -16 -27 -59 -45 -95 -45 -91 -100 -256 -102 -310 -1 -27 -10 -57 -24 -77 -19 -29 -21 -39 -12 -64 14 -40 49 -37 62 6 12 42 46 106 67 131 11 11 19 25 19 32 0 6 15 44 34 84 19 40 38 85 41 101 4 15 11 27 16 27 5 0 9 7 9 15 0 22 21 56 48 78 12 10 22 23 22 29 0 5 8 22 18 36 11 15 24 42 30 60 6 18 25 47 42 64 17 17 29 33 26 35 -3 3 0 10 5 17 41 48 49 61 49 72 0 21 86 114 126 137 8 4 23 25 34 45 19 37 94 119 180 199 55 50 130 134 130 145 0 4 19 17 43 29 23 12 55 32 70 45 15 13 61 39 101 58 48 22 76 42 81 55 3 12 15 21 26 21 24 0 62 24 109 67 19 18 39 33 43 33 5 0 23 10 40 22 18 13 35 23 39 23 3 0 10 3 14 8 4 4 14 7 22 7 7 0 48 25 90 55 42 30 86 55 98 55 12 0 27 6 33 14 8 10 33 14 81 13 38 0 75 4 82 10 18 15 118 7 153 -11 17 -9 35 -16 41 -16 6 0 20 -11 32 -25 29 -33 40 -32 57 8 18 43 80 107 104 107 11 0 28 10 38 23 25 31 96 49 131 32 15 -7 55 -16 90 -20 34 -4 65 -11 68 -16 3 -5 17 -9 31 -9 34 0 103 -21 103 -32 0 -4 17 -8 38 -8 24 0 46 -7 60 -20 12 -11 25 -20 29 -20 4 -1 18 -9 30 -19 34 -29 47 -145 25 -241 -14 -64 -33 -239 -37 -355 -2 -65 1 -85 16 -106 24 -34 51 -106 53 -146 2 -17 8 -38 14 -46 7 -8 24 -36 38 -63 14 -27 37 -60 50 -73 47 -47 74 -117 72 -183 -3 -53 -6 -62 -26 -71 -16 -7 -29 -8 -39 -1 -22 14 -99 -6 -116 -30 -11 -15 -22 -17 -78 -11 -35 4 -84 8 -109 10 -25 1 -49 4 -55 6 -23 6 -142 -19 -200 -42 -53 -21 -98 -30 -118 -25 -25 6 -86 -12 -111 -33 -9 -7 -22 -11 -30 -8 -8 3 -16 2 -18 -2 -4 -11 -136 -81 -153 -81 -16 0 -154 -90 -174 -114 -8 -9 -29 -24 -47 -32 -19 -9 -32 -20 -29 -24 3 -5 -2 -15 -10 -23 -8 -9 -15 -20 -15 -26 0 -6 -7 -11 -16 -11 -13 0 -13 -2 -2 -12 7 -7 42 -14 77 -16 36 -2 73 -8 82 -13 10 -5 42 -9 73 -9 30 0 57 -3 60 -8 2 -4 31 -9 65 -10 51 -3 66 1 98 22 21 14 44 26 52 26 8 0 23 7 33 17 19 17 40 30 93 57 17 9 67 36 113 61 46 25 91 45 100 45 8 0 25 9 36 19 22 20 104 51 135 51 10 0 31 6 46 14 15 8 33 12 40 9 8 -2 23 1 35 7 13 7 38 12 57 12 58 0 123 -77 123 -145 0 -38 -19 -61 -42 -52 -9 4 -28 -10 -50 -37 -33 -40 -44 -66 -54 -128 -3 -14 -11 -42 -19 -63 -8 -20 -15 -51 -15 -67 0 -16 -4 -31 -9 -34 -5 -3 -11 -23 -15 -43 -3 -21 -8 -51 -11 -68 -3 -16 -7 -59 -10 -94 -2 -34 -6 -66 -9 -69 -13 -12 -5 -53 14 -72 17 -17 20 -33 20 -99 0 -58 -4 -82 -15 -91 -9 -8 -15 -30 -15 -60 0 -30 -6 -52 -15 -60 -11 -9 -12 -17 -4 -32 6 -11 8 -27 5 -35 -5 -13 -21 -15 -94 -10 -48 3 -96 7 -107 10 -11 3 -24 6 -30 7 -42 9 -48 -23 -7 -43 15 -8 45 -18 66 -21 22 -4 49 -14 60 -22 11 -8 30 -14 43 -14 12 0 25 -4 28 -10 3 -5 15 -10 26 -10 10 0 27 -4 37 -9 9 -5 31 -14 47 -21 37 -13 111 -82 120 -111 10 -29 -8 -38 -58 -28 -23 4 -64 5 -92 3 -27 -2 -72 1 -98 7 -42 10 -51 9 -65 -4 -14 -15 -14 -17 4 -22 10 -4 27 -11 37 -16 9 -5 36 -11 60 -14 55 -5 159 -22 222 -35 28 -6 68 -10 90 -9 22 1 48 -2 58 -6 9 -4 17 -3 17 1 0 5 42 7 92 6 51 -2 105 -4 120 -4 14 -1 53 13 87 31 33 17 66 31 74 31 7 0 18 5 24 11 7 7 36 20 65 30 29 11 56 26 61 34 4 8 14 15 21 15 7 0 21 9 31 20 14 15 29 20 54 18 31 -3 36 -6 34 -28 -4 -68 -37 -210 -59 -252 -13 -26 -24 -56 -24 -65 0 -32 -46 -146 -104 -255 -31 -59 -56 -113 -56 -119 0 -6 -11 -22 -25 -35 -14 -13 -25 -26 -25 -30 0 -4 -8 -14 -18 -23 -10 -9 -27 -31 -37 -48 -11 -18 -23 -33 -27 -33 -4 0 -15 -14 -24 -32 -9 -18 -23 -38 -30 -46 -8 -7 -12 -17 -9 -21 2 -4 -9 -21 -25 -36 -17 -16 -30 -34 -30 -42 0 -7 -12 -26 -27 -42 -38 -41 -64 -78 -90 -131 -13 -25 -27 -52 -31 -60 -23 -39 -40 -88 -41 -120 -1 -34 -8 -56 -36 -110 -8 -14 -14 -45 -14 -70 -1 -60 -8 -117 -16 -129 -3 -6 -6 -39 -7 -75 -1 -73 -12 -85 -56 -63 -15 8 -53 19 -84 26 -32 7 -58 17 -58 22 0 5 -11 9 -24 9 -29 0 -72 15 -91 33 -35 30 -45 36 -84 48 -33 10 -46 10 -69 -1 -15 -8 -72 -15 -132 -17 -146 -5 -224 -9 -230 -12 -3 -1 -31 -4 -64 -5 -39 -2 -61 -7 -67 -17 -6 -11 -21 -14 -55 -12 -47 4 -47 3 -30 -16 17 -18 17 -20 0 -29 -16 -9 -16 -10 2 -20 10 -5 43 -13 72 -17 28 -4 52 -10 53 -13 8 -67 72 -111 162 -112 21 0 45 -6 53 -14 8 -8 36 -18 62 -22 26 -3 56 -11 67 -18 51 -28 96 -10 167 68 l37 40 58 -18 c32 -10 72 -25 90 -32 17 -8 42 -14 56 -14 13 0 42 -7 63 -16 20 -9 50 -13 65 -10 l27 5 7 -112 c12 -164 14 -200 19 -327 3 -64 11 -129 18 -145 7 -17 13 -55 13 -85 0 -52 2 -55 33 -70 68 -32 113 -75 144 -134 11 -21 28 -41 39 -43 10 -3 19 -9 19 -14 0 -15 38 -10 44 6 3 8 2 15 -3 15 -5 0 -11 12 -14 28 -3 15 -11 47 -17 72 -16 70 -19 88 -28 195 -5 55 -10 109 -11 120 -1 11 -3 84 -5 163 -2 78 -6 145 -9 148 -3 3 1 26 7 52 7 27 9 59 5 75 -4 15 -3 42 1 60 5 17 11 66 13 107 2 41 11 88 19 105 9 17 19 53 23 81 4 36 13 55 30 68 14 10 34 38 46 62 11 24 25 44 30 44 5 0 9 6 9 14 0 7 7 19 15 26 8 7 23 31 33 54 11 22 26 47 35 55 9 7 22 31 27 52 6 22 15 39 19 39 5 0 21 19 34 43 14 23 37 55 51 71 14 16 26 37 26 47 0 10 5 21 10 24 13 8 50 84 50 102 0 7 16 36 35 64 37 54 51 94 60 173 4 27 11 58 16 68 13 24 17 89 7 110 -6 12 -1 25 16 43 18 19 27 43 31 83 3 31 10 67 16 80 5 14 6 30 0 39 -5 10 -5 28 2 46 7 23 6 46 -6 96 -9 36 -18 97 -20 134 -5 66 -4 69 21 78 14 6 51 10 81 9 84 -1 93 0 88 13 -4 12 -11 15 -97 37 -44 12 -79 25 -110 40 -8 4 -16 22 -18 41 -4 37 -15 49 -49 49 -19 0 -23 -5 -23 -32 0 -54 -9 -59 -91 -55 -41 2 -80 6 -85 10 -20 12 -310 6 -351 -8 -13 -4 -23 -3 -23 2 0 5 -21 14 -47 22 -81 22 -93 31 -93 68 0 41 17 117 35 157 17 38 2 91 -38 133 -17 19 -32 46 -34 64 -4 36 14 148 27 164 4 6 8 17 8 25 1 20 25 84 38 101 6 8 16 33 23 55 8 23 33 62 56 87 50 54 61 95 39 146 -9 20 -22 51 -30 69 -19 45 -18 52 11 52 14 0 43 11 65 25 38 24 39 26 28 57 -6 18 -21 47 -34 65 -28 38 -29 46 -8 68 15 14 15 19 2 48 -48 104 -85 170 -98 175 -20 8 -40 28 -40 40 0 5 -15 27 -34 48 -44 49 -92 207 -76 248 5 15 10 56 10 90 0 34 3 66 7 69 3 4 14 30 24 59 11 28 27 61 38 72 11 12 28 48 39 81 12 33 25 61 31 61 6 1 24 2 41 3 21 1 28 5 24 15 -3 7 2 30 10 51 9 20 13 48 10 61 -3 13 1 37 10 55 20 41 20 98 0 127 -9 13 -13 29 -10 37 6 17 -12 75 -24 75 -4 0 -10 8 -12 18 -5 17 -22 27 -138 81 -53 24 -131 51 -172 60 -15 3 -34 8 -69 20 -19 6 -45 11 -57 11 -11 0 -24 5 -27 10 -3 6 -24 10 -45 10 -21 0 -67 7 -101 16 -43 11 -81 14 -121 10 -43 -5 -63 -3 -80 8 -24 15 -202 25 -215 12 -3 -3 -12 -1 -20 6 -8 6 -36 11 -62 9 -33 -1 -52 3 -61 14 -7 8 -18 15 -24 15 -18 0 -49 59 -43 81 3 11 0 25 -7 32 -6 6 -20 23 -29 37 -16 23 -67 37 -81 22z m1148 -3342 c32 -12 35 -40 4 -40 -22 0 -58 26 -58 42 0 11 23 10 54 -2z m-43 -1920 c23 -13 27 -70 5 -70 -22 0 -96 52 -96 67 0 16 62 18 91 3z"/>
 <path d="M2983 12508 c2 -7 0 -23 -4 -36 -8 -20 -3 -30 33 -63 24 -22 52 -39 63 -38 42 3 56 -2 78 -27 12 -14 32 -30 45 -35 16 -6 23 -16 22 -32 -3 -35 -1 -37 24 -27 18 6 28 5 37 -6 6 -8 41 -34 78 -58 36 -25 111 -88 165 -140 55 -53 103 -96 107 -96 4 0 33 -25 66 -55 70 -67 113 -94 113 -70 0 8 -7 23 -16 33 -62 68 -94 109 -94 119 0 6 -4 13 -8 15 -4 2 -23 22 -42 46 -18 23 -38 42 -43 42 -13 0 -172 135 -205 175 -15 18 -47 45 -72 61 -25 16 -47 31 -50 34 -3 4 -22 14 -42 23 -20 10 -40 26 -43 37 -4 11 -13 20 -21 20 -8 0 -14 5 -14 10 0 6 -8 10 -17 10 -9 0 -28 10 -42 23 -15 13 -45 29 -67 35 -52 15 -57 15 -51 0z"/>
 <path d="M3636 10077 c3 -10 9 -15 12 -12 3 3 0 11 -7 18 -10 9 -11 8 -5 -6z"/>
 <path d="M5310 9170 c6 -11 13 -20 16 -20 2 0 0 9 -6 20 -6 11 -13 20 -16 20 -2 0 0 -9 6 -20z"/>
 <path d="M5328 9095 c2 -14 8 -22 13 -19 5 3 5 14 -1 25 -14 26 -18 24 -12 -6z"/>
 <path d="M5390 8915 c0 -8 2 -15 4 -15 2 0 6 7 10 15 3 8 1 15 -4 15 -6 0 -10 -7 -10 -15z"/>
 <path d="M5411 8860 c-1 -29 15 -58 25 -47 4 4 0 22 -9 40 -15 30 -16 31 -16 7z"/>
 <path d="M2051 7739 c-24 -5 -53 -15 -65 -22 -12 -8 -37 -18 -56 -22 -19 -4 -43 -15 -52 -24 -10 -9 -51 -43 -92 -76 -41 -33 -79 -71 -85 -85 -18 -42 -28 -171 -20 -260 14 -148 22 -244 23 -267 1 -13 4 -23 9 -23 4 0 7 -6 7 -14 0 -23 69 -147 108 -195 20 -25 53 -62 74 -83 21 -21 38 -43 38 -48 0 -6 9 -15 20 -22 11 -7 20 -18 20 -24 0 -16 130 -144 146 -144 8 0 14 -4 14 -8 0 -4 12 -15 28 -24 15 -9 49 -35 75 -58 26 -23 47 -39 47 -36 0 6 8 0 98 -76 35 -29 81 -63 103 -76 21 -13 39 -28 39 -33 0 -5 7 -9 15 -9 7 0 18 -6 22 -13 4 -8 22 -22 38 -32 17 -10 35 -23 40 -29 15 -17 83 -66 90 -66 4 0 12 -6 19 -12 8 -7 24 -20 37 -28 12 -8 44 -35 71 -59 28 -25 54 -41 62 -38 8 3 20 -1 26 -9 7 -8 18 -14 26 -14 7 0 18 -9 24 -20 6 -11 16 -18 21 -14 6 3 21 -4 34 -16 13 -12 28 -19 34 -16 5 4 12 2 16 -4 4 -6 28 -21 54 -34 26 -14 53 -32 60 -40 8 -9 22 -16 32 -16 21 0 33 -35 31 -85 0 -16 -3 -100 -6 -185 -6 -167 -10 -211 -18 -226 -3 -5 -7 -52 -8 -104 -1 -52 -4 -124 -5 -160 -9 -188 -14 -735 -6 -744 4 -6 9 -54 9 -106 1 -52 4 -138 7 -190 3 -52 6 -216 6 -365 1 -210 5 -281 17 -318 13 -42 13 -50 1 -58 -11 -6 -14 -36 -15 -126 0 -172 -15 -434 -25 -461 -5 -13 -9 -58 -10 -100 -1 -48 -7 -84 -16 -98 -9 -15 -14 -49 -14 -105 0 -58 -5 -92 -17 -118 -19 -38 -29 -191 -15 -214 4 -6 8 -36 9 -67 1 -30 7 -56 13 -58 6 -2 11 -13 11 -25 0 -20 81 -106 165 -175 31 -26 68 -26 125 0 36 16 46 40 60 148 6 47 16 96 21 110 9 25 15 59 24 140 3 25 10 68 15 95 27 141 43 331 41 509 0 44 4 85 10 92 6 7 8 18 4 24 -6 10 -18 232 -16 300 1 47 1 85 -2 290 -2 172 -5 210 -19 239 -13 24 -15 38 -8 47 6 7 10 54 9 108 -1 77 -5 98 -17 105 -14 8 -15 16 -4 58 7 32 11 168 12 408 0 198 1 369 1 380 1 11 2 36 1 55 0 62 6 213 12 290 3 41 8 113 10 160 2 47 8 96 14 110 5 14 8 54 5 90 -6 111 -6 123 -1 210 3 47 1 98 -3 114 -5 18 -5 34 2 42 7 8 9 39 5 81 -3 37 -6 75 -6 83 -1 8 1 85 5 170 6 146 7 272 1 723 -1 124 2 187 9 187 9 0 75 -92 75 -105 0 -4 17 -24 70 -83 16 -19 30 -36 30 -38 0 -7 107 -114 114 -114 3 0 25 -18 47 -40 23 -22 45 -40 49 -40 9 0 17 -8 128 -112 33 -32 66 -58 71 -58 6 0 32 -15 58 -34 27 -18 61 -36 78 -40 16 -4 32 -11 35 -15 3 -3 24 -22 48 -40 l43 -33 -2 -72 c-1 -39 -5 -93 -11 -121 -5 -27 -11 -69 -14 -92 -2 -23 -9 -54 -14 -68 -6 -15 -10 -35 -10 -46 0 -10 -15 -39 -34 -64 -19 -24 -37 -53 -40 -62 -3 -10 -34 -33 -68 -50 -53 -27 -72 -32 -118 -29 -29 1 -56 8 -58 14 -4 12 -95 62 -112 62 -5 0 -21 11 -36 25 -16 14 -44 33 -63 42 -20 9 -51 28 -69 41 -35 27 -40 26 -47 -7 -3 -14 2 -24 13 -28 21 -8 45 -32 61 -60 6 -12 23 -28 38 -36 68 -35 81 -44 119 -79 21 -21 42 -38 45 -38 3 0 26 -16 50 -35 24 -19 49 -35 56 -35 6 0 40 -16 75 -36 34 -21 77 -44 93 -52 17 -9 35 -19 40 -24 6 -4 25 -20 44 -35 30 -24 40 -27 104 -25 102 4 201 57 221 118 4 12 18 34 31 50 14 16 25 34 25 41 0 7 9 30 21 53 11 22 24 68 29 102 11 95 4 396 -11 414 -9 11 -10 38 -4 102 5 48 8 105 7 127 -1 22 -4 94 -6 160 -7 179 -14 288 -19 305 -6 18 -6 18 -13 135 -3 50 -8 97 -11 105 -4 8 -7 18 -7 22 -1 10 -110 112 -153 144 -21 16 -45 35 -54 44 -40 37 -251 190 -263 190 -4 0 -13 6 -20 13 -7 6 -25 21 -39 32 -15 11 -27 25 -27 32 0 7 -6 13 -13 13 -7 0 -29 14 -48 31 -19 17 -46 33 -61 36 -16 3 -28 11 -28 18 0 27 -214 114 -295 121 -84 7 -115 -8 -199 -93 -90 -93 -94 -103 -114 -345 -3 -27 -23 -22 -62 15 -54 49 -117 87 -134 81 -12 -5 -14 -36 -15 -176 0 -93 4 -178 9 -188 5 -9 6 -21 2 -25 -6 -6 -12 -337 -10 -510 1 -85 1 -113 -7 -365 -4 -135 -7 -265 -6 -289 2 -41 1 -43 -21 -37 -13 4 -34 9 -48 11 -13 2 -29 11 -36 19 -6 9 -14 16 -17 16 -3 0 -26 14 -51 30 -55 37 -149 80 -177 80 -11 0 -22 7 -25 15 -4 8 -10 15 -16 15 -12 0 -33 21 -39 39 -3 8 -21 20 -40 26 -21 8 -33 18 -31 27 2 15 -57 68 -76 68 -18 0 -60 26 -104 63 -24 21 -54 46 -66 57 -13 11 -33 20 -44 20 -20 0 -88 62 -88 80 0 6 -4 10 -9 10 -4 0 -20 11 -35 25 -15 14 -34 25 -42 25 -7 0 -14 7 -14 15 0 8 -4 15 -10 15 -5 0 -10 8 -10 19 0 10 -19 36 -43 58 -24 22 -51 55 -60 74 -9 19 -30 50 -47 69 -16 19 -28 40 -26 47 3 6 0 13 -6 15 -6 2 -12 15 -14 29 -1 13 -3 24 -4 24 -6 0 -12 48 -12 92 0 29 -4 55 -9 58 -5 4 -9 16 -9 29 0 12 -6 28 -12 34 -9 9 -10 17 -2 30 5 9 11 37 13 62 2 25 7 52 12 62 5 9 9 30 9 47 0 16 5 33 10 36 6 3 10 15 10 26 0 10 4 19 10 19 5 0 12 10 15 23 3 12 18 28 33 35 15 6 38 22 52 35 40 37 89 57 141 57 26 0 51 5 54 10 8 12 145 13 145 1 0 -8 42 -19 100 -24 14 -2 41 -10 60 -19 19 -9 44 -18 55 -20 11 -2 35 -16 52 -32 34 -30 104 -66 129 -66 13 0 157 -73 180 -91 6 -5 41 -11 77 -15 l67 -6 -27 41 c-14 23 -32 41 -38 41 -13 0 -73 51 -141 117 -47 47 -105 83 -133 83 -10 0 -23 10 -30 23 -6 12 -29 28 -49 34 -57 18 -208 91 -222 108 -7 8 -17 15 -22 15 -5 0 -21 9 -35 20 -14 11 -33 20 -43 20 -10 0 -29 9 -43 21 -15 11 -44 23 -64 26 -21 3 -47 11 -58 16 -11 6 -40 14 -65 18 -25 4 -72 15 -105 24 -85 23 -95 24 -144 14z m2208 -413 c10 -9 22 -16 28 -16 19 0 163 -91 171 -108 5 -10 9 -66 11 -126 1 -60 5 -114 9 -120 8 -13 8 -12 15 -283 4 -174 2 -213 -8 -213 -8 0 -16 4 -20 10 -13 20 -74 28 -138 17 -55 -9 -69 -8 -101 7 -20 9 -50 35 -66 58 -47 65 -110 129 -121 123 -5 -4 -18 13 -28 37 -10 24 -34 59 -52 78 -37 36 -58 101 -59 182 0 25 -4 48 -10 50 -14 5 18 145 42 182 12 17 50 56 84 87 l63 57 81 -3 c58 -2 86 -7 99 -19z"/>
 <path d="M4630 7626 c0 -2 7 -7 16 -10 8 -3 12 -2 9 4 -6 10 -25 14 -25 6z"/>
 <path d="M6231 7335 c-17 -20 -31 -44 -31 -55 0 -10 -9 -39 -19 -63 -11 -25 -18 -47 -15 -49 2 -2 -1 -44 -6 -92 -7 -61 -7 -100 0 -127 7 -26 8 -45 2 -52 -11 -14 -8 -56 12 -183 8 -49 15 -106 14 -125 -1 -36 10 -157 17 -198 2 -13 9 -28 16 -32 6 -3 13 -33 14 -65 2 -33 5 -66 9 -74 3 -8 8 -53 10 -100 3 -47 10 -105 16 -130 6 -25 10 -66 10 -91 -1 -27 5 -53 13 -60 25 -26 45 -74 62 -151 9 -43 21 -80 26 -84 5 -3 9 -18 9 -33 0 -15 7 -36 15 -47 8 -10 15 -33 15 -51 0 -17 3 -33 8 -35 4 -1 16 -21 27 -43 36 -72 158 -195 230 -233 22 -11 51 -32 64 -46 14 -14 32 -26 40 -26 9 0 42 -20 74 -45 64 -51 94 -65 137 -65 26 0 33 7 55 53 27 59 30 74 15 79 -7 2 -5 16 6 36 9 18 21 64 27 103 6 38 15 69 21 69 12 0 66 -50 66 -62 0 -20 85 -108 105 -108 8 0 20 -12 27 -27 7 -15 28 -37 47 -48 18 -11 52 -37 76 -57 23 -21 49 -38 57 -38 9 0 23 -11 32 -25 9 -14 23 -25 32 -25 8 0 30 -16 48 -35 21 -22 43 -35 59 -35 14 0 28 -4 32 -9 9 -15 116 -36 123 -25 4 6 15 13 25 17 18 7 23 42 7 52 -29 18 16 81 51 70 12 -4 19 -2 20 7 0 7 2 26 4 41 2 16 -1 41 -6 55 -15 39 -21 172 -9 187 7 8 5 19 -7 36 -10 13 -27 40 -37 59 -11 19 -24 38 -30 42 -7 4 -6 14 3 30 15 29 5 59 -39 123 -17 24 -30 46 -30 50 0 3 -23 36 -51 72 -28 37 -55 77 -60 90 -5 13 -15 23 -24 23 -8 0 -15 6 -15 13 -1 18 -47 67 -65 67 -8 0 -15 4 -15 8 0 5 -11 15 -25 22 -14 7 -25 18 -25 25 0 6 -13 19 -30 28 -29 17 -29 19 -25 90 8 134 6 320 -5 331 -13 13 -13 57 -1 89 6 14 7 28 3 32 -4 3 -8 86 -9 183 -1 114 -6 178 -12 180 -14 5 -14 32 -1 32 6 0 10 7 10 15 0 8 -4 15 -10 15 -5 0 -10 11 -10 25 0 14 5 25 10 25 6 0 10 6 10 13 0 17 34 34 80 40 34 5 100 -24 100 -43 0 -13 52 -19 78 -9 23 9 23 9 5 34 -10 13 -23 25 -29 25 -7 0 -29 17 -51 38 -54 50 -82 72 -92 72 -5 0 -29 16 -53 35 -23 19 -48 39 -53 43 -42 34 -129 82 -148 82 -13 0 -28 5 -35 12 -6 6 -41 13 -77 14 -105 3 -103 7 -99 -231 3 -203 9 -316 19 -370 6 -32 9 -140 6 -220 -1 -27 -1 -57 -1 -65 1 -8 1 -87 1 -175 -1 -88 3 -176 9 -195 8 -26 7 -38 -4 -48 -9 -10 -11 -24 -6 -47 4 -18 3 -40 -2 -49 -5 -9 -7 -20 -4 -25 3 -5 -1 -14 -9 -21 -9 -7 -11 -19 -6 -32 4 -11 4 -47 0 -80 -4 -34 -5 -77 -3 -97 3 -20 6 -63 8 -96 1 -33 5 -66 7 -74 8 -29 -30 -21 -67 14 -22 20 -58 45 -81 57 -24 11 -43 24 -43 29 0 5 -5 9 -10 9 -6 0 -16 5 -23 10 -30 26 -90 60 -114 66 -26 7 -26 7 -19 -40 6 -37 4 -46 -7 -46 -18 0 -67 63 -67 86 0 17 -14 74 -32 134 -6 19 -10 82 -9 142 1 80 -3 117 -15 145 -9 22 -17 70 -18 113 -1 41 -5 80 -9 87 -4 7 -8 33 -9 58 0 25 -4 45 -9 45 -4 0 -5 22 -2 49 3 30 1 51 -6 55 -7 5 -9 31 -4 81 3 43 2 80 -4 87 -18 25 -14 95 11 174 13 43 27 95 31 114 12 63 16 70 41 70 13 0 46 -14 74 -31 28 -17 54 -29 57 -25 3 3 24 -8 46 -24 23 -17 47 -30 53 -30 21 0 27 38 10 56 -9 8 -16 21 -16 27 0 14 -31 47 -95 102 -26 22 -62 55 -81 73 -19 17 -38 32 -43 32 -4 0 -24 16 -44 35 -20 19 -42 35 -49 35 -7 0 -30 17 -51 37 -40 37 -84 52 -163 53 -36 0 -47 -5 -73 -35z m1261 -1552 c18 -38 36 -69 40 -71 5 -2 8 -13 8 -24 0 -11 14 -50 32 -86 34 -73 41 -106 40 -201 -1 -36 4 -71 9 -78 7 -8 8 -23 3 -40 -4 -16 -8 -37 -9 -48 -5 -91 -39 -175 -72 -175 -5 0 -33 23 -61 52 -43 43 -52 58 -52 88 0 19 -7 46 -16 58 -8 12 -16 38 -17 57 -1 19 -5 35 -8 35 -17 0 -16 34 1 76 11 25 20 60 20 77 1 32 20 113 31 132 10 17 10 155 1 155 -18 0 -21 40 -4 50 10 5 18 10 19 10 1 0 17 -30 35 -67z"/>
 <path d="M8082 7150 c-8 -13 -12 -53 -11 -113 1 -51 -2 -102 -8 -112 -10 -22 -9 -68 6 -194 5 -46 9 -87 9 -90 -1 -3 2 -17 5 -31 4 -14 8 -61 10 -105 3 -44 7 -87 10 -95 12 -35 15 -78 5 -88 -5 -5 -11 -56 -13 -112 -2 -84 0 -110 16 -146 14 -30 18 -55 14 -78 -4 -18 -3 -36 2 -39 5 -3 8 -27 6 -54 -1 -26 -3 -64 -3 -83 -1 -39 14 -136 24 -161 4 -10 3 -20 -3 -23 -7 -5 -7 -15 0 -34 6 -15 12 -110 13 -212 1 -102 5 -192 9 -200 3 -8 6 -26 6 -40 -2 -99 16 -160 47 -160 8 0 19 -9 26 -20 7 -11 18 -20 24 -20 7 0 31 -16 54 -35 40 -33 117 -75 138 -75 5 0 21 -10 36 -21 15 -12 30 -19 33 -15 5 5 5 48 -1 266 -2 70 21 64 107 -24 40 -42 77 -76 81 -76 5 0 36 -17 70 -39 34 -21 90 -52 125 -70 35 -17 76 -42 92 -56 43 -35 93 -42 121 -17 13 11 40 35 61 52 20 18 37 40 37 50 0 11 5 22 10 25 6 4 9 37 6 77 -3 65 -6 74 -35 100 -17 15 -31 34 -31 43 0 8 -13 21 -30 30 -16 8 -40 25 -54 38 -43 39 -55 47 -72 47 -9 0 -25 10 -36 23 -11 12 -32 29 -48 37 -15 8 -42 23 -59 33 l-31 18 1 -38 c0 -21 4 -65 8 -98 7 -52 5 -62 -13 -82 -12 -13 -29 -33 -38 -43 -10 -11 -22 -20 -27 -20 -13 0 -68 53 -81 79 -24 46 -100 138 -134 162 -29 20 -37 32 -42 69 -3 25 -12 70 -19 100 -9 39 -10 59 -3 68 7 7 8 31 3 60 -6 42 -11 105 -18 227 -2 22 -6 48 -11 57 -4 9 -3 40 3 68 16 75 12 330 -6 365 -5 11 -9 40 -8 65 1 25 -1 63 -6 85 -4 22 -4 44 0 48 5 5 2 22 -6 38 -8 16 -11 34 -7 40 4 6 8 32 11 58 2 25 4 51 4 56 3 26 -13 189 -21 209 -5 13 -22 34 -39 47 -17 13 -47 39 -68 56 -21 18 -46 33 -55 33 -10 0 -18 5 -18 10 0 20 -6 25 -45 45 -22 10 -41 23 -43 27 -2 4 -12 8 -22 8 -10 0 -22 5 -25 10 -10 16 -29 12 -43 -10z"/>
 <path d="M7656 4683 c-3 -4 -6 -26 -6 -50 0 -23 -4 -43 -10 -43 -14 0 -13 -33 2 -48 9 -9 9 -17 -1 -34 -7 -14 -9 -38 -5 -63 8 -49 7 -72 -3 -150 -5 -33 -4 -78 0 -100 15 -68 20 -225 8 -225 -13 0 -15 -56 -2 -64 5 -3 0 -31 -10 -63 -11 -32 -17 -64 -13 -73 4 -8 8 -60 10 -115 1 -55 5 -135 9 -177 4 -55 2 -86 -8 -105 -14 -29 -17 -273 -4 -303 4 -8 9 -82 11 -165 7 -250 16 -369 27 -376 6 -3 10 -9 10 -13 -1 -3 -1 -7 0 -8 2 -5 8 -112 13 -198 2 -47 6 -92 9 -100 3 -8 8 -33 11 -55 3 -22 10 -67 16 -100 19 -105 40 -276 46 -384 5 -82 11 -114 30 -148 37 -70 170 -193 189 -175 5 4 6 2 2 -3 -3 -6 19 -26 49 -45 30 -18 54 -38 54 -42 0 -4 6 -8 13 -8 8 0 24 -11 37 -25 13 -14 31 -25 41 -25 10 0 22 -6 26 -13 8 -12 26 -23 102 -64 52 -28 143 -52 226 -60 65 -5 178 11 183 27 2 6 10 10 18 10 14 0 114 49 124 61 3 3 19 13 35 22 17 8 37 25 45 36 8 12 18 21 23 21 8 0 106 96 145 144 22 26 30 56 49 191 9 67 2 219 -13 246 -8 15 -14 36 -14 45 0 23 -140 154 -164 154 -3 0 -24 18 -46 39 -22 21 -56 46 -75 55 -19 9 -37 21 -40 26 -5 8 -89 69 -133 95 -9 6 -35 22 -58 37 -23 15 -44 24 -48 21 -3 -4 -6 -2 -6 3 0 6 -17 16 -37 23 -21 8 -57 23 -81 34 -38 17 -48 18 -85 7 -23 -6 -49 -18 -57 -25 -8 -8 -19 -14 -25 -15 -5 0 -9 -15 -7 -33 4 -38 35 -68 108 -102 28 -13 63 -38 77 -55 14 -16 29 -30 32 -30 4 0 20 -11 37 -25 36 -30 52 -31 77 -6 22 22 29 24 89 22 40 -1 44 -4 59 -38 19 -45 22 -175 4 -197 -17 -20 -27 -111 -11 -101 7 4 6 -5 -4 -23 -9 -17 -16 -38 -16 -47 0 -19 -21 -57 -38 -68 -22 -14 -62 -54 -62 -62 0 -9 -40 -45 -49 -45 -3 0 -30 -23 -60 -51 -29 -27 -56 -48 -59 -45 -3 3 -18 -8 -33 -25 -20 -22 -33 -29 -47 -25 -11 4 -23 2 -26 -3 -4 -6 -14 -7 -22 -4 -9 3 -20 0 -25 -8 -6 -9 -9 -10 -9 -2 0 8 -21 11 -68 10 -87 -3 -102 8 -102 74 0 26 -4 59 -10 73 -6 16 -6 27 0 31 18 11 11 74 -9 87 -14 9 -17 18 -11 37 13 48 -8 279 -31 339 -6 15 -10 64 -9 109 0 45 -3 91 -9 101 -6 11 -11 62 -12 113 -1 52 -8 134 -16 182 -7 49 -12 121 -10 160 2 40 -2 115 -8 167 -8 55 -11 164 -9 260 2 91 4 181 3 200 -2 39 -2 149 1 225 0 28 6 106 11 175 6 69 11 130 10 135 0 6 -3 84 -6 175 -4 91 -7 188 -8 217 -1 28 -5 54 -8 58 -4 3 -5 39 -3 80 2 49 -1 75 -8 75 -6 0 -18 8 -27 19 -9 10 -40 31 -70 47 -30 16 -66 46 -81 66 -32 43 -135 130 -144 121z m281 -3135 c-3 -8 -6 -5 -6 6 -1 11 2 17 5 13 3 -3 4 -12 1 -19z"/>
 <path d="M4033 2516 c-10 -6 -22 -11 -28 -11 -72 -6 -153 -20 -174 -31 -14 -8 -32 -14 -38 -14 -20 0 -15 -28 5 -34 10 -4 34 -20 52 -36 19 -17 37 -30 40 -30 4 0 20 -11 36 -25 64 -56 78 -59 322 -70 128 -5 124 -3 144 -87 11 -44 16 -95 13 -127 -5 -63 -25 -151 -37 -165 -4 -6 -8 -19 -8 -31 0 -12 -4 -25 -9 -31 -5 -5 -21 -38 -36 -74 -38 -90 -58 -130 -66 -130 -4 0 -5 -13 -3 -30 4 -22 2 -29 -8 -25 -7 3 -27 -16 -46 -43 -60 -88 -130 -151 -151 -138 -5 4 -18 -2 -28 -12 -36 -36 -150 -102 -176 -102 -30 0 -107 -30 -107 -42 0 -16 -46 -31 -107 -35 -35 -2 -81 -10 -102 -18 -22 -7 -65 -13 -97 -12 -43 2 -63 -2 -81 -16 -13 -10 -30 -17 -37 -14 -7 3 -19 0 -26 -6 -10 -9 -11 -9 -6 0 5 9 -5 11 -40 8 -25 -3 -51 -2 -57 2 -6 3 -38 8 -71 9 -86 5 -125 10 -132 17 -3 3 -12 3 -20 0 -14 -5 -87 20 -181 64 -29 13 -61 26 -73 28 -12 2 -35 16 -52 30 -41 35 -59 19 -27 -25 14 -19 51 -44 91 -62 38 -18 68 -35 68 -39 0 -11 105 -69 124 -69 9 0 16 -7 16 -15 0 -8 7 -15 17 -15 9 0 30 -11 47 -24 17 -13 47 -27 66 -31 19 -4 51 -15 70 -25 76 -39 140 -58 205 -61 22 -1 46 -7 53 -12 6 -5 12 -7 12 -4 0 3 28 -1 63 -9 34 -8 73 -14 87 -12 14 1 30 -1 36 -5 15 -9 141 -1 184 12 19 6 56 11 83 11 26 0 66 9 90 19 23 11 58 19 77 19 19 1 36 6 38 11 2 6 11 11 21 11 9 0 26 7 37 15 10 8 31 15 46 15 14 0 28 4 30 8 5 12 98 62 117 62 27 0 105 30 126 49 11 9 37 26 58 37 21 10 54 40 74 67 19 26 39 47 44 47 5 0 9 6 9 14 0 7 14 31 31 52 17 22 40 58 51 82 11 23 24 42 29 42 5 0 9 7 9 16 0 8 5 25 12 37 7 12 12 29 13 37 1 20 24 100 36 122 5 10 9 29 9 42 0 14 4 27 9 30 14 9 8 189 -6 194 -7 2 -13 17 -13 33 0 16 -9 47 -20 69 -11 22 -20 44 -20 50 0 17 -80 93 -112 107 -15 7 -34 23 -43 36 -8 13 -39 39 -68 57 -28 19 -70 49 -93 67 -24 19 -52 33 -68 33 -15 0 -29 6 -32 14 -3 8 -19 20 -35 26 -16 7 -29 16 -29 21 0 13 -148 80 -185 83 -19 1 -42 -2 -52 -8z"/>
 <path d="M5035 2457 c-20 -12 -66 -50 -111 -93 -20 -19 -54 -112 -54 -149 0 -9 -4 -24 -9 -33 -11 -21 25 -137 52 -167 10 -11 24 -27 32 -36 8 -9 15 -20 16 -25 0 -5 20 -25 45 -44 25 -19 62 -52 82 -72 20 -21 41 -38 48 -38 6 0 19 -9 29 -20 10 -11 24 -20 31 -20 7 0 14 -5 16 -11 2 -5 11 -11 20 -13 9 -1 25 -9 35 -18 10 -8 32 -22 48 -31 17 -8 46 -29 65 -46 19 -17 47 -36 63 -42 15 -6 27 -15 27 -20 0 -5 11 -9 25 -9 26 0 63 -20 98 -51 10 -9 32 -19 49 -23 16 -3 42 -14 56 -24 35 -23 192 -32 192 -11 0 11 3 11 10 -1 5 -8 10 -10 10 -5 0 6 12 15 28 21 15 6 49 36 76 67 l48 57 -8 57 c-4 32 -6 64 -5 71 1 7 -6 15 -16 19 -10 4 -29 17 -43 30 -14 13 -28 23 -32 23 -3 0 -13 6 -20 13 -21 21 -162 111 -177 113 -8 2 -18 10 -23 18 -5 9 -15 16 -23 16 -8 0 -26 11 -41 25 -15 14 -35 25 -45 25 -11 0 -19 4 -19 8 0 5 -21 19 -46 33 -46 24 -51 27 -113 66 -19 12 -38 20 -43 17 -16 -10 -8 33 10 49 25 23 117 40 175 33 29 -3 56 -1 63 4 7 7 21 7 35 2 13 -5 51 -9 83 -10 33 -1 64 -6 70 -12 5 -5 21 -10 34 -10 32 0 23 22 -14 35 -16 6 -45 26 -64 46 -32 32 -57 48 -70 45 -3 0 -19 9 -37 22 -17 12 -36 22 -42 22 -6 0 -11 4 -11 8 0 7 -33 24 -125 63 -73 31 -438 51 -480 26z m294 -506 c22 -16 45 -19 131 -20 57 -1 109 -6 114 -11 6 -6 18 -10 27 -10 24 0 43 -26 34 -47 -4 -10 -9 -30 -10 -45 -2 -25 -29 -65 -72 -110 -9 -10 -27 -18 -39 -18 -29 0 -106 39 -118 59 -5 9 -30 36 -55 61 -52 51 -81 121 -60 146 15 18 16 18 48 -5z"/>
 <path d="M6437 2433 c-4 -4 -35 -8 -70 -9 -112 -5 -129 -9 -154 -40 -13 -16 -37 -45 -54 -64 l-30 -35 3 -124 3 -123 33 -27 c18 -16 32 -37 32 -49 0 -12 5 -22 10 -22 6 0 10 -6 10 -14 0 -7 6 -19 14 -25 8 -7 22 -27 31 -46 9 -19 20 -35 25 -35 6 0 10 -7 10 -15 0 -8 7 -15 15 -15 9 0 19 -8 22 -17 9 -22 118 -131 158 -158 39 -26 104 -55 121 -55 8 0 14 -4 14 -9 0 -11 63 -49 95 -57 14 -3 25 -10 25 -14 0 -4 20 -15 45 -24 25 -10 45 -21 45 -25 0 -4 26 -13 58 -20 31 -7 70 -20 85 -28 15 -8 47 -14 70 -12 23 1 50 -2 59 -6 28 -11 118 3 147 24 21 15 27 28 29 70 2 34 -1 51 -9 51 -6 0 -9 6 -6 13 7 19 -11 57 -27 57 -9 0 -20 9 -26 20 -6 11 -15 20 -21 20 -5 0 -24 14 -42 30 -18 17 -52 40 -77 52 -25 11 -52 29 -61 39 -9 11 -24 19 -33 19 -10 0 -24 7 -33 15 -8 8 -18 13 -22 10 -5 -2 -16 4 -26 15 -10 11 -24 20 -32 20 -7 0 -13 3 -13 8 0 4 -24 18 -52 31 -29 13 -72 32 -96 43 -24 11 -58 21 -75 22 -28 2 -85 25 -64 26 5 0 1 7 -7 16 -11 10 -16 33 -16 67 0 49 3 55 50 105 50 52 51 52 113 52 135 1 273 13 301 27 21 11 31 12 36 3 6 -10 78 -17 105 -10 16 4 55 -11 55 -22 0 -5 8 -7 18 -4 26 8 143 -37 176 -67 16 -15 41 -30 55 -34 14 -3 33 -11 41 -19 8 -7 29 -16 45 -20 17 -4 46 -15 65 -26 19 -10 43 -18 52 -18 10 0 18 -4 18 -10 0 -5 5 -10 10 -10 6 0 10 6 10 13 -1 15 -47 68 -57 65 -4 -2 -24 9 -44 25 -20 15 -41 27 -47 27 -7 0 -12 4 -12 9 0 5 -24 21 -52 36 -29 14 -75 39 -102 56 -27 16 -62 33 -77 36 -16 3 -29 9 -29 14 0 5 -20 14 -45 20 -25 6 -48 15 -51 20 -3 5 -18 9 -35 9 -18 0 -29 5 -29 14 0 15 -21 26 -51 26 -11 0 -22 6 -25 14 -3 7 -24 17 -46 20 -23 4 -53 13 -67 20 -43 23 -150 36 -216 27 -33 -5 -62 -5 -65 -1 -6 9 -96 6 -128 -4 -11 -4 -23 -2 -27 4 -7 11 -48 14 -58 3z m314 -683 c149 -12 155 -17 123 -89 -10 -22 -29 -43 -50 -53 -43 -22 -58 -22 -74 -3 -7 8 -20 15 -29 15 -16 0 -111 120 -111 141 0 7 8 9 23 4 12 -4 65 -11 118 -15z"/>
 </g>
<g id="layer2" fill="#fdfdfd" stroke="none">
 <path d="M0 8000 l0 -8000 5050 0 5050 0 0 8000 0 8000 -5050 0 -5050 0 0 -8000z m1070 7414 c0 -6 10 -20 23 -31 12 -11 28 -28 35 -39 48 -73 72 -117 72 -130 0 -8 11 -27 25 -42 14 -15 25 -34 25 -44 0 -9 4 -18 8 -20 11 -4 52 -94 52 -113 0 -22 -7 -19 -46 20 -42 42 -57 45 -50 8 2 -16 8 -46 11 -68 4 -22 26 -99 51 -171 24 -73 44 -139 44 -148 0 -9 5 -16 10 -16 6 0 10 -7 10 -16 0 -9 16 -49 35 -88 19 -39 36 -83 39 -98 6 -37 36 -98 48 -98 6 0 8 -8 5 -19 -2 -10 4 -29 14 -42 10 -13 19 -29 19 -35 0 -15 51 -128 61 -134 4 -3 11 -19 15 -35 4 -17 15 -46 25 -65 10 -19 30 -60 44 -90 15 -30 38 -73 51 -95 24 -41 28 -49 47 -98 5 -16 15 -34 21 -40 6 -7 25 -38 41 -70 17 -31 33 -57 36 -57 4 0 9 -10 13 -23 3 -12 22 -40 42 -62 33 -37 84 -126 84 -148 0 -5 16 -27 35 -48 19 -22 35 -46 35 -54 0 -8 6 -15 13 -15 7 0 21 -16 32 -36 46 -86 81 -97 76 -23 -6 81 -7 86 -24 103 -9 10 -17 24 -17 32 0 8 -5 14 -12 14 -6 0 -8 3 -5 6 9 10 -12 44 -27 44 -13 0 -54 48 -97 115 -70 108 -79 127 -89 170 -6 26 -21 56 -35 69 -14 13 -25 28 -25 33 0 21 -43 107 -66 132 -13 14 -34 45 -47 70 -29 57 -48 92 -59 111 -43 78 -139 288 -153 335 -9 33 -21 68 -27 78 -6 12 -6 23 1 31 12 15 2 96 -13 102 -7 3 -13 23 -14 44 -2 30 1 40 12 40 9 0 25 14 38 30 12 17 25 30 28 30 10 0 50 -36 50 -45 0 -4 9 -18 20 -32 11 -14 20 -34 20 -44 0 -9 11 -31 25 -47 35 -41 33 -63 -4 -56 -43 9 -72 -11 -67 -44 3 -15 8 -54 11 -87 7 -71 41 -179 61 -196 8 -6 14 -20 14 -31 0 -19 17 -58 29 -68 3 -3 19 -31 34 -62 16 -32 32 -58 37 -58 4 0 20 -26 36 -57 15 -32 42 -80 61 -108 18 -27 33 -54 33 -59 0 -5 11 -24 25 -41 13 -18 22 -35 19 -37 -2 -3 2 -11 11 -18 8 -7 15 -20 15 -29 0 -15 25 -56 87 -146 15 -22 37 -62 48 -90 22 -54 49 -70 58 -34 10 37 3 169 -9 177 -6 4 -15 26 -19 49 -3 23 -13 47 -21 54 -8 6 -14 17 -14 24 0 7 -7 18 -15 25 -9 7 -14 19 -11 26 3 7 -2 18 -9 24 -10 8 -15 38 -16 98 -2 134 -3 144 -26 192 -12 25 -24 64 -27 87 -3 23 -11 54 -20 70 -24 47 -49 184 -62 338 -2 33 -9 64 -14 69 -6 6 -10 43 -10 82 0 40 -4 84 -9 97 -7 19 -4 36 15 76 26 53 38 62 48 35 3 -8 10 -13 15 -10 5 3 14 -8 21 -24 7 -17 16 -30 21 -30 5 0 9 -11 9 -24 0 -14 4 -27 9 -30 5 -3 22 -32 38 -63 35 -68 39 -124 9 -129 -31 -4 -36 -17 -36 -90 -1 -106 10 -193 31 -261 6 -18 8 -37 4 -43 -3 -5 -1 -19 5 -30 8 -14 8 -20 0 -20 -6 0 0 -11 12 -24 44 -45 55 -12 63 204 3 69 10 154 15 190 6 36 11 74 13 85 1 11 6 26 10 33 5 7 10 65 12 129 3 63 7 139 11 167 3 28 6 82 5 120 -1 52 4 77 18 101 12 21 18 48 17 75 -1 26 2 44 10 47 7 3 16 33 19 69 4 35 10 64 14 64 11 0 53 -78 73 -135 25 -67 25 -227 1 -268 -2 -4 -6 -51 -8 -105 -2 -53 -8 -119 -14 -147 -5 -27 -6 -56 -2 -63 5 -8 5 -32 1 -54 -4 -22 -4 -56 0 -76 5 -20 6 -50 4 -67 -3 -16 -7 -149 -9 -295 -3 -216 -8 -347 -17 -505 0 -5 5 -29 11 -53 15 -52 7 -89 -15 -71 -8 6 -19 31 -25 55 -8 32 -16 44 -29 44 -15 0 -18 -8 -18 -45 0 -25 3 -43 7 -40 16 9 39 -31 52 -90 6 -33 16 -64 21 -69 4 -6 8 -23 8 -38 0 -15 5 -28 10 -28 6 0 10 -6 10 -12 0 -7 9 -24 20 -38 23 -29 25 -53 6 -72 -10 -10 -12 -44 -11 -138 2 -69 4 -125 4 -125 1 0 3 -30 4 -66 1 -47 7 -70 20 -83 9 -10 17 -24 17 -32 0 -16 77 -104 91 -104 4 0 20 -11 35 -25 15 -14 33 -25 40 -25 7 0 19 -6 26 -13 7 -7 42 -33 78 -57 35 -24 75 -55 87 -69 16 -16 34 -24 56 -24 17 0 48 -11 67 -24 19 -12 40 -23 46 -23 6 0 28 -13 50 -30 21 -16 44 -30 51 -30 7 0 16 -6 20 -13 4 -7 25 -23 46 -36 20 -12 37 -26 37 -30 0 -4 15 -12 33 -19 18 -7 43 -25 55 -42 13 -16 28 -30 34 -30 7 0 34 -21 61 -47 31 -30 51 -43 54 -35 5 13 43 17 43 4 0 -4 12 -15 28 -24 15 -9 50 -37 77 -62 28 -25 53 -45 57 -46 11 0 43 -27 99 -82 27 -27 51 -48 53 -48 8 0 56 -50 56 -58 1 -7 65 -51 117 -80 12 -7 51 -40 85 -73 34 -33 75 -68 90 -77 16 -9 28 -22 28 -29 0 -8 11 -19 25 -25 14 -6 25 -17 25 -25 0 -7 5 -13 10 -13 6 0 10 -7 10 -15 0 -8 5 -15 11 -15 20 0 84 -69 109 -117 14 -27 28 -49 33 -51 4 -2 7 -21 7 -42 0 -31 6 -43 33 -65 56 -46 97 -84 97 -90 0 -9 67 -74 113 -109 20 -16 37 -35 37 -43 0 -7 14 -19 30 -28 17 -9 30 -22 30 -29 0 -13 56 -69 77 -77 5 -2 20 -22 33 -44 13 -22 42 -62 65 -90 64 -77 165 -235 172 -267 3 -15 10 -31 14 -34 5 -3 9 -13 9 -23 0 -10 7 -24 15 -31 8 -7 12 -16 9 -22 -3 -5 1 -20 10 -33 9 -13 16 -31 16 -40 0 -8 4 -15 9 -15 10 0 31 -77 31 -113 0 -13 9 -53 20 -87 11 -35 22 -80 25 -102 4 -34 11 -54 37 -98 4 -8 12 -25 18 -37 5 -13 14 -23 19 -23 5 0 12 -9 16 -20 3 -11 31 -39 61 -62 30 -24 69 -65 85 -92 17 -26 43 -59 58 -71 15 -13 36 -41 46 -62 11 -21 28 -44 38 -51 9 -7 17 -24 17 -38 0 -13 4 -24 9 -24 5 0 14 -13 19 -29 6 -16 20 -39 31 -50 12 -12 21 -32 21 -45 0 -14 5 -28 10 -31 6 -3 10 -15 10 -26 0 -10 6 -19 14 -19 9 0 21 -23 32 -57 9 -32 28 -72 41 -90 12 -17 23 -39 23 -48 0 -10 14 -35 32 -57 41 -52 54 -117 47 -235 -2 -26 10 -66 34 -120 5 -12 9 -34 9 -50 0 -15 9 -38 20 -50 12 -13 18 -30 15 -42 -2 -11 1 -46 9 -78 8 -32 14 -74 14 -94 0 -20 6 -42 14 -48 8 -7 16 -31 19 -54 4 -23 8 -57 11 -76 2 -18 9 -38 15 -44 6 -6 11 -32 11 -57 0 -25 4 -50 9 -56 5 -5 12 -31 14 -58 3 -27 14 -61 26 -76 11 -16 23 -41 27 -56 4 -16 29 -51 56 -78 26 -27 48 -53 48 -58 0 -5 11 -21 25 -36 14 -15 25 -31 25 -35 0 -11 -44 3 -49 16 -8 22 -94 94 -107 90 -6 -2 -21 6 -34 17 -13 11 -27 20 -32 20 -5 0 -7 4 -4 9 3 5 -7 17 -22 27 -33 22 -52 40 -52 51 0 4 -17 27 -37 49 -68 74 -103 119 -103 132 0 6 -4 12 -10 12 -5 0 -10 9 -10 20 0 11 -4 20 -9 20 -5 0 -17 21 -27 48 -9 26 -21 51 -26 56 -4 6 -8 20 -8 31 0 12 -3 25 -7 29 -8 8 -29 94 -38 161 -4 22 -11 45 -17 52 -5 7 -7 16 -5 20 5 8 -1 34 -46 188 -11 39 -22 90 -25 115 -2 24 -11 54 -19 66 -19 29 -26 60 -27 116 -1 26 -7 53 -13 59 -7 7 -13 34 -13 59 0 25 -5 51 -12 58 -7 7 -9 12 -5 12 7 0 -14 66 -37 115 -19 42 -32 73 -52 128 -9 26 -21 47 -25 47 -5 0 -9 6 -9 13 0 8 -6 27 -14 43 -39 82 -47 104 -42 113 4 5 2 12 -4 16 -5 3 -10 13 -10 21 0 9 -7 22 -15 31 -13 12 -18 13 -30 3 -10 -8 -12 -17 -6 -24 6 -6 11 -37 12 -69 1 -31 6 -57 11 -57 10 0 5 -87 -6 -97 -3 -3 -6 8 -6 25 0 18 -4 32 -9 32 -6 0 -7 16 -4 35 4 23 2 35 -6 35 -6 0 -11 10 -11 23 0 12 -9 46 -20 75 -11 29 -20 66 -20 83 0 83 -47 165 -114 199 -15 8 -38 25 -50 39 -11 13 -31 34 -43 48 -13 13 -23 28 -23 33 0 20 -42 121 -56 135 -8 8 -15 17 -14 20 0 12 -34 75 -42 75 -4 0 -8 6 -8 13 0 7 -33 47 -73 89 -39 42 -96 102 -125 133 -38 42 -56 55 -64 47 -8 -8 -3 -26 16 -66 15 -31 32 -58 37 -62 5 -3 21 -28 34 -55 14 -27 36 -72 51 -100 14 -28 24 -61 22 -73 -3 -18 -14 -10 -79 55 -66 66 -148 169 -141 177 1 1 -5 16 -13 32 -9 17 -13 35 -10 40 4 6 -1 13 -9 16 -9 3 -29 34 -46 67 -37 76 -98 173 -156 250 -24 31 -44 61 -44 65 0 4 -25 31 -55 59 -30 29 -55 57 -55 63 0 5 -5 10 -11 10 -6 0 -31 23 -57 52 -26 28 -66 71 -89 95 -24 24 -43 48 -43 53 0 6 -6 10 -12 10 -13 0 -37 21 -149 133 -32 31 -62 57 -67 57 -4 0 -18 11 -30 25 -12 14 -27 25 -33 25 -6 0 -35 24 -66 53 -30 28 -62 57 -72 62 -24 14 -115 88 -119 98 -2 4 -7 7 -11 7 -5 0 -37 27 -72 60 -35 33 -67 60 -70 60 -3 0 -40 34 -82 75 -42 41 -81 75 -87 75 -11 0 -69 51 -181 160 -107 104 -159 150 -169 150 -5 0 -11 8 -15 18 -10 30 -135 156 -144 146 -13 -13 -21 -104 -24 -264 l-2 -135 42 -84 c24 -46 43 -90 43 -98 0 -7 5 -13 10 -13 6 0 10 -8 10 -18 0 -9 10 -29 23 -43 26 -30 47 -65 47 -80 0 -5 12 -26 27 -45 38 -51 63 -44 86 26 10 30 19 62 20 70 4 19 36 80 42 80 21 0 105 -74 105 -92 0 -5 11 -13 24 -18 20 -7 24 -15 23 -46 -1 -21 4 -39 10 -41 19 -7 38 -109 25 -136 -6 -12 -9 -37 -8 -54 1 -18 3 -56 4 -83 2 -36 8 -55 22 -67 11 -10 20 -21 20 -26 0 -4 11 -20 24 -34 14 -15 33 -42 43 -62 10 -20 30 -51 45 -69 15 -18 31 -45 35 -60 3 -15 19 -44 35 -66 15 -21 28 -43 28 -48 0 -5 13 -28 28 -51 15 -23 46 -77 67 -121 24 -46 49 -83 62 -89 13 -5 25 -18 28 -28 9 -29 34 -49 59 -49 12 0 33 -11 46 -25 13 -14 29 -25 36 -25 7 0 29 -13 47 -30 19 -16 40 -30 46 -30 6 0 11 -4 11 -9 0 -5 8 -12 18 -15 17 -6 50 -32 122 -99 19 -18 65 -56 103 -86 37 -29 67 -57 67 -62 0 -5 6 -9 14 -9 8 0 21 -8 28 -19 7 -10 36 -37 65 -59 28 -23 71 -61 96 -86 25 -25 50 -46 56 -46 6 0 11 -7 11 -15 0 -8 5 -15 10 -15 6 0 10 -7 10 -15 0 -8 4 -15 9 -15 8 0 58 -50 158 -158 29 -32 65 -70 80 -87 15 -16 33 -42 40 -57 7 -16 18 -28 26 -28 19 0 55 -45 77 -96 11 -24 25 -44 33 -44 7 0 18 -15 25 -34 7 -18 21 -41 32 -51 11 -10 20 -26 20 -35 0 -9 11 -22 25 -28 14 -7 30 -23 35 -37 5 -14 27 -52 49 -84 22 -31 44 -75 50 -97 6 -21 24 -65 40 -96 17 -32 28 -65 24 -73 -3 -9 2 -24 12 -35 10 -11 20 -40 22 -64 3 -25 12 -51 19 -57 8 -6 14 -28 14 -48 0 -27 10 -52 35 -87 19 -27 35 -59 35 -71 0 -12 4 -24 9 -27 4 -3 16 -31 26 -63 10 -32 26 -69 37 -82 10 -13 18 -36 18 -52 0 -15 5 -31 10 -34 6 -3 10 -19 10 -34 0 -20 6 -30 20 -34 20 -5 40 -43 40 -78 0 -11 11 -30 25 -43 14 -13 25 -28 25 -34 0 -6 6 -17 13 -24 16 -18 35 -51 68 -120 16 -31 47 -74 71 -95 23 -21 52 -48 65 -60 13 -12 23 -19 23 -16 0 4 25 -19 55 -51 30 -32 52 -62 49 -67 -2 -5 7 -18 21 -31 34 -29 32 -48 -5 -48 -19 0 -30 -5 -30 -14 0 -14 82 -76 101 -76 5 0 9 -7 9 -15 0 -8 7 -15 15 -15 8 0 25 -16 37 -35 13 -19 29 -35 36 -35 16 0 15 -29 -3 -64 -9 -16 -13 -31 -10 -34 3 -3 -2 -17 -11 -31 -13 -19 -17 -49 -17 -130 0 -138 6 -233 15 -247 4 -6 7 -58 6 -115 -2 -96 0 -117 17 -175 4 -12 2 -25 -4 -28 -13 -9 -15 -89 -2 -114 16 -31 30 -116 27 -162 -2 -25 0 -54 4 -65 11 -27 34 -203 31 -240 0 -16 -6 -43 -13 -59 -10 -24 -9 -31 4 -40 18 -13 36 -86 21 -86 -5 0 -11 -30 -12 -67 -4 -95 -4 -93 -12 -93 -3 0 -9 -28 -12 -62 -10 -119 -17 -137 -81 -220 -7 -10 -22 -18 -32 -18 -11 0 -28 -6 -39 -14 -44 -29 -71 -28 -132 10 -32 19 -67 40 -78 47 -11 7 -22 14 -25 17 -3 3 -36 28 -75 55 -38 27 -71 53 -73 57 -2 4 -9 8 -17 8 -7 0 -18 7 -25 15 -19 22 -55 18 -68 -7 -6 -13 -10 -42 -8 -66 3 -44 -15 -114 -31 -119 -5 -2 -27 10 -48 27 -21 16 -42 30 -47 30 -5 0 -7 4 -4 9 4 5 -5 13 -18 18 -28 10 -96 68 -96 83 0 5 -13 10 -30 10 -16 0 -35 7 -42 16 -7 9 -24 27 -37 40 -21 21 -23 29 -16 71 4 27 9 68 10 93 8 114 9 130 16 130 10 0 0 141 -13 173 -9 22 -8 31 6 46 11 12 15 30 12 54 -2 20 -1 39 2 41 9 5 6 152 -3 227 -4 33 -3 64 2 74 6 11 7 35 1 64 -5 25 -11 100 -13 166 -3 66 -9 156 -15 200 -15 120 -20 204 -12 209 14 8 0 207 -20 281 -9 36 -14 99 -19 251 -2 54 16 94 41 94 8 0 35 -19 59 -41 63 -58 127 -109 137 -110 5 -1 33 -27 62 -59 56 -61 73 -103 62 -155 -4 -17 -1 -41 6 -55 6 -14 12 -54 13 -89 0 -35 4 -69 9 -75 5 -6 10 -49 11 -96 1 -46 6 -89 10 -95 5 -5 6 -48 3 -95 -2 -47 -5 -95 -4 -107 2 -86 5 -113 11 -117 4 -3 6 -22 4 -43 -1 -21 0 -45 4 -53 4 -8 8 -49 9 -90 1 -41 6 -102 11 -135 5 -36 5 -78 0 -105 -7 -31 -6 -45 2 -48 6 -2 8 -8 5 -14 -4 -6 -8 -32 -9 -59 -2 -27 -8 -56 -15 -64 -10 -12 -10 -18 -1 -29 9 -11 10 -25 2 -52 -7 -27 -7 -42 0 -51 6 -7 11 -36 11 -65 0 -61 24 -114 72 -164 43 -44 76 -44 115 -1 63 68 71 81 71 103 0 13 4 25 9 29 14 8 22 85 13 125 -5 22 -3 58 5 95 15 72 16 138 3 185 -14 53 -20 139 -9 145 5 4 3 16 -5 28 -8 12 -17 49 -21 82 -3 33 -11 72 -17 87 -6 15 -7 36 -3 45 5 10 7 23 5 28 -2 6 -4 44 -6 85 -1 41 -5 84 -7 95 -6 24 -15 97 -22 180 -3 33 -8 80 -12 105 -3 25 -7 128 -7 230 -1 175 0 187 22 221 12 20 22 42 22 48 0 15 -80 91 -95 91 -13 0 -65 55 -65 68 0 4 -11 19 -24 33 -12 14 -37 55 -55 92 -17 36 -36 69 -40 72 -5 2 -12 16 -15 30 -4 14 -26 51 -49 83 -39 53 -45 57 -81 55 -59 -2 -143 52 -165 106 -10 22 -30 128 -45 231 -8 56 -19 106 -26 115 -4 6 -13 35 -19 65 -15 69 -22 98 -66 290 -20 85 -42 166 -49 180 -7 14 -21 52 -30 85 -9 33 -24 75 -32 93 -8 18 -14 39 -14 47 0 17 -41 99 -52 103 -4 2 -8 8 -8 14 0 5 -20 30 -44 56 -45 48 -98 72 -154 72 -20 0 -39 10 -59 33 -17 17 -46 48 -64 68 -19 20 -43 39 -55 43 -22 7 -74 78 -74 102 0 22 79 18 118 -6 37 -23 62 -26 62 -7 0 11 -165 187 -175 187 -2 0 -21 17 -42 38 -22 20 -72 64 -112 96 -40 33 -77 68 -82 78 -5 10 -28 30 -50 43 -38 24 -74 53 -108 85 -9 8 -48 35 -86 60 -38 25 -78 53 -90 63 -38 35 -108 75 -122 70 -8 -3 -11 -14 -6 -32 8 -32 63 -141 80 -159 17 -17 17 -48 0 -55 -30 -12 -127 88 -127 130 0 8 -11 24 -25 35 -14 11 -25 28 -25 38 0 22 -40 100 -52 100 -4 0 -8 7 -8 15 0 8 -4 15 -8 15 -5 0 -32 30 -60 68 -28 37 -64 82 -78 99 -21 26 -24 36 -15 47 9 10 9 20 2 35 -6 12 -16 30 -21 41 -5 11 -10 25 -10 31 0 6 -11 33 -25 61 -14 27 -25 56 -25 65 0 18 -38 73 -51 73 -5 0 -9 -25 -9 -55 0 -35 -4 -55 -12 -55 -6 0 -4 -8 6 -19 13 -15 19 -42 22 -103 3 -46 9 -108 15 -138 5 -30 12 -75 15 -100 3 -25 9 -58 14 -74 6 -15 7 -33 4 -38 -3 -5 1 -17 11 -27 9 -11 17 -41 20 -72 4 -61 23 -151 33 -159 10 -8 32 -48 32 -60 0 -6 9 -29 19 -53 10 -23 29 -75 42 -115 18 -57 32 -81 66 -113 24 -22 43 -44 43 -50 0 -5 11 -14 25 -19 14 -5 34 -23 43 -40 9 -16 23 -30 30 -30 6 0 12 -4 12 -8 0 -5 16 -26 35 -48 25 -27 35 -49 35 -71 0 -18 4 -33 9 -33 5 0 13 -10 17 -22 3 -13 12 -30 19 -38 7 -8 12 -30 12 -49 0 -20 6 -39 16 -46 9 -7 17 -22 17 -35 0 -24 27 -115 41 -140 5 -8 17 -31 26 -50 10 -19 28 -48 40 -63 13 -16 23 -36 23 -45 1 -9 12 -35 25 -57 14 -22 29 -49 34 -60 5 -11 18 -28 30 -39 17 -15 23 -16 36 -6 18 15 20 37 3 43 -10 4 -10 7 -1 17 10 11 16 9 33 -11 11 -13 23 -34 26 -46 3 -13 12 -23 19 -23 18 0 24 -21 13 -44 -16 -30 -17 -129 -2 -151 8 -11 14 -32 14 -47 0 -17 7 -31 21 -38 11 -7 27 -27 35 -45 7 -18 19 -39 26 -47 17 -17 67 -94 91 -138 11 -19 23 -37 27 -40 14 -10 70 -119 70 -137 0 -10 9 -25 20 -33 26 -19 62 -79 55 -91 -4 -5 5 -13 19 -19 31 -11 74 -77 72 -110 -1 -20 4 -26 24 -28 14 -2 46 -20 70 -41 43 -37 44 -39 28 -58 -24 -26 -23 -35 7 -67 35 -38 16 -32 -31 9 -21 19 -54 42 -71 50 -18 9 -38 26 -44 37 -7 12 -20 29 -30 38 -9 8 -28 35 -41 60 -13 25 -45 78 -71 118 -26 40 -47 76 -47 81 0 4 -9 16 -20 26 -11 10 -20 25 -20 33 0 8 -11 30 -25 48 -14 18 -25 36 -25 39 0 4 -11 20 -25 37 -14 16 -25 38 -25 49 0 10 -4 19 -9 19 -5 0 -14 14 -22 31 -7 18 -39 59 -71 92 -32 33 -58 65 -58 71 0 6 -20 29 -45 50 -25 22 -45 46 -45 54 0 8 -14 34 -30 59 -17 24 -37 59 -45 76 -21 44 -49 91 -57 97 -4 3 -23 38 -42 77 -19 39 -40 74 -45 78 -6 3 -11 15 -11 25 0 10 -6 25 -14 32 -8 8 -25 37 -39 65 -15 28 -40 62 -57 76 -16 14 -30 32 -30 39 0 8 -14 27 -30 43 -36 35 -92 126 -149 243 -9 18 -24 42 -33 52 -10 11 -18 26 -18 34 0 8 -4 18 -10 21 -5 3 -10 15 -10 25 0 10 -4 20 -8 22 -10 4 -131 248 -137 275 -2 12 -11 33 -20 47 -10 14 -14 26 -10 26 3 0 -3 13 -14 29 -12 16 -21 35 -21 43 0 8 -6 20 -13 27 -6 6 -13 16 -13 22 -4 30 -6 32 -13 14 -7 -18 -11 -15 -30 23 -18 36 -19 42 -6 42 9 0 13 5 10 10 -4 6 -11 8 -16 5 -10 -7 -12 4 -9 51 1 17 -6 48 -14 69 -9 21 -16 54 -16 74 0 20 -4 41 -9 46 -5 6 -11 33 -12 60 -1 28 -6 58 -11 68 -5 9 -10 36 -12 60 -2 23 -5 44 -6 47 -1 3 -1 15 0 28 1 13 -4 29 -10 37 -6 8 -9 18 -6 23 3 5 -2 31 -10 57 -8 27 -14 63 -14 80 1 131 2 126 -36 163 -19 19 -39 45 -44 58 -5 13 -25 34 -44 46 -20 13 -36 27 -36 32 0 5 -7 17 -15 26 -8 9 -18 39 -21 66 -9 67 -54 164 -76 164 -16 0 -18 -12 -18 -106 0 -58 4 -113 10 -123 6 -12 6 -30 -1 -52 -5 -19 -11 -79 -13 -135 -1 -55 -6 -106 -10 -113 -4 -6 -2 -18 4 -26 14 -17 10 -106 -10 -220 -7 -38 -14 -83 -15 -100 -2 -16 -7 -49 -10 -72 -4 -23 -4 -50 0 -60 13 -30 16 -55 7 -67 -4 -6 -9 -25 -11 -42 -2 -24 4 -37 23 -51 17 -14 22 -24 15 -34 -5 -8 -8 -27 -7 -44 0 -23 2 -25 5 -7 5 26 22 30 24 5 2 -27 4 -36 18 -68 7 -16 14 -37 16 -45 2 -8 8 -28 13 -45 12 -39 7 -162 -7 -179 -13 -15 -10 -42 7 -73 7 -13 11 -53 10 -100 -1 -43 2 -85 7 -93 9 -15 13 -84 14 -235 0 -49 0 -114 0 -143 0 -29 5 -61 11 -72 5 -10 10 -30 10 -44 0 -13 14 -47 31 -75 29 -47 30 -51 15 -72 -11 -17 -13 -26 -4 -36 8 -10 8 -20 0 -37 -6 -13 -8 -27 -4 -30 3 -4 7 -67 8 -140 1 -86 6 -142 15 -157 7 -13 14 -35 15 -49 4 -42 26 -143 43 -194 16 -50 19 -53 84 -81 20 -9 38 -19 38 -23 1 -4 2 -20 3 -35 1 -16 10 -33 19 -38 43 -24 53 -87 25 -147 -10 -18 -6 -33 23 -89 22 -44 41 -69 54 -71 28 -6 85 -50 85 -67 0 -31 -32 -94 -45 -89 -7 3 -16 1 -19 -5 -11 -18 -79 1 -108 31 -15 16 -28 33 -28 38 0 5 -9 12 -20 15 -11 3 -20 13 -20 21 0 8 -9 23 -21 35 -11 11 -18 27 -15 34 2 7 -4 21 -15 31 -10 9 -19 23 -19 29 0 7 -9 15 -19 18 -13 3 -41 49 -85 138 -36 73 -66 139 -66 146 0 7 -4 13 -10 13 -5 0 -10 11 -10 25 0 14 -3 25 -8 25 -4 0 -16 20 -27 45 -11 25 -23 45 -27 45 -5 0 -8 12 -8 28 0 15 -7 36 -15 46 -8 11 -15 28 -15 38 0 10 -6 21 -13 24 -8 3 -14 10 -15 17 0 7 -1 30 -3 52 -1 22 -5 45 -9 50 -5 6 -11 26 -14 45 -3 19 -8 46 -12 60 -11 48 -24 115 -33 177 -5 35 -18 82 -29 105 -16 33 -21 65 -21 138 -1 52 -4 120 -9 150 -4 30 -5 73 -1 95 6 33 5 191 -1 295 0 14 1 61 3 105 4 78 -14 235 -32 285 -11 31 -29 143 -37 230 -3 36 -7 88 -10 115 -2 28 -11 82 -19 120 -12 53 -14 110 -10 234 3 91 9 167 14 171 5 3 12 43 15 90 3 47 8 105 11 130 3 25 7 119 10 209 3 96 9 169 16 177 7 8 8 26 3 46 -4 18 -7 47 -7 63 1 17 2 109 4 205 2 167 1 178 -22 228 -13 29 -27 52 -31 52 -5 0 -8 8 -8 19 0 10 -7 24 -15 31 -8 7 -15 20 -15 29 0 9 -9 45 -21 81 -14 44 -22 103 -25 185 -2 66 -7 128 -10 137 -3 9 -7 26 -9 38 -6 31 -22 47 -58 60 -24 8 -46 32 -84 90 -29 44 -53 86 -53 93 0 6 -14 28 -30 47 -16 19 -30 43 -30 53 0 9 -4 17 -10 17 -5 0 -10 11 -10 23 0 26 -65 125 -114 173 -17 17 -40 44 -51 60 -31 44 -118 149 -127 152 -4 2 -8 11 -8 21 0 9 -8 24 -17 32 -26 23 -53 58 -53 67 0 5 -14 21 -31 38 -17 16 -37 43 -44 60 -7 18 -29 50 -49 72 -20 22 -36 42 -36 46 0 7 -7 16 -45 60 -18 21 -34 29 -57 28 -37 -1 -68 22 -68 49 0 10 -4 21 -10 24 -5 3 -10 14 -10 24 0 10 -16 33 -35 52 -19 19 -35 41 -35 48 0 17 -43 83 -82 126 -16 17 -28 34 -28 39 0 16 -144 146 -161 146 -9 0 -23 -10 -31 -22 -20 -30 -45 -18 -67 35 -10 24 -30 51 -45 60 -14 10 -26 23 -26 31 0 14 -44 102 -63 124 -8 10 -8 19 0 32 7 10 9 28 6 40 -6 21 -4 22 18 16 13 -4 34 -10 47 -13 12 -3 22 -9 22 -14 0 -5 7 -9 14 -9 8 0 27 -11 42 -25 15 -14 30 -25 35 -25 4 0 10 -8 13 -18 4 -10 24 -32 46 -48 22 -16 40 -34 40 -40 0 -6 19 -31 43 -55 79 -82 157 -171 157 -178 0 -4 10 -17 23 -29 28 -27 41 -43 56 -70 6 -12 19 -22 27 -22 36 0 152 -74 271 -173 45 -37 83 -73 85 -79 5 -15 38 -19 38 -5 0 22 -26 83 -43 102 -10 11 -20 30 -23 42 -4 13 -10 23 -15 23 -5 0 -9 6 -9 14 0 13 -39 109 -61 148 -5 10 -9 25 -9 33 0 13 -34 104 -73 195 -6 14 -12 32 -13 40 -3 13 -16 44 -35 82 -5 10 -9 27 -9 38 0 11 -5 20 -11 20 -7 0 -9 9 -6 21 4 14 -3 35 -19 58 -13 19 -24 42 -24 51 0 8 -7 28 -15 44 -8 15 -15 39 -15 51 0 13 -7 30 -15 39 -8 8 -15 25 -15 38 0 13 -4 28 -9 34 -5 5 -12 25 -15 44 -3 19 -15 60 -26 90 -11 30 -20 64 -20 75 0 11 -6 29 -14 40 -7 11 -16 38 -19 60 -6 48 -16 106 -22 122 -2 6 -1 13 2 16 7 8 43 -16 43 -29z m4343 -300 c20 -30 37 -61 37 -69 0 -8 4 -15 9 -15 8 0 69 -89 84 -125 15 -33 37 -126 33 -133 -2 -4 -7 -77 -10 -162 -4 -85 -9 -182 -12 -215 -7 -76 -7 -82 4 -130 11 -51 4 -420 -9 -461 -5 -17 -10 -86 -10 -155 -1 -128 -4 -218 -7 -232 -3 -13 -51 28 -77 67 -13 19 -36 48 -52 65 -16 17 -36 49 -43 71 -7 22 -17 40 -22 40 -4 0 -8 6 -8 14 0 8 -7 21 -15 29 -8 9 -17 41 -20 73 -3 31 -8 61 -11 66 -16 25 -25 254 -11 281 5 10 9 39 10 63 1 24 6 44 11 44 4 0 5 17 2 38 -11 69 -17 535 -6 567 5 16 10 67 11 113 1 45 5 85 10 88 5 3 7 9 4 14 -11 18 -15 112 -5 131 10 18 13 19 38 3 15 -8 44 -40 65 -70z m954 -1434 c9 -14 23 -31 29 -37 7 -7 10 -21 7 -32 -6 -22 25 -81 43 -81 6 0 17 -7 24 -15 9 -11 28 -15 61 -14 26 2 54 -3 62 -9 8 -7 17 -9 20 -6 13 13 191 3 215 -12 17 -11 37 -13 80 -8 40 4 78 1 121 -10 34 -9 80 -16 101 -16 21 0 42 -4 45 -10 3 -5 16 -10 27 -10 12 0 38 -5 57 -11 35 -12 54 -17 69 -20 41 -9 119 -36 172 -60 116 -54 133 -64 138 -81 2 -10 8 -18 12 -18 12 0 30 -58 24 -75 -3 -8 1 -24 10 -37 20 -29 20 -86 0 -127 -9 -18 -13 -42 -10 -55 3 -13 -1 -41 -10 -61 -8 -21 -13 -44 -10 -51 4 -10 -3 -14 -24 -15 -17 -1 -35 -2 -41 -3 -6 0 -19 -28 -31 -61 -11 -33 -28 -69 -39 -81 -11 -11 -27 -44 -38 -72 -10 -29 -21 -55 -24 -59 -4 -3 -7 -35 -7 -69 0 -34 -5 -75 -10 -90 -16 -41 32 -199 76 -248 19 -21 34 -43 34 -48 0 -12 20 -32 40 -40 13 -5 50 -71 98 -175 13 -29 13 -34 -2 -48 -21 -22 -20 -30 8 -68 13 -18 28 -47 34 -65 11 -31 10 -33 -28 -57 -22 -14 -51 -25 -65 -25 -29 0 -30 -7 -11 -52 8 -18 21 -49 30 -69 22 -51 11 -92 -39 -146 -23 -25 -48 -64 -56 -87 -7 -22 -17 -47 -23 -55 -13 -17 -37 -81 -38 -101 0 -8 -4 -19 -8 -25 -13 -16 -31 -128 -27 -164 2 -18 17 -45 34 -64 40 -42 55 -95 38 -133 -18 -40 -35 -116 -35 -157 0 -37 12 -46 93 -68 26 -8 47 -17 47 -22 0 -5 10 -6 23 -2 41 14 331 20 351 8 5 -4 44 -8 85 -10 82 -4 91 1 91 55 0 27 4 32 23 32 34 0 45 -12 49 -49 2 -19 10 -37 18 -41 31 -15 66 -28 110 -40 86 -22 93 -25 97 -37 5 -13 -4 -14 -88 -13 -30 1 -67 -3 -81 -9 -25 -9 -26 -12 -21 -78 2 -37 11 -98 20 -134 12 -50 13 -73 6 -96 -7 -18 -7 -36 -2 -46 6 -9 5 -25 0 -39 -6 -13 -13 -49 -16 -80 -4 -40 -13 -64 -31 -83 -17 -18 -22 -31 -16 -43 10 -21 6 -86 -7 -110 -5 -10 -12 -41 -16 -68 -9 -79 -23 -119 -60 -173 -19 -28 -35 -57 -35 -64 0 -18 -37 -94 -50 -102 -5 -3 -10 -14 -10 -24 0 -10 -12 -31 -26 -47 -14 -16 -37 -48 -51 -71 -13 -24 -29 -43 -34 -43 -4 0 -13 -17 -19 -39 -5 -21 -18 -45 -27 -52 -9 -8 -24 -33 -35 -55 -10 -23 -25 -47 -33 -54 -8 -7 -15 -19 -15 -26 0 -8 -4 -14 -9 -14 -5 0 -19 -20 -30 -44 -12 -24 -32 -52 -46 -62 -17 -13 -26 -32 -30 -68 -4 -28 -14 -64 -23 -81 -8 -17 -17 -64 -19 -105 -2 -41 -8 -90 -13 -107 -4 -18 -5 -45 -1 -60 4 -16 2 -48 -5 -75 -6 -26 -10 -49 -7 -52 3 -3 7 -70 9 -148 2 -79 4 -152 5 -163 1 -11 6 -65 11 -120 9 -107 12 -125 28 -195 6 -25 14 -57 17 -72 3 -16 9 -28 14 -28 5 0 6 -7 3 -15 -6 -16 -44 -21 -44 -6 0 5 -9 11 -19 14 -11 2 -28 22 -39 43 -31 59 -76 102 -144 134 -31 15 -33 18 -33 70 0 30 -6 68 -13 85 -7 16 -15 81 -18 145 -5 127 -7 163 -19 327 l-7 112 -27 -5 c-15 -3 -45 1 -65 10 -21 9 -50 16 -63 16 -14 0 -39 6 -56 14 -18 7 -58 22 -90 32 l-58 18 -37 -40 c-71 -78 -116 -96 -167 -68 -11 7 -41 15 -67 18 -26 4 -54 14 -62 22 -8 8 -32 14 -53 14 -90 1 -154 45 -162 112 -1 3 -25 9 -53 13 -29 4 -62 12 -72 17 -18 10 -18 11 -2 20 17 9 17 11 0 29 -17 19 -17 20 30 16 34 -2 49 1 55 12 6 10 28 15 67 17 33 1 61 4 64 5 6 3 84 7 230 12 60 2 117 9 132 17 23 11 36 11 69 1 39 -12 49 -18 84 -48 19 -18 62 -33 91 -33 13 0 24 -4 24 -9 0 -5 26 -15 58 -22 31 -7 69 -18 84 -26 44 -22 55 -10 56 63 1 36 4 69 7 75 8 12 15 69 16 129 0 25 6 56 14 70 28 54 35 76 36 110 1 32 18 81 41 120 4 8 18 35 31 60 26 53 52 90 90 131 15 16 27 35 27 42 0 8 13 26 30 42 16 15 27 32 25 36 -3 4 1 14 9 21 7 8 21 28 30 46 9 18 20 32 24 32 4 0 16 15 27 33 10 17 27 39 37 48 10 9 18 19 18 23 0 4 11 17 25 30 14 13 25 29 25 35 0 6 25 60 56 119 58 109 104 223 104 255 0 9 11 39 24 65 22 42 55 184 59 252 2 22 -3 25 -34 28 -25 2 -40 -3 -54 -18 -10 -11 -24 -20 -31 -20 -7 0 -17 -7 -21 -15 -5 -8 -32 -23 -61 -34 -29 -10 -58 -23 -65 -30 -6 -6 -17 -11 -24 -11 -8 0 -41 -14 -74 -31 -34 -18 -73 -32 -87 -31 -15 0 -69 2 -120 4 -50 1 -92 -1 -92 -6 0 -4 -8 -5 -17 -1 -10 4 -36 7 -58 6 -22 -1 -62 3 -90 9 -63 13 -167 30 -222 35 -24 3 -51 9 -60 14 -10 5 -27 12 -37 16 -18 5 -18 7 -4 22 14 13 23 14 65 4 26 -6 71 -9 98 -7 28 2 69 1 92 -3 50 -10 68 -1 58 28 -9 29 -83 98 -120 111 -16 7 -38 16 -47 21 -10 5 -27 9 -37 9 -11 0 -23 5 -26 10 -3 6 -16 10 -28 10 -13 0 -32 6 -43 14 -11 8 -38 18 -60 22 -21 3 -51 13 -66 21 -41 20 -35 52 7 43 6 -1 19 -4 30 -7 11 -3 59 -7 107 -10 73 -5 89 -3 94 10 3 8 1 24 -5 35 -8 15 -7 23 4 32 9 8 15 30 15 60 0 30 6 52 15 60 11 9 15 33 15 91 0 66 -3 82 -20 99 -19 19 -27 60 -14 72 3 3 7 35 9 69 3 35 7 78 10 94 3 17 8 47 11 68 4 20 10 40 15 43 5 3 9 18 9 34 0 16 7 47 15 67 8 21 16 49 19 63 10 62 21 88 54 128 22 27 41 41 50 37 23 -9 42 14 42 52 0 68 -65 145 -123 145 -19 0 -44 -5 -57 -12 -12 -6 -27 -9 -35 -7 -7 3 -25 -1 -40 -9 -15 -8 -36 -14 -46 -14 -31 0 -113 -31 -135 -51 -11 -10 -28 -19 -36 -19 -9 0 -54 -20 -100 -45 -46 -25 -96 -52 -113 -61 -53 -27 -74 -40 -93 -57 -10 -10 -25 -17 -33 -17 -8 0 -31 -12 -52 -26 -32 -21 -47 -25 -98 -22 -34 1 -63 6 -65 10 -3 5 -30 8 -60 8 -31 0 -63 4 -73 9 -9 5 -46 11 -82 13 -35 2 -70 9 -77 16 -11 10 -11 12 2 12 9 0 16 5 16 11 0 6 7 17 15 26 8 8 13 18 10 23 -3 4 10 15 29 24 18 8 39 23 47 32 20 24 158 114 174 114 17 0 149 70 153 81 2 4 10 5 18 2 8 -3 21 1 30 8 25 21 86 39 111 33 20 -5 65 4 118 25 58 23 177 48 200 42 6 -2 30 -5 55 -6 25 -2 74 -6 109 -10 56 -6 67 -4 78 11 17 24 94 44 116 30 10 -7 23 -6 39 1 20 9 23 18 26 71 2 66 -25 136 -72 183 -13 13 -36 46 -50 73 -14 27 -31 55 -38 63 -6 8 -12 29 -14 46 -2 40 -29 112 -53 146 -15 21 -18 41 -16 106 4 116 23 291 37 355 22 96 9 212 -25 241 -12 10 -26 18 -30 19 -4 0 -17 9 -29 20 -14 13 -36 20 -60 20 -21 0 -38 4 -38 8 0 11 -69 32 -103 32 -14 0 -28 4 -31 9 -3 5 -34 12 -68 16 -35 4 -75 13 -90 20 -35 17 -106 -1 -131 -32 -10 -13 -27 -23 -38 -23 -24 0 -86 -64 -104 -107 -17 -40 -28 -41 -57 -8 -12 14 -26 25 -32 25 -6 0 -24 7 -41 16 -35 18 -135 26 -153 11 -7 -6 -44 -10 -82 -10 -48 1 -73 -3 -81 -13 -6 -8 -21 -14 -33 -14 -12 0 -56 -25 -98 -55 -42 -30 -83 -55 -90 -55 -8 0 -18 -3 -22 -7 -4 -5 -11 -8 -14 -8 -4 0 -21 -10 -39 -23 -17 -12 -35 -22 -40 -22 -4 0 -24 -15 -43 -33 -47 -43 -85 -67 -109 -67 -11 0 -23 -9 -26 -21 -5 -13 -33 -33 -81 -55 -40 -19 -86 -45 -101 -58 -15 -13 -47 -33 -70 -45 -24 -12 -43 -25 -43 -29 0 -11 -75 -95 -130 -145 -86 -80 -161 -162 -180 -199 -11 -20 -26 -41 -34 -45 -40 -23 -126 -116 -126 -137 0 -11 -8 -24 -49 -72 -5 -7 -8 -14 -5 -17 3 -2 -9 -18 -26 -35 -17 -17 -36 -46 -42 -64 -6 -18 -19 -45 -30 -60 -10 -14 -18 -31 -18 -36 0 -6 -10 -19 -22 -29 -27 -22 -48 -56 -48 -78 0 -8 -4 -15 -9 -15 -5 0 -12 -12 -16 -27 -3 -16 -22 -61 -41 -101 -19 -40 -34 -78 -34 -84 0 -7 -8 -21 -19 -32 -21 -25 -55 -89 -67 -131 -13 -43 -48 -46 -62 -6 -9 25 -7 35 12 64 14 20 23 50 24 77 2 54 57 219 102 310 18 36 38 79 45 95 7 17 22 51 34 77 12 26 21 53 21 58 0 6 11 32 25 58 14 26 25 57 25 69 0 13 4 23 8 23 4 0 27 29 50 65 24 36 50 65 58 65 8 0 14 8 14 18 0 9 15 39 33 66 17 27 40 61 49 75 9 14 17 34 17 43 1 9 9 23 19 30 11 7 27 30 36 50 10 20 28 44 41 52 29 19 65 56 85 87 20 31 109 119 121 119 5 0 9 5 9 11 0 21 270 281 318 307 26 14 58 33 71 44 13 10 48 25 77 34 30 8 56 20 59 25 4 5 31 20 61 34 30 14 54 31 54 38 0 15 80 57 146 77 27 8 46 21 53 36 6 14 22 29 36 34 14 5 38 21 53 36 15 14 39 30 55 36 15 5 27 14 27 18 0 5 43 8 95 8 53 -1 98 1 101 4 14 15 65 1 81 -22z m-3333 -1172 c22 -6 52 -22 67 -35 14 -13 33 -23 42 -23 9 0 17 -4 17 -10 0 -5 6 -10 14 -10 8 0 17 -9 21 -20 3 -11 23 -27 43 -37 20 -9 39 -19 42 -23 3 -3 25 -18 50 -34 25 -16 57 -43 72 -61 33 -40 192 -175 205 -175 5 0 25 -19 43 -42 19 -24 38 -44 42 -46 4 -2 8 -9 8 -15 0 -10 32 -51 94 -119 9 -10 16 -25 16 -33 0 -24 -43 3 -113 70 -33 30 -62 55 -66 55 -4 0 -52 43 -107 96 -54 52 -129 115 -165 140 -37 24 -72 50 -78 58 -9 11 -19 12 -37 6 -25 -10 -27 -8 -24 27 1 16 -6 26 -22 32 -13 5 -33 21 -45 35 -22 25 -36 30 -78 27 -11 -1 -39 16 -63 38 -36 33 -41 43 -33 63 4 13 6 29 4 36 -6 15 -1 15 51 0z m614 -2443 c-3 -3 -9 2 -12 12 -6 14 -5 15 5 6 7 -7 10 -15 7 -18z m1672 -895 c6 -11 8 -20 6 -20 -3 0 -10 9 -16 20 -6 11 -8 20 -6 20 3 0 10 -9 16 -20z m20 -69 c6 -11 6 -22 1 -25 -5 -3 -11 5 -13 19 -6 30 -2 32 12 6z m64 -186 c-4 -8 -8 -15 -10 -15 -2 0 -4 7 -4 15 0 8 4 15 10 15 5 0 7 -7 4 -15z m32 -102 c-10 -11 -26 18 -25 47 0 24 1 23 16 -7 9 -18 13 -36 9 -40z m-3241 -1088 c33 -9 80 -20 105 -24 25 -4 54 -12 65 -18 11 -5 37 -13 58 -16 20 -3 49 -15 64 -26 14 -12 33 -21 43 -21 10 0 29 -9 43 -20 14 -11 30 -20 35 -20 5 0 15 -7 22 -15 14 -17 165 -90 222 -108 20 -6 43 -22 49 -34 7 -13 20 -23 30 -23 28 0 86 -36 133 -83 68 -66 128 -117 141 -117 6 0 24 -18 38 -41 l27 -41 -67 6 c-36 4 -71 10 -77 15 -23 18 -167 91 -180 91 -25 0 -95 36 -129 66 -17 16 -41 30 -52 32 -11 2 -36 11 -55 20 -19 9 -46 17 -60 19 -58 5 -100 16 -100 24 0 12 -137 11 -145 -1 -3 -5 -28 -10 -54 -10 -52 0 -101 -20 -141 -57 -14 -13 -37 -29 -52 -35 -15 -7 -30 -23 -33 -35 -3 -13 -10 -23 -15 -23 -6 0 -10 -9 -10 -19 0 -11 -4 -23 -10 -26 -5 -3 -10 -20 -10 -36 0 -17 -4 -38 -9 -47 -5 -10 -10 -37 -12 -62 -2 -25 -8 -53 -13 -62 -8 -13 -7 -21 2 -30 6 -6 12 -22 12 -34 0 -13 4 -25 9 -29 5 -3 9 -29 9 -58 0 -44 6 -92 12 -92 1 0 3 -11 4 -24 2 -14 8 -27 14 -29 6 -2 9 -9 6 -15 -2 -7 10 -28 26 -47 17 -19 38 -50 47 -69 9 -19 36 -52 60 -74 24 -22 43 -48 43 -58 0 -11 5 -19 10 -19 6 0 10 -7 10 -15 0 -8 7 -15 14 -15 8 0 27 -11 42 -25 15 -14 31 -25 35 -25 5 0 9 -4 9 -10 0 -18 68 -80 88 -80 11 0 31 -9 44 -20 12 -11 42 -36 66 -57 44 -37 86 -63 104 -63 19 0 78 -53 76 -68 -2 -9 10 -19 31 -27 19 -6 37 -18 40 -26 6 -18 27 -39 39 -39 6 0 12 -7 16 -15 3 -8 14 -15 25 -15 28 0 122 -43 177 -80 25 -16 48 -30 51 -30 3 0 11 -7 17 -16 7 -8 23 -17 36 -19 14 -2 35 -7 48 -11 22 -6 23 -4 21 37 -1 24 2 154 6 289 8 252 8 280 7 365 -2 173 4 504 10 510 4 4 3 16 -2 25 -5 10 -9 95 -9 188 1 140 3 171 15 176 17 6 80 -32 134 -81 39 -37 59 -42 62 -15 20 242 24 252 114 345 84 85 115 100 199 93 81 -7 295 -94 295 -121 0 -7 12 -15 28 -18 15 -3 42 -19 61 -36 19 -17 41 -31 48 -31 7 0 13 -6 13 -13 0 -7 12 -21 27 -32 14 -11 32 -26 39 -32 7 -7 16 -13 20 -13 12 0 223 -153 263 -190 9 -9 33 -28 54 -44 43 -32 152 -134 153 -144 0 -4 3 -14 7 -22 3 -8 8 -55 11 -105 7 -117 7 -117 13 -135 5 -17 12 -126 19 -305 2 -66 5 -138 6 -160 1 -22 -2 -79 -7 -127 -6 -64 -5 -91 4 -102 15 -18 22 -319 11 -414 -5 -34 -18 -80 -29 -102 -12 -23 -21 -46 -21 -53 0 -7 -11 -25 -25 -41 -13 -16 -27 -38 -31 -50 -20 -61 -119 -114 -221 -118 -64 -2 -74 1 -104 25 -19 15 -38 31 -44 35 -5 5 -23 15 -40 24 -16 8 -59 31 -93 52 -35 20 -69 36 -75 36 -7 0 -32 16 -56 35 -24 19 -47 35 -50 35 -3 0 -24 17 -45 38 -38 35 -51 44 -119 79 -15 8 -32 24 -38 36 -16 28 -40 52 -61 60 -11 4 -16 14 -13 28 7 33 12 34 47 7 18 -13 49 -32 69 -41 19 -9 47 -28 63 -42 15 -14 31 -25 36 -25 17 0 108 -50 112 -62 2 -6 29 -13 58 -14 46 -3 65 2 118 29 34 17 65 40 68 50 3 9 21 38 40 62 19 25 34 54 34 64 0 11 4 31 10 46 5 14 12 45 14 68 3 23 9 65 14 92 6 28 10 82 11 121 l2 72 -43 33 c-24 18 -45 37 -48 40 -3 4 -19 11 -35 15 -17 4 -51 22 -78 40 -26 19 -52 34 -58 34 -5 0 -38 26 -71 58 -111 104 -119 112 -128 112 -4 0 -26 18 -49 40 -22 22 -44 40 -47 40 -7 0 -114 107 -114 114 0 2 -14 19 -30 38 -53 59 -70 79 -70 83 0 13 -66 105 -75 105 -7 0 -10 -63 -9 -187 6 -451 5 -577 -1 -723 -4 -85 -6 -162 -5 -170 0 -8 3 -46 6 -83 4 -42 2 -73 -5 -81 -7 -8 -7 -24 -2 -42 4 -16 6 -67 3 -114 -5 -87 -5 -99 1 -210 3 -36 0 -76 -5 -90 -6 -14 -12 -63 -14 -110 -2 -47 -7 -119 -10 -160 -6 -77 -12 -228 -12 -290 1 -19 0 -44 -1 -55 0 -11 -1 -182 -1 -380 -1 -240 -5 -376 -12 -408 -11 -42 -10 -50 4 -58 12 -7 16 -28 17 -105 1 -54 -3 -101 -9 -108 -7 -9 -5 -23 8 -47 14 -29 17 -67 19 -239 3 -205 3 -243 2 -290 -2 -68 10 -290 16 -300 4 -6 2 -17 -4 -24 -6 -7 -10 -48 -10 -92 2 -178 -14 -368 -41 -509 -5 -27 -12 -70 -15 -95 -9 -81 -15 -115 -24 -140 -5 -14 -15 -63 -21 -110 -14 -108 -24 -132 -60 -148 -57 -26 -94 -26 -125 0 -84 69 -165 155 -165 175 0 12 -5 23 -11 25 -6 2 -12 28 -13 58 -1 31 -5 61 -9 67 -14 23 -4 176 15 214 12 26 17 60 17 118 0 56 5 90 14 105 9 14 15 50 16 98 1 42 5 87 10 100 10 27 25 289 25 461 1 90 4 120 15 126 12 8 12 16 -1 58 -12 37 -16 108 -17 318 0 149 -3 313 -6 365 -3 52 -6 138 -7 190 0 52 -5 100 -9 106 -8 9 -3 556 6 744 1 36 4 108 5 160 1 52 5 99 8 104 8 15 12 59 18 226 3 85 6 169 6 185 2 50 -10 85 -31 85 -10 0 -24 7 -32 16 -7 8 -34 26 -60 40 -26 13 -50 28 -54 34 -4 6 -11 8 -16 4 -6 -3 -21 4 -34 16 -13 12 -28 19 -34 16 -5 -4 -15 3 -21 14 -6 11 -17 20 -24 20 -8 0 -19 6 -26 14 -6 8 -18 12 -26 9 -8 -3 -34 13 -62 38 -27 24 -59 51 -71 59 -13 8 -29 21 -37 28 -7 6 -15 12 -19 12 -7 0 -75 49 -90 66 -5 6 -23 19 -40 29 -16 10 -34 24 -38 32 -4 7 -15 13 -22 13 -8 0 -15 4 -15 9 0 5 -18 20 -39 33 -22 13 -68 47 -103 76 -90 76 -98 82 -98 76 0 -3 -21 13 -47 36 -26 23 -60 49 -75 58 -16 9 -28 20 -28 24 0 4 -6 8 -14 8 -16 0 -146 128 -146 144 0 6 -9 17 -20 24 -11 7 -20 16 -20 22 0 5 -17 27 -38 48 -21 21 -54 58 -74 83 -39 48 -108 172 -108 195 0 8 -3 14 -7 14 -5 0 -8 10 -9 23 -1 23 -9 119 -23 267 -8 89 2 218 20 260 6 14 44 52 85 85 41 33 82 67 92 76 9 9 33 20 52 24 19 4 44 14 56 22 25 16 100 32 129 27 11 -2 47 -10 80 -19z m2460 -105 c3 -6 -1 -7 -9 -4 -18 7 -21 14 -7 14 6 0 13 -4 16 -10z m1732 -259 c26 -5 55 -21 80 -44 21 -20 44 -37 51 -37 7 0 29 -16 49 -35 20 -19 40 -35 44 -35 5 0 24 -15 43 -32 19 -18 55 -51 81 -73 64 -55 95 -88 95 -102 0 -6 7 -19 16 -27 17 -18 11 -56 -10 -56 -6 0 -30 13 -53 30 -22 16 -43 27 -46 24 -3 -4 -29 8 -57 25 -28 17 -61 31 -74 31 -25 0 -29 -7 -41 -70 -4 -19 -18 -71 -31 -114 -25 -79 -29 -149 -11 -174 6 -7 7 -44 4 -87 -5 -50 -3 -76 4 -81 7 -4 9 -25 6 -55 -3 -27 -2 -49 2 -49 5 0 9 -20 9 -45 1 -25 5 -51 9 -58 4 -7 8 -46 9 -87 1 -43 9 -91 18 -113 12 -28 16 -65 15 -145 -1 -60 3 -123 9 -142 18 -60 32 -117 32 -134 0 -23 49 -86 67 -86 11 0 13 9 7 46 -7 47 -7 47 19 40 24 -6 84 -40 114 -66 7 -5 17 -10 23 -10 5 0 10 -4 10 -9 0 -5 19 -18 43 -29 23 -12 59 -37 81 -57 37 -35 75 -43 67 -14 -2 8 -6 41 -7 74 -2 33 -5 76 -8 96 -2 20 -1 63 3 97 4 33 4 69 0 80 -5 13 -3 25 6 32 8 7 12 16 9 21 -3 5 -1 16 4 25 5 9 6 31 2 49 -5 23 -3 37 6 47 11 10 12 22 4 48 -6 19 -10 107 -9 195 0 88 0 167 -1 175 0 8 0 38 1 65 3 80 0 188 -6 220 -10 54 -16 167 -19 370 -4 238 -6 234 99 231 36 -1 71 -8 77 -14 7 -7 22 -12 35 -12 19 0 106 -48 148 -82 5 -4 30 -24 53 -43 24 -19 48 -35 53 -35 10 0 38 -22 92 -72 22 -21 44 -38 51 -38 6 0 19 -12 29 -25 18 -25 18 -25 -5 -34 -26 -10 -78 -4 -78 9 0 19 -66 48 -100 43 -46 -6 -80 -23 -80 -40 0 -7 -4 -13 -10 -13 -5 0 -10 -11 -10 -25 0 -14 5 -25 10 -25 6 0 10 -7 10 -15 0 -8 -4 -15 -10 -15 -13 0 -13 -27 1 -32 6 -2 11 -66 12 -180 1 -97 5 -180 9 -183 4 -4 3 -18 -3 -32 -12 -32 -12 -76 1 -89 11 -11 13 -197 5 -331 -4 -71 -4 -73 25 -90 17 -9 30 -22 30 -28 0 -7 11 -18 25 -25 14 -7 25 -17 25 -22 0 -4 7 -8 15 -8 18 0 64 -49 65 -67 0 -7 7 -13 15 -13 9 0 19 -10 24 -23 5 -13 32 -53 60 -90 28 -36 51 -69 51 -72 0 -4 13 -26 30 -50 44 -64 54 -94 39 -123 -9 -16 -10 -26 -3 -30 6 -4 19 -23 30 -42 10 -19 27 -46 37 -59 12 -17 14 -28 7 -36 -12 -15 -6 -148 9 -187 5 -14 8 -39 6 -55 -2 -15 -4 -34 -4 -41 -1 -9 -8 -11 -20 -7 -35 11 -80 -52 -51 -70 16 -10 11 -45 -7 -52 -10 -4 -21 -11 -25 -17 -7 -11 -114 10 -123 25 -4 5 -18 9 -32 9 -16 0 -38 13 -59 35 -18 19 -40 35 -48 35 -9 0 -23 11 -32 25 -9 14 -23 25 -32 25 -8 0 -34 17 -57 38 -24 20 -58 46 -76 57 -19 11 -40 33 -47 48 -7 15 -19 27 -27 27 -20 0 -105 88 -105 108 0 12 -54 62 -66 62 -6 0 -15 -31 -21 -69 -6 -39 -18 -85 -27 -103 -11 -20 -13 -34 -6 -36 15 -5 12 -20 -15 -79 -22 -46 -29 -53 -55 -53 -43 0 -73 14 -137 65 -32 25 -65 45 -74 45 -8 0 -26 12 -40 26 -13 14 -42 35 -64 46 -72 38 -194 161 -230 233 -11 22 -23 42 -27 43 -5 2 -8 18 -8 35 0 18 -7 41 -15 51 -8 11 -15 32 -15 47 0 15 -4 30 -9 33 -5 4 -17 41 -26 84 -17 77 -37 125 -62 151 -8 7 -14 33 -13 60 0 25 -4 66 -10 91 -6 25 -13 83 -16 130 -2 47 -7 92 -10 100 -4 8 -7 41 -9 74 -1 32 -8 62 -14 65 -7 4 -14 19 -16 32 -7 41 -18 162 -17 198 1 19 -6 76 -14 125 -20 127 -23 169 -12 183 6 7 5 26 -2 52 -7 27 -7 66 0 127 5 48 8 90 6 92 -3 2 4 24 15 49 10 24 19 53 19 63 0 11 14 35 31 55 26 30 37 35 73 35 22 -1 60 -4 83 -9z m1738 -201 c3 -5 15 -10 25 -10 10 0 20 -4 22 -8 2 -4 21 -17 43 -27 39 -20 45 -25 45 -45 0 -5 8 -10 18 -10 9 0 34 -15 55 -33 21 -17 51 -43 68 -56 17 -13 34 -34 39 -47 8 -20 24 -183 21 -209 0 -5 -2 -31 -4 -56 -3 -26 -7 -52 -11 -58 -4 -6 -1 -24 7 -40 8 -16 11 -33 6 -38 -4 -4 -4 -26 0 -48 5 -22 7 -60 6 -85 -1 -25 3 -54 8 -65 18 -35 22 -290 6 -365 -6 -28 -7 -59 -3 -68 5 -9 9 -35 11 -57 7 -122 12 -185 18 -227 5 -29 4 -53 -3 -60 -7 -9 -6 -29 3 -68 7 -30 16 -75 19 -100 5 -37 13 -49 42 -69 34 -24 110 -116 134 -162 13 -26 68 -79 81 -79 5 0 17 9 27 20 9 10 26 30 38 43 18 20 20 30 13 82 -4 33 -8 77 -8 98 l-1 38 31 -18 c17 -10 44 -25 59 -33 16 -8 37 -25 48 -37 11 -13 27 -23 36 -23 17 0 29 -8 72 -47 14 -13 38 -30 54 -38 17 -9 30 -22 30 -30 0 -9 14 -28 31 -43 29 -26 32 -35 35 -100 3 -40 0 -73 -6 -77 -5 -3 -10 -14 -10 -25 0 -10 -17 -32 -37 -50 -21 -17 -48 -41 -61 -52 -28 -25 -78 -18 -121 17 -16 14 -57 39 -92 56 -35 18 -91 49 -125 70 -34 22 -65 39 -70 39 -4 0 -41 34 -81 76 -86 88 -109 94 -107 24 6 -218 6 -261 1 -266 -3 -4 -18 3 -33 15 -15 11 -31 21 -36 21 -21 0 -98 42 -138 75 -23 19 -47 35 -54 35 -6 0 -17 9 -24 20 -7 11 -18 20 -26 20 -31 0 -49 61 -47 160 0 14 -3 32 -6 40 -4 8 -8 98 -9 200 -1 102 -7 197 -13 212 -7 19 -7 29 0 34 6 3 7 13 3 23 -10 25 -25 122 -24 161 0 19 2 57 3 83 2 27 -1 51 -6 54 -5 3 -6 21 -2 39 4 23 0 48 -14 78 -16 36 -18 62 -16 146 2 56 8 107 13 112 10 10 7 53 -5 88 -3 8 -7 51 -10 95 -2 44 -6 91 -10 105 -3 14 -6 28 -5 31 0 3 -4 44 -9 90 -15 126 -16 172 -6 194 6 10 9 61 8 112 -1 60 3 100 11 113 14 22 33 26 43 10z m-325 -2598 c15 -20 51 -50 81 -66 30 -16 61 -37 70 -47 9 -11 21 -19 27 -19 7 0 10 -26 8 -75 -2 -41 -1 -77 3 -80 3 -4 7 -30 8 -58 1 -29 4 -126 8 -217 3 -91 6 -169 6 -175 1 -5 -4 -66 -10 -135 -5 -69 -11 -147 -11 -175 -3 -76 -3 -186 -1 -225 1 -19 -1 -109 -3 -200 -2 -96 1 -205 9 -260 6 -52 10 -127 8 -167 -2 -39 3 -111 10 -160 8 -48 15 -130 16 -182 1 -51 6 -102 12 -113 6 -10 9 -56 9 -101 -1 -45 3 -94 9 -109 23 -60 44 -291 31 -339 -6 -19 -3 -28 11 -37 20 -13 27 -76 9 -87 -6 -4 -6 -15 0 -31 6 -14 10 -47 10 -73 0 -66 15 -77 102 -74 47 1 68 -2 68 -10 0 -8 3 -7 9 2 5 8 16 11 25 8 8 -3 18 -2 22 4 3 5 15 7 26 3 14 -4 27 3 47 25 15 17 30 28 33 25 3 -3 30 18 59 45 30 28 57 51 60 51 9 0 49 36 49 45 0 8 40 48 62 62 17 11 38 49 38 68 0 9 7 30 16 47 10 18 11 27 4 23 -16 -10 -6 81 11 101 18 22 15 152 -4 197 -15 34 -19 37 -59 38 -60 2 -67 0 -89 -22 -25 -25 -41 -24 -77 6 -17 14 -33 25 -37 25 -3 0 -18 14 -32 30 -14 17 -49 42 -77 55 -73 34 -104 64 -108 102 -2 18 2 33 7 33 6 1 17 7 25 15 8 7 34 19 57 25 37 11 47 10 85 -7 24 -11 60 -26 81 -34 20 -7 37 -17 37 -23 0 -5 3 -7 6 -3 4 3 25 -6 48 -21 23 -15 49 -31 58 -37 44 -26 128 -87 133 -95 3 -5 21 -17 40 -26 19 -9 53 -34 75 -55 22 -21 43 -39 46 -39 24 0 164 -131 164 -154 0 -9 6 -30 14 -45 15 -27 22 -179 13 -246 -19 -135 -27 -165 -49 -191 -39 -48 -137 -144 -145 -144 -5 0 -15 -9 -23 -21 -8 -11 -28 -28 -45 -36 -16 -9 -32 -19 -35 -22 -10 -12 -110 -61 -124 -61 -8 0 -16 -4 -18 -10 -5 -16 -118 -32 -183 -27 -83 8 -174 32 -226 60 -76 41 -94 52 -102 64 -4 7 -16 13 -26 13 -10 0 -28 11 -41 25 -13 14 -29 25 -37 25 -7 0 -13 4 -13 8 0 4 -24 24 -54 42 -30 19 -52 39 -49 45 4 5 3 7 -2 3 -19 -18 -152 105 -189 175 -19 34 -25 66 -30 148 -6 108 -27 279 -46 384 -6 33 -13 78 -16 100 -3 22 -8 47 -11 55 -3 8 -7 53 -9 100 -5 86 -11 193 -13 198 -1 1 -1 5 0 8 0 4 -4 10 -10 13 -11 7 -20 126 -27 376 -2 83 -7 157 -11 165 -13 30 -10 274 4 303 10 19 12 50 8 105 -4 42 -8 122 -9 177 -2 55 -6 107 -10 115 -4 9 2 41 13 73 10 32 15 60 10 63 -13 8 -11 64 2 64 12 0 7 157 -8 225 -4 22 -5 67 0 100 10 78 11 101 3 150 -4 25 -2 49 5 63 10 17 10 25 1 34 -15 15 -16 48 -2 48 6 0 10 20 10 43 0 24 3 46 6 50 9 9 112 -78 144 -121z m-3605 -2077 c41 -20 75 -40 75 -44 0 -5 13 -14 29 -21 16 -6 32 -18 35 -26 3 -8 17 -14 32 -14 16 0 44 -14 68 -33 23 -18 65 -48 93 -67 29 -18 60 -44 68 -57 9 -13 28 -29 43 -36 32 -14 112 -90 112 -107 0 -6 9 -28 20 -50 11 -22 20 -53 20 -69 0 -16 6 -31 13 -33 14 -5 20 -185 6 -194 -5 -3 -9 -16 -9 -30 0 -13 -4 -32 -9 -42 -12 -22 -35 -102 -36 -122 -1 -8 -6 -25 -13 -37 -7 -12 -12 -29 -12 -37 0 -9 -4 -16 -9 -16 -5 0 -18 -19 -29 -42 -11 -24 -34 -60 -51 -82 -17 -21 -31 -45 -31 -52 0 -8 -4 -14 -9 -14 -5 0 -25 -21 -44 -47 -20 -27 -53 -57 -74 -67 -21 -11 -47 -28 -58 -37 -21 -19 -99 -49 -126 -49 -19 0 -112 -50 -117 -62 -2 -4 -16 -8 -30 -8 -15 0 -36 -7 -46 -15 -11 -8 -28 -15 -37 -15 -10 0 -19 -5 -21 -11 -2 -5 -19 -10 -38 -11 -19 0 -54 -8 -77 -19 -24 -10 -64 -19 -90 -19 -27 0 -64 -5 -83 -11 -43 -13 -169 -21 -184 -12 -6 4 -22 6 -36 5 -14 -2 -53 4 -87 12 -35 8 -63 12 -63 9 0 -3 -6 -1 -12 4 -7 5 -31 11 -53 12 -65 3 -129 22 -205 61 -19 10 -51 21 -70 25 -19 4 -49 18 -66 31 -17 13 -38 24 -47 24 -10 0 -17 7 -17 15 0 8 -7 15 -16 15 -19 0 -124 58 -124 69 0 4 -30 21 -68 39 -40 18 -77 43 -91 62 -32 44 -14 60 27 25 17 -14 40 -28 52 -30 12 -2 44 -15 73 -28 94 -44 167 -69 181 -64 8 3 17 3 20 0 7 -7 46 -12 132 -17 33 -1 65 -6 71 -9 6 -4 32 -5 57 -2 35 3 45 1 40 -8 -5 -9 -4 -9 6 0 7 6 19 9 26 6 7 -3 24 4 37 14 18 14 38 18 81 16 32 -1 75 5 97 12 21 8 67 16 102 18 61 4 107 19 107 35 0 12 77 42 107 42 26 0 140 66 176 102 10 10 23 16 28 12 21 -13 91 50 151 138 19 27 39 46 46 43 10 -4 12 3 8 25 -2 17 -1 30 3 30 8 0 28 40 66 130 15 36 31 69 36 74 5 6 9 19 9 31 0 12 4 25 8 31 12 14 32 102 37 165 3 32 -2 83 -13 127 -20 84 -16 82 -144 87 -244 11 -258 14 -322 70 -16 14 -32 25 -36 25 -3 0 -21 13 -40 30 -18 16 -42 32 -52 36 -20 6 -25 34 -5 34 6 0 24 6 38 14 21 11 102 25 174 31 6 0 18 5 28 11 30 17 83 7 162 -31z m1255 -35 c25 -6 54 -14 65 -19 92 -39 125 -56 125 -63 0 -4 5 -8 11 -8 6 0 25 -10 42 -22 18 -13 34 -22 37 -22 13 3 38 -13 70 -45 19 -20 48 -40 64 -46 37 -13 46 -35 14 -35 -13 0 -29 5 -34 10 -6 6 -37 11 -70 12 -32 1 -70 5 -83 10 -14 5 -28 5 -35 -2 -7 -5 -34 -7 -63 -4 -58 7 -150 -10 -175 -33 -18 -16 -26 -59 -10 -49 5 3 24 -5 43 -17 62 -39 67 -42 113 -66 25 -14 46 -28 46 -33 0 -4 8 -8 19 -8 10 0 30 -11 45 -25 15 -14 33 -25 41 -25 8 0 18 -7 23 -16 5 -8 15 -16 23 -18 15 -2 156 -92 177 -113 7 -7 17 -13 20 -13 4 0 18 -10 32 -23 14 -13 33 -26 43 -30 10 -4 17 -12 16 -19 -1 -7 1 -39 5 -71 l8 -57 -48 -57 c-27 -31 -61 -61 -76 -67 -16 -6 -28 -15 -28 -21 0 -5 -5 -3 -10 5 -7 12 -10 12 -10 1 0 -21 -157 -12 -192 11 -14 10 -40 21 -56 24 -17 4 -39 14 -49 23 -35 31 -72 51 -98 51 -14 0 -25 4 -25 9 0 5 -12 14 -27 20 -16 6 -44 25 -63 42 -19 17 -48 38 -65 46 -16 9 -38 23 -48 31 -10 9 -26 17 -35 18 -9 2 -18 8 -20 13 -2 6 -9 11 -16 11 -7 0 -21 9 -31 20 -10 11 -23 20 -29 20 -7 0 -28 17 -48 38 -20 20 -57 53 -82 72 -25 19 -45 39 -45 44 -1 5 -8 16 -16 25 -8 9 -22 25 -32 36 -27 30 -63 146 -52 167 5 9 9 24 9 33 0 37 34 130 54 149 45 43 91 81 111 93 25 14 347 9 415 -7z m1045 -20 c4 -6 16 -8 27 -4 32 10 122 13 128 4 3 -4 32 -4 65 1 66 9 173 -4 216 -27 14 -7 44 -16 67 -20 22 -3 43 -13 46 -20 3 -8 14 -14 25 -14 30 0 51 -11 51 -26 0 -9 11 -14 29 -14 17 0 32 -4 35 -9 3 -5 26 -14 51 -20 25 -6 45 -15 45 -20 0 -5 13 -11 29 -14 15 -3 50 -20 77 -36 27 -17 73 -42 102 -56 28 -15 52 -31 52 -36 0 -5 5 -9 12 -9 6 0 27 -12 47 -27 20 -16 40 -27 44 -25 10 3 56 -50 57 -65 0 -7 -4 -13 -10 -13 -5 0 -10 5 -10 10 0 6 -8 10 -18 10 -9 0 -33 8 -52 18 -19 11 -48 22 -65 26 -16 4 -37 13 -45 20 -8 8 -27 16 -41 19 -14 4 -39 19 -55 34 -33 30 -150 75 -176 67 -10 -3 -18 -1 -18 4 0 11 -39 26 -55 22 -27 -7 -99 0 -105 10 -5 9 -15 8 -36 -3 -28 -14 -166 -26 -301 -27 -62 0 -63 0 -113 -52 -47 -50 -50 -56 -50 -105 0 -34 5 -57 16 -67 8 -9 12 -16 7 -16 -21 -1 36 -24 64 -26 17 -1 51 -11 75 -22 24 -11 67 -30 96 -43 28 -13 52 -27 52 -31 0 -5 6 -8 13 -8 8 0 22 -9 32 -20 10 -11 21 -17 26 -15 4 3 14 -2 22 -10 9 -8 23 -15 33 -15 9 0 24 -8 33 -19 9 -10 36 -28 61 -39 25 -12 59 -35 77 -52 18 -16 37 -30 42 -30 6 0 15 -9 21 -20 6 -11 17 -20 26 -20 16 0 34 -38 27 -57 -3 -7 0 -13 6 -13 8 0 11 -17 9 -51 -2 -42 -8 -55 -29 -70 -29 -21 -119 -35 -147 -24 -9 4 -36 7 -59 6 -23 -2 -55 4 -70 12 -15 8 -54 21 -85 28 -32 7 -58 16 -58 20 0 4 -20 15 -45 25 -25 9 -45 20 -45 24 0 4 -11 11 -25 14 -32 8 -95 46 -95 57 0 5 -6 9 -14 9 -17 0 -82 29 -121 55 -40 27 -149 136 -158 158 -3 9 -13 17 -22 17 -8 0 -15 7 -15 15 0 8 -4 15 -10 15 -5 0 -16 16 -25 35 -9 19 -23 39 -31 46 -8 6 -14 18 -14 25 0 8 -4 14 -10 14 -5 0 -10 10 -10 22 0 12 -14 33 -32 49 l-33 27 -3 123 -3 124 30 35 c17 19 41 48 54 64 25 31 42 35 154 40 35 1 66 5 70 9 10 11 51 8 58 -3z"/>
 <path d="M1410 13835 c0 -25 23 -65 37 -65 7 0 13 -4 13 -8 0 -5 8 -17 18 -28 10 -11 27 -33 38 -49 23 -36 34 -50 57 -76 9 -10 17 -22 17 -27 0 -4 9 -13 20 -20 11 -7 20 -18 20 -25 0 -6 25 -38 55 -70 30 -31 55 -60 55 -65 0 -4 37 -42 81 -84 76 -72 109 -93 109 -68 0 6 -4 10 -9 10 -5 0 -12 11 -15 24 -3 14 -12 31 -20 38 -7 8 -23 32 -34 55 -12 22 -33 54 -47 71 -14 16 -25 32 -25 36 0 3 -13 19 -30 36 -16 17 -30 34 -30 38 0 4 -20 28 -44 54 -24 25 -52 58 -61 72 -10 14 -23 26 -30 26 -7 0 -32 22 -56 49 -50 56 -119 100 -119 76z"/>
 <path d="M2660 12281 c0 -4 24 -31 54 -59 29 -28 56 -58 59 -66 4 -9 27 -31 53 -48 26 -18 70 -57 98 -86 28 -30 68 -63 89 -74 21 -10 46 -32 55 -49 9 -16 23 -29 30 -29 7 0 26 -13 42 -30 16 -16 38 -30 49 -30 10 0 22 -7 25 -16 10 -25 56 -5 69 29 3 11 54 -12 84 -38 12 -11 41 -36 64 -55 69 -59 109 -101 109 -115 0 -7 14 -18 30 -25 17 -7 30 -19 30 -26 0 -8 20 -33 45 -56 25 -23 45 -46 45 -51 0 -5 6 -14 13 -21 6 -7 21 -26 32 -41 11 -16 34 -43 50 -61 17 -18 37 -43 45 -55 8 -12 23 -31 34 -42 10 -10 19 -26 21 -36 1 -9 9 -16 17 -16 19 0 88 -68 88 -86 0 -13 39 -57 95 -107 17 -15 49 -46 72 -69 26 -27 52 -43 66 -43 14 0 37 -10 53 -22 37 -29 85 -70 96 -83 43 -50 58 -65 66 -65 5 0 12 -8 16 -17 5 -16 56 -86 90 -123 7 -8 22 -28 32 -45 26 -41 61 -82 111 -131 24 -23 43 -46 43 -53 0 -6 4 -11 8 -11 4 0 40 -31 80 -69 40 -37 72 -68 73 -67 0 1 2 12 3 26 2 16 -5 31 -20 42 -12 10 -29 31 -37 46 -8 15 -26 50 -41 79 -14 28 -30 53 -34 55 -9 4 -82 149 -82 164 0 5 -13 23 -30 39 -16 16 -30 35 -30 42 0 8 -10 24 -22 37 -33 32 -76 100 -84 130 -3 14 -12 26 -19 26 -8 0 -24 15 -37 33 -31 43 -36 51 -85 103 -24 24 -43 51 -43 58 0 7 -16 28 -35 47 -19 19 -35 40 -35 47 0 6 -7 12 -16 12 -8 0 -43 30 -77 67 -76 81 -83 88 -142 138 -26 22 -52 45 -59 50 -6 6 -30 23 -53 39 -24 16 -43 35 -43 42 0 7 -15 23 -32 35 -18 13 -40 31 -49 41 -9 10 -21 18 -27 18 -7 0 -19 11 -28 25 -9 14 -21 25 -26 25 -6 0 -35 21 -66 46 -65 52 -236 164 -252 164 -5 0 -10 4 -10 9 0 5 -10 11 -22 15 -13 3 -39 19 -58 36 -19 16 -54 37 -77 46 -24 9 -43 21 -43 25 0 5 -4 9 -10 9 -5 0 -34 16 -64 35 -30 19 -61 35 -69 35 -8 0 -20 7 -27 15 -7 8 -36 28 -64 45 -29 16 -61 39 -71 51 -11 11 -33 27 -50 35 -16 7 -37 18 -45 23 -53 34 -120 52 -120 32z"/>
 <path d="M4660 10717 c0 -7 9 -23 20 -37 11 -14 20 -33 20 -42 0 -9 12 -29 26 -45 27 -29 74 -123 74 -148 0 -8 4 -15 9 -15 8 0 41 -76 41 -97 0 -6 14 -25 30 -41 17 -17 30 -39 30 -49 0 -11 11 -29 25 -41 14 -12 25 -31 25 -41 0 -11 5 -23 10 -26 6 -3 10 -18 10 -31 0 -36 106 -146 120 -124 6 9 6 18 0 24 -6 6 -10 20 -10 32 0 13 -4 26 -10 29 -5 3 -10 20 -10 37 0 16 -15 60 -34 97 -18 36 -41 84 -51 106 -30 70 -56 119 -75 140 -10 11 -21 30 -24 42 -4 12 -38 55 -76 95 -38 40 -72 81 -75 90 -7 21 -75 62 -75 45z"/>
 <path d="M2530 10190 c-8 -5 -11 -12 -7 -16 4 -4 13 -2 19 4 15 15 7 24 -12 12z"/>
 <path d="M2540 10121 c0 -12 5 -21 10 -21 6 0 10 6 10 14 0 8 -4 18 -10 21 -5 3 -10 -3 -10 -14z"/>
 <path d="M7380 10362 c0 -16 36 -42 58 -42 31 0 28 28 -4 40 -31 12 -54 13 -54 2z"/>
 <path d="M7300 8437 c0 -15 74 -67 96 -67 22 0 18 57 -5 70 -29 15 -91 13 -91 -3z"/>
 <path d="M4016 7291 c-34 -31 -72 -70 -84 -87 -24 -37 -56 -177 -42 -182 6 -2 10 -25 10 -50 1 -81 22 -146 59 -182 18 -19 42 -54 52 -78 10 -24 23 -41 28 -37 11 6 74 -58 121 -123 16 -23 46 -49 66 -58 32 -15 46 -16 101 -7 64 11 125 3 138 -17 4 -6 12 -10 20 -10 10 0 12 39 8 213 -7 271 -7 270 -15 283 -4 6 -8 60 -9 120 -2 60 -6 116 -11 126 -8 17 -152 108 -171 108 -6 0 -18 7 -28 16 -13 12 -41 17 -99 19 l-81 3 -63 -57z"/>
 <path d="M7438 5840 c-17 -10 -14 -50 4 -50 9 0 9 -138 -1 -155 -11 -19 -30 -100 -31 -132 0 -17 -9 -52 -20 -77 -17 -42 -18 -76 -1 -76 3 0 7 -16 8 -35 1 -19 9 -45 17 -57 9 -12 16 -39 16 -58 0 -30 9 -45 52 -88 28 -29 56 -52 61 -52 33 0 67 84 72 175 1 11 5 32 9 48 5 17 4 32 -3 40 -5 7 -10 42 -9 78 1 95 -6 128 -40 201 -18 36 -32 75 -32 86 0 11 -3 22 -8 24 -4 2 -22 33 -40 71 -18 37 -34 67 -35 67 -1 0 -9 -5 -19 -10z"/>
 <path d="M7931 1554 c0 -11 3 -14 6 -6 3 7 2 16 -1 19 -3 4 -6 -2 -5 -13z"/>
 <path d="M5281 1956 c-21 -25 8 -95 60 -146 25 -25 50 -52 55 -61 12 -20 89 -59 118 -59 12 0 30 8 39 18 43 45 70 85 72 110 1 15 6 35 10 45 9 21 -10 47 -34 47 -9 0 -21 4 -27 10 -5 5 -57 10 -114 11 -86 1 -109 4 -131 20 -32 23 -33 23 -48 5z"/>
 <path d="M6610 1761 c0 -21 95 -141 111 -141 9 0 22 -7 29 -15 16 -19 31 -19 74 3 21 10 40 31 50 53 32 72 26 77 -123 89 -53 4 -106 11 -118 15 -15 5 -23 3 -23 -4z"/>
 </g>

</svg>