<!DOCTYPE svg PUBLIC "-//W3C//DTD SVG 20010904//EN" "http://www.w3.org/TR/2001/REC-SVG-20010904/DTD/svg10.dtd">

<svg width="1225px" height="2184px" viewBox="0 0 1225 2184" version="1.1" xmlns="http://www.w3.org/2000/svg" xmlns:xlink="http://www.w3.org/1999/xlink">
    <!-- Generator: Sketch 3.7 (28169) - http://www.bohemiancoding.com/sketch -->
    <desc>Created with Sketch.</desc>
    <defs></defs>
    <path d="M372.536113,1013.71171 C371.979031,1016.51724 371.6875,1019.21708 371.6875,1021.79297 C371.6875,1052.28516 391.580078,1079.75684 410.990234,1079.75684 C464.669922,1079.75684 561.750977,983.616211 561.750977,983.616211 C566.113281,983.616211 572.1875,805.349609 572.1875,783.763672 C572.1875,762.177734 551.919968,731.206182 514.998047,731.544922 C487.547262,731.796769 415.507812,793.423179 415.507812,805.292969 C415.507812,817.162759 470.07682,776.395835 478.662758,776.395835 C508.229164,776.395835 508.746094,805.292969 508.746094,805.292969 C508.746094,805.292969 518.166672,864.300788 515.349609,864.300781 C499.953857,864.300781 432.275653,918.578174 395.566976,968.667134 C395.469373,836.435062 393.13085,324.949046 393.130849,313.938149 C393.130848,301.290041 381.438832,151.378159 381.438832,151.378159 C381.438832,151.378159 373.717229,84.567731 355.151585,84.567731 C345.984578,84.567731 322.207036,218.845703 322.207036,272.408203 C322.207036,286.472656 336.45963,361.158203 336.45963,386.808594 C336.45963,412.458984 331.716802,630.455879 331.716802,636.837891 C331.716802,647.792969 341.25525,785.997376 338.876302,785.997376 C298.474614,785.997376 107.828604,922.040998 107.828603,1037.03962 C107.828604,1062.04559 136.083333,1089.35938 168.122395,1089.35938 C234.808288,1089.35938 329.425786,1010.47266 329.425786,1010.47266 C329.425786,1010.47266 342.190099,997.527344 336.45963,997.527344 C300.429692,997.527344 267.06746,1038.99219 224.361981,1038.99219 C202.187497,1038.99219 164.256875,1028.53906 164.255208,982.417969 C164.251539,880.915345 340.462315,798.377625 340.462319,800.841782 C340.462323,803.30594 340.713837,934.702439 342.190099,995.76886 C342.46606,1007.18417 341.118703,1031.22459 345.402348,1031.22461 C348.013952,1031.22461 360.570706,1022.14139 372.536113,1013.71171 Z M575.28038,1064.26828 C566.387922,1071.03334 558.336797,1078.24946 558.336797,1078.59267 C558.336797,1079.02046 496.523335,1171.7493 501.801625,1171.7493 C498.379704,1171.7493 475.656255,1199.67786 475.656255,1200.0486 C474.24366,1200.0486 427.887067,1282.16804 429.756513,1282.16804 C423.269711,1282.16804 396.076833,1330.92427 395.729611,1330.92427 C394.938016,1330.92427 352.515657,1420.87495 348.953374,1420.87495 C347.004281,1420.87495 341.103513,1434.37615 341.103513,1435.92366 C341.103513,1447.40022 322.868659,1517.76219 322.868659,1553.94975 C322.868659,1554.85748 322.85982,1555.92917 322.843546,1557.13684 C322.80479,1557.13588 322.765678,1557.1354 322.726209,1557.1354 C317.285583,1557.1354 313.869672,1571.95885 310.697855,1571.95885 C307.526037,1571.95885 297.247964,1581.75015 297.247964,1585.44049 C297.247964,1589.13083 294.17068,1594.57146 294.17068,1602.73734 C294.17068,1604.86042 289.275858,1613.34256 285.881119,1618.96994 C285.113888,1578.48915 284.070312,1527.39057 284.070312,1517.17578 C284.070312,1501.02344 277.853516,1478.04883 277.853516,1456.35547 C277.853516,1451.48633 294.308594,1428.95312 294.308594,1407.23633 C294.308594,1406.43653 294.31234,1405.58599 294.319555,1404.68792 C294.508269,1381.20099 297.070312,1325.20316 297.070312,1293.94336 C297.070312,1261.48828 307.888672,1277.53516 307.888672,1264.14453 C307.888672,1250.75391 305.953125,1164.76758 317.589844,1164.76758 C317.589844,1154.79102 344.666016,1158.93555 344.666016,1132.33008 C339.623047,1132.33008 344.666016,1123.50781 344.666016,1111.00781 C344.666016,1098.50781 364.337891,1095.18359 364.337891,1095.18359 C364.337891,1095.18359 365.433594,1072.92578 351.623047,1072.92578 C302.98658,1072.92578 253.746094,1275.10742 253.746094,1312.39258 C253.746094,1371.53711 243.982422,1490.53516 238.902344,1490.53516 C238.902344,1534.16211 249.900391,1674.07422 249.900391,1701.0293 C249.900391,1708.40234 228.902344,1720.30664 228.902344,1752.86719 C228.902344,1785.42773 228.466797,1781.61328 228.466797,1788.51953 C228.466797,1795.42578 254.294922,1803.25781 261.529297,1803.25781 C261.529297,1799.50483 275.270435,1787.0679 285.789109,1777.23739 C286.680823,1793.15043 292.003064,1813.19982 292.003064,1813.19982 C292.003064,1813.19982 290.599567,1868.80529 290.599567,1871.32812 C290.599568,1873.85095 286.344511,1899.90597 286.344511,1958.95916 C286.344511,2018.01235 294.276426,2030.07498 294.276427,2036.95671 C294.276427,2043.83844 298.407366,2111.24657 298.407366,2102.63262 C298.407365,2094.01868 310.762183,2140.91825 307.457296,2140.91824 C314.37334,2140.91824 323.908092,2114.60857 323.908092,2104.52435 C323.908092,2100.87329 317.408878,2049.49084 317.408878,2041.35281 C317.408878,2038.10092 316.729594,1995.04903 316.130541,1957.23612 C318.100014,1964.88604 320.707573,1973.04688 322.869103,1973.04688 C326.937462,1973.04688 332.021447,2016.36914 332.021447,2027.30273 C332.021447,2038.23633 333.77047,2041.88867 329.412072,2041.88867 C325.053673,2041.88867 322.869103,2037.75781 322.869103,2050.23633 C322.869103,2062.71484 342.498009,2090.66602 348.388634,2090.66602 C348.388634,2086.64258 356.01754,2079.66406 356.01754,2074.75586 C356.01754,2031.09462 330.405517,1911.65553 315.220278,1892.84602 C315.844482,1884.59554 317.408879,1871.72132 317.408879,1871.32812 C310.261471,1871.32812 307.483761,1890.84901 305.517044,1890.84901 C303.550328,1890.84901 302.289528,1886.60958 302.289528,1879.88362 C302.289528,1878.60075 307.457297,1881.66049 307.457297,1877.6694 C307.457297,1865.96035 325.084225,1836.49497 325.084225,1832.57559 C325.084225,1827.73246 320.58892,1830.90784 320.588921,1827.33718 C320.588922,1823.76652 321.753191,1788.88183 321.753189,1774.04223 C321.753188,1762.05406 324.116193,1759.47494 319.679058,1756.37946 C383.311814,1718.31811 537.565331,1612.11816 537.565331,1585.29389 C537.565331,1584.6463 542.477471,1570.37076 542.477471,1567.25849 C542.477471,1573.14191 636.730828,1470.54372 636.730828,1460.67605 C636.730828,1456.94082 656.388925,1420.19941 656.388925,1412.65183 C656.388925,1403.60805 660.78592,1388.97198 664.926478,1375.37951 C690.504344,1342.84658 719.262924,1305.74984 719.262924,1303.41926 C727.545532,1303.41926 760.163496,1229.57533 760.163496,1222.82142 C760.163496,1216.06752 802.824234,1029.21574 819.382889,1029.21574 C780.733259,1029.21574 716.773451,1149.351 716.773451,1210.70982 C716.072071,1243.59372 689.823624,1298.89333 675.293543,1327.08107 C677.230651,1318.99708 679.329324,1310.44934 679.329324,1302.38169 C679.329324,1287.39976 695.077432,1228.24058 702.083078,1228.24058 C690.569467,1228.24058 675.171426,1281.90443 675.171444,1290.94201 C675.171461,1299.18951 664.108303,1335.59332 662.173982,1348.54828 C655.98559,1354.94247 643.537476,1367.83687 637.162062,1374.66654 C633.990005,1377.55238 631.821658,1380.30842 631.82165,1382.76724 C631.82165,1383.2924 631.808611,1383.82926 631.783026,1384.37721 C623.752101,1403.77753 584.17118,1455.44923 579.24275,1455.44923 C575.492201,1455.44923 603.879469,1400.46037 605.589857,1400.46037 C591.402906,1400.46037 568.99108,1434.31329 568.991071,1436.03126 C568.329258,1448.42386 519.577009,1519.32756 514.514509,1519.32756 C520.77902,1519.32756 374.005674,1645.69046 374.005674,1644.3291 C374.005674,1642.33807 292.590876,1715.40959 289.073275,1726.00381 C287.3074,1703.43033 286.679687,1677.58499 286.679687,1668.68359 C286.679687,1667.774 286.672197,1666.57331 286.658018,1665.11284 C292.346162,1653.58943 307.620918,1622.96191 309.284786,1622.96191 C309.284786,1620.34742 311.027311,1616.69658 312.896116,1616.69658 C312.896116,1614.53712 319.145923,1610.08557 319.145923,1610.08557 L321.470493,1609.58558 C321.467777,1609.88277 321.466374,1610.15183 321.466374,1610.391 C321.466374,1617.9535 334.337939,1641.80716 332.671576,1641.80714 C352.533777,1641.80714 362.79712,1597.39998 364.145913,1597.39998 C364.145913,1592.36213 361.861948,1583.44736 360.407761,1562.3484 C380.130301,1557.96772 418.007589,1460.1366 431.300307,1461.66461 C454.990334,1461.70676 589.710937,1323.96092 589.710937,1323.96092 L636.615523,1250.49219 C636.615523,1250.49219 675.617202,1155.37109 675.617202,1155.3711 C675.617202,1155.37111 707.696172,1084.39366 709.96614,1084.39366 C709.966139,1080.66198 730.540998,1057.65492 733.600082,1057.65492 C735.932695,1057.65492 748.138245,1045.2501 753.803831,1035.81953 C779.304006,1030.47581 828.120602,982.71562 828.120602,975.504084 C828.120602,971.079249 825.930989,970.038813 823.858349,970.038813 C822.277355,970.038813 796.479504,985.974604 791.296871,985.974604 C787.794428,985.974604 777.387504,970.341038 777.387505,945.018916 C777.387506,919.696794 796.479502,788.754262 796.479502,788.754262 C796.479502,788.754262 801.814468,779.001458 805.542955,779.001459 C809.271443,779.00146 801.42484,792.506724 805.542958,792.506724 C814.207028,792.506724 864.54688,762.791385 864.546871,749.763671 C864.546863,736.735957 859.769818,690.542872 847.783124,690.542872 C825.877705,690.542872 774.76556,742.545851 773.698399,742.545851 C764.193833,742.545851 724.82507,883.780085 724.82507,960.04275 C724.82507,1000.38788 728.333964,1019.38928 733.43815,1028.3384 C731.71134,1028.3384 730.6324,1028.3384 730.6324,1028.3384 C703.036605,1030.33988 669.132094,1100.6546 669.132094,1105.01637 C665.002668,1105.01637 667.680702,1105.01636 655.651076,1105.01637 C645.397651,1105.01636 635.322803,1120.35037 635.322816,1120.35037 C635.322803,1133.43094 596.439149,1305.9753 579.441804,1306.84551 C579.441804,1314.06532 559.108415,1314.06532 553.601182,1314.06532 C553.601182,1314.06532 519.476426,1346.62599 522.1624,1351.42577 C524.848374,1356.22554 532.85115,1353.80342 535.836496,1353.80343 C538.821843,1353.80343 542.327834,1349.00365 550.159889,1349.00364 C557.991945,1349.00363 436.437982,1451.52089 426.842095,1451.52089 C417.246209,1451.52089 448.365478,1407.45693 448.365479,1403.30516 C448.36548,1399.1534 425.088288,1423.52327 422.326399,1423.52327 C422.326394,1434.63118 377.749995,1489.22319 377.749995,1493.65798 C384.807005,1493.65798 363.112271,1538.28283 359.564963,1545.48492 C359.355216,1539.11955 359.230469,1531.98284 359.230469,1523.96875 C359.230466,1473.66252 392.545453,1374.54686 396.402344,1374.54687 C397.574499,1374.54688 433.226563,1343.37891 433.226563,1335.29297 C433.226563,1331.8228 447.278169,1290.43681 475.656255,1236.86183 C476.744983,1234.80642 477.802312,1233.86984 480.803014,1233.86984 C483.803716,1233.86984 479.120595,1244.43156 483.35201,1244.43156 C487.583425,1244.43156 497.355443,1229.7466 497.355443,1227.97581 C497.355443,1225.69785 494.476766,1226.02038 494.476766,1211.9595 C485.11289,1211.9595 545.665517,1118.10547 546.47701,1118.10547 C547.288503,1118.10547 579.068768,1081.38218 579.821599,1081.38218 C579.821599,1078.93462 574.842855,1074.31092 574.842855,1074.31092 C574.842855,1074.31092 593.634038,1052.43782 596.098638,1052.43782 C595.782719,1052.43782 595.439526,1052.47182 595.071472,1052.53737 C607.807747,1042.7963 622.339634,1029.9829 622.339634,1025.68513 C624.98177,1026.8206 634.692141,794.205037 635.521951,782.427514 C635.964433,776.14734 642.934899,762.734666 650.994424,762.734664 C703.089837,760.540364 659.84694,1007.50497 659.846941,1020.80824 C659.846942,1034.1115 668.127405,1045.17735 674.117709,1045.17737 C685.177843,1045.17742 728.830949,1007.43873 723.989564,1007.43873 C712.0963,1007.43873 718.260332,941.398545 718.26033,927.612489 C718.260328,913.826433 730.026896,801.218121 730.026903,790.232858 C730.026909,779.247595 729.044023,712.213967 693.046533,712.213967 C675.201355,712.213967 647.065836,748.604995 635.964433,747.449358 C627.919651,746.61191 631.745977,715.452536 627.911452,715.447637 C618.740268,715.435922 573.257934,757.127332 574.375926,757.127332 C597.942708,757.127332 569.922311,1043.58885 569.922311,1051.90195 C569.922311,1059.08272 572.437474,1063.26279 575.28038,1064.26828 Z M1094.15855,1454.72844 C1090.86571,1454.83882 1087.50172,1454.90444 1084.09028,1454.90444 C1073.04777,1454.90444 1056.1337,1426.86099 1014.5509,1426.86099 C985.938223,1426.86099 923.150625,1432.1617 923.150625,1439.61681 C923.150625,1444.8169 971.214933,1436.7498 971.214885,1442.43156 C971.214708,1463.15934 904.329298,1467.80878 904.329298,1483.52082 C904.329298,1481.12918 923.599578,1480.10666 944.470659,1479.22475 C944.943844,1490.44955 946.980222,1540.27585 946.980209,1566.43651 C946.980195,1596.03614 979.508331,1629.82152 979.508343,1640.95037 C979.508356,1652.07921 969.723874,1659.8199 960.430324,1659.82 C908.352262,1659.82055 859.051084,1610.19423 845.243192,1610.19424 C817.461115,1610.19424 788.120908,1612.65213 788.120908,1620.99601 C788.120902,1645.78336 898.268054,1681.84583 917.860837,1681.84583 C937.453621,1681.84583 983.522949,1679.77849 983.522953,1695.26007 C983.522957,1710.74164 946.980225,1753.63545 945.985182,1775.86967 C944.99014,1798.10389 953.389473,1817.59595 953.389232,1860.32689 C953.389096,1884.21167 883.941727,1872.85398 804.586474,1873.05523 C679.541532,1873.37235 534.746489,1629.82152 534.746489,1604.9072 C530.163299,1604.90052 528.273984,1610.19423 528.273984,1612.65213 C528.273984,1717.4375 688.02995,1907.37369 845.243192,1905.99479 C954.995695,1905.03215 1023.86984,1880.569 1023.71045,1839.07113 C1023.60673,1812.06894 987.311218,1781.68802 985.875964,1735.97889 C984.957162,1706.71742 1023.71045,1679.17403 1024.06374,1665.09736 C1024.15511,1661.45693 1028.04663,1639.00863 1028.04661,1639.00861 C1028.04659,1639.0086 1028.0466,1629.82152 1011.65144,1629.82152 C1011.65143,1620.78899 1019.95804,1620.78899 1019.95804,1604.9072 C1011.65143,1604.9072 988.78257,1529.48426 988.78256,1524.82342 C988.782549,1520.23308 995.342988,1482.29294 995.541483,1475.25161 C995.849159,1475.06588 996.009716,1474.87016 996.009716,1474.66352 C996.009715,1466.4853 1014.5509,1469.81816 1048.87593,1469.81816 C1063.66281,1469.81816 1068.88837,1466.4853 1093.42444,1466.4853 C1094.03463,1466.4853 1094.64871,1466.47653 1095.26592,1466.45942 C1095.65981,1471.67412 1095.92273,1476.91243 1096.04422,1482.16947 C1099.53759,1482.16947 1102.65689,1475.24648 1105.23257,1465.54985 C1126.57092,1462.38923 1146.92545,1452.30375 1136.96962,1452.30375 C1129.73009,1452.30375 1119.56094,1453.28172 1107.82491,1454.03824 C1111.00816,1437.55509 1112.87241,1418.32543 1112.87241,1409.69126 C1112.87241,1352.32877 1018.44428,1247.45418 1015.09721,1155.27184 C1015.09721,1148.50521 1028.18078,1049.84453 1028.18078,1026.45823 C1020.24061,1026.45823 988.223893,1059.27839 988.223893,1059.27839 C988.223894,1059.27839 982.695312,1120.45703 982.695312,1192.57031 C982.695312,1206.58793 1079.11502,1321.63903 1094.15855,1454.72844 Z M302.241809,1728.14888 C331.637875,1711.88215 402.135918,1672.59713 402.135913,1669.96919 C445.527917,1666.5203 610.761346,1473.92887 595.695611,1473.92887 C595.695611,1472.15092 605.205111,1455.4769 614.466212,1435.92691 L587.064161,1462.93583 C587.064161,1462.93583 532.781608,1528.40692 528.700167,1528.40692 C515.302866,1527.56181 448.1875,1612.28299 448.187498,1612.28294 C448.187496,1612.2829 397.499432,1665.12498 388.643974,1665.12498 C388.643974,1660.21428 385.743301,1657.95329 383.08078,1657.95329 C373.947789,1657.95329 310.455084,1717.40606 302.241809,1728.14888 Z M633.41233,1415.24238 C632.403858,1423.06016 619.7297,1438.76542 619.7297,1443.70702 C613.304201,1443.70702 584.741934,1510.10782 584.741934,1506.82671 C593.181271,1506.82671 629.599175,1458.56473 629.599174,1455.92914 C629.599174,1450.00532 642.614227,1422.09095 645.042961,1422.09095 C645.042961,1414.31259 651.531467,1402.5755 651.531467,1397.48741 C650.02479,1397.48741 648.244275,1397.99412 646.398336,1398.86523 C641.32087,1405.28132 636.85843,1410.9051 633.41233,1415.24238 Z M80.8639104,2002.73134 C81.3755501,2002.84994 81.9870458,2002.91327 82.7095963,2002.91327 C94.9468006,2002.91327 126.649081,1976.23892 141.821062,1963.59032 C100.19839,2058.05927 53.0389017,2183.83789 66.2050781,2183.83789 C74.4863281,2183.83789 107.61914,2124.23047 107.619141,2119.63281 C107.619141,2115.03516 109.031251,2113.1875 106.552734,2113.1875 C104.074218,2113.1875 98.7499999,2124.23047 93.7714844,2124.23047 C83.2460942,2124.23046 166.605467,1930.47266 173.650389,1930.47266 C173.650389,1925.16277 212.742173,1865.61905 225.524289,1843.69093 C225.703661,1843.68085 225.880469,1843.67578 226.054688,1843.67578 C245.117188,1843.67578 234.033203,1840.04492 234.033203,1831.17773 C234.033203,1822.31055 230.728516,1803.43945 230.728516,1796.85352 C230.728516,1790.26758 224.451172,1796.85352 217.669922,1796.85352 C210.888672,1796.85351 180.191406,1851.26758 186.972656,1848.60937 C186.972656,1841.55078 103.71875,1960.96875 98.5683594,1960.96875 C93.4179688,1960.96875 98.5683594,1957.68555 92.1328125,1957.68555 C92.1328125,1960.96875 42.2265625,2033.75 35.8359375,2033.75 C29.4453125,2033.75 35.4199219,2025.59766 29.5976562,2025.59766 C23.7753906,2025.59766 0.296875,2054.03711 0.296875,2079.26758 C18.7988281,2079.26758 17.46875,2071.21876 24.5976562,2071.21876 C28.6880332,2071.21876 51.5967994,2041.07549 80.8639104,2002.73134 Z M120.828257,1950.87924 C134.007027,1949.4667 159.191956,1914.02915 167.840918,1907.34975 C174.830523,1893.16339 181.063054,1881.46599 186.055606,1873.40932 C166.635814,1893.68037 143.477733,1921.99663 120.828257,1950.87924 Z M128.086099,2070.36807 C135.528253,2070.36807 131.895555,2078.99268 140.355596,2078.99269 C148.815637,2078.99269 161.035502,2044.59961 161.035501,2048.46653 C161.0355,2052.33346 161.839188,2044.11984 159.222637,2044.11984 C156.606085,2044.11984 158.486868,2046.36806 153.689999,2046.36806 C148.893131,2046.36806 147.80907,2046.22265 147.80907,2033.92442 C148.275803,2011.79585 174.527505,1962.7838 177.482774,1962.7838 C177.482774,1952.42556 264.391626,1849.97171 263.499994,1846.91021 C264.391626,1844.17698 282.444098,1806.45048 272.222925,1813.31184 C262.001751,1820.1732 205.829484,1888.62871 207.852197,1888.62871 C207.852197,1890.29181 134.472054,2010.97625 134.472054,2029.32869 C134.472054,2035.25839 133.792882,2055.42543 132.175061,2055.42543 C130.557239,2055.42542 128.086099,2058.30407 128.086099,2058.30407 C128.086099,2058.30407 128.086099,2065.32913 128.086099,2070.36807 Z M259.786705,1863.59317 C245.546471,1863.59317 186.871094,2037.30273 186.871094,2084.75586 C186.871094,2089.66406 194.5,2096.64258 194.5,2100.66602 C200.390625,2100.66602 220.019531,2072.71484 220.019531,2060.23633 C220.019531,2047.75781 217.834961,2051.88867 213.476563,2051.88867 C209.118164,2051.88867 210.867188,2048.23633 210.867188,2037.30273 C210.867188,2026.36914 215.951172,1983.04688 220.019531,1983.04688 C224.087891,1983.04688 259.786705,1906.44495 259.786705,1906.44495 C259.786705,1906.44495 271.132408,1863.59317 259.786705,1863.59317 Z M466.740238,1660.50586 C466.740238,1666.44434 438.830078,1697.21875 438.830078,1699.16895 C431.711914,1699.16895 409.012695,1727.48633 405.630859,1727.48633 C402.249023,1727.48633 358.436523,1760.14746 358.436523,1762.00586 C353.285156,1762.00586 346.568359,1767.11328 346.568359,1764.59277 C346.568359,1762.07227 344.286133,1755.29199 344.286133,1751.89844 C344.286133,1748.50488 355.388672,1743.50781 355.388672,1740.08496 C358.508789,1740.08496 371.333008,1740.27246 371.333008,1735.81836 C371.333007,1731.36426 379.767579,1734.43359 379.767578,1729.71777 C379.767577,1725.00195 375.16504,1722.04492 379.505859,1722.04492 C383.846679,1722.04492 387.90039,1727.48633 387.90039,1724.06445 C387.90039,1720.64258 408.331051,1708.19629 409.529296,1708.19629 C410.727542,1708.19629 435.243167,1679.75391 440.569339,1679.75391 C445.895511,1679.75391 462.6543,1660.50586 466.740238,1660.50586 Z M712.796769,1887.75126 C716.341389,1887.75126 718.318322,2085.50939 718.318322,2095.0607 C718.318322,2104.61202 689.474969,2148.21998 682.386467,2148.21998 C678.060992,2148.21998 675.325756,2104.48386 674.952466,2066.45368 C674.688634,2039.57478 682.386467,1976.69211 673.267358,1976.69211 C673.267358,1959.81308 677.897553,1938.81184 677.897553,1936.89169 C677.897553,1926.66461 709.25215,1887.75126 712.796769,1887.75126 Z M828.732975,1193.57603 C828.732975,1198.45173 899.315942,1207.31745 920.593924,1207.31745 C941.871907,1207.31745 979.799397,1179.87475 979.799397,1172.39999 C979.799397,1164.92524 930.917511,1157.0172 909.022738,1157.0172 C887.127964,1157.0172 828.732975,1188.70033 828.732975,1193.57603 Z M983.943359,961.326172 C983.943359,979.966797 983.943359,1006.82031 989.472656,1006.82031 C1001.69727,1006.82031 1042.05859,977.6875 1042.05859,961.326172 C1042.05859,944.964844 1039.57292,741.621096 1053.11719,741.621094 C1053.11719,737.901041 1080.16797,705.460938 1087.48047,705.460937 C1114.8698,705.460936 1096.53369,740.829773 1096.53369,745.695007 C1096.53369,750.560242 1155.45117,715.390625 1155.45118,692.259766 C1155.45118,669.128906 1135.74537,658.763116 1133.29492,658.878906 C1124.85211,659.277854 1055.62959,710.328125 1054.94922,710.328125 C1045.86194,710.328124 1059.79659,663.551417 1053.11719,663.551417 C1044.26758,663.551417 1004.89844,694.537109 1001.62695,694.537109 C998.355469,694.537109 983.943359,942.685547 983.943359,961.326172 Z M974.255859,666.513672 C963.896484,666.513672 863.515625,715.869141 863.515625,782.236328 C863.515625,824.708984 863.515625,1002.86914 863.515625,1019.23828 C863.515625,1027.34375 863.957031,1028.5625 876.0625,1028.5625 C900.419922,1028.5625 959.101562,985.619141 959.101562,976.322266 C959.101562,973.330078 951.355469,974.283203 946.138672,974.283203 C940.921875,974.283203 946.138672,984.285156 929.650391,984.285156 C905.9375,984.285156 916.556641,834.253906 921.853516,834.253906 C943.050781,834.253906 990.785156,739.576264 990.785156,730 C990.785156,713.273438 990.179687,666.513672 974.255859,666.513672 Z M935.167969,703.349609 C940.419922,703.349609 944.849609,715.146484 944.849609,744.462891 C944.849609,773.779297 925.193359,815.345703 922.208984,815.345703 C922.208984,815.345703 911.949219,752.044922 911.949219,746.955078 C911.949219,731.611328 925.634766,703.349609 935.167969,703.349609 Z M511.55957,907.223762 C514.583986,907.223762 544.222654,1031.26074 467.417969,1031.26074 C439.722656,1031.26074 426.67316,1003.05166 426.671636,991.436441 C426.667113,956.965078 452.600507,907.223754 511.55957,907.223762 Z M1006.02427,651.272412 C1001.68015,651.272412 999.819638,440.701348 999.819638,425.54801 C999.819638,410.394671 1022.29075,199.10608 1022.29075,199.106079 C1022.29075,199.106078 1083.15825,129.514047 1138.56657,129.517773 C1178.09282,129.520431 1224.65325,159.348911 1224.51993,210.852179 C1224.48406,224.707852 1222.30902,248.575993 1218.85183,248.575993 C1215.39465,248.575993 1140.41366,317.653347 1112.81611,317.653343 C1097.87294,317.653341 1092.27634,308.460858 1092.27634,308.460858 C1092.27634,291.938473 1135.20031,271.132412 1135.20032,271.132413 C1135.20033,271.132414 1147.61079,276.914941 1154.26058,276.914942 C1158.34897,276.914944 1160.18691,244.926148 1160.72584,235.404507 C1162.11552,210.852177 1119.75339,176.018528 1079.03293,171.906807 C1057.34375,173.743489 1058.10222,613.580675 1055.02341,613.773327 C1050.7511,614.040661 1007.92392,651.272412 1006.02427,651.272412 Z M734.634036,185.169336 C749.526275,185.169336 766.007817,204.348313 766.007821,209.444108 C767.195498,236.413483 669.669505,280.953717 669.669508,285.601375 C669.669505,300.428128 739.393588,289.975278 744.188464,289.975278 C748.98334,289.975278 687.02682,332.29939 619.144705,332.29939 C601.382785,332.29939 590.167224,298.490558 590.167224,288.256416 C590.167224,258.604153 677.271778,185.169336 734.634036,185.169336 Z M684.947771,219.979163 C702.423624,219.979163 703.084725,243.373006 703.084724,249.06151 C703.084722,254.750015 661.856319,259.727077 656.23137,259.760517 C652.922044,259.7607 651.117658,256.576934 651.117658,255.157313 C651.117658,244.345517 670.704443,219.979163 684.947771,219.979163 Z M928.955729,173.075521 C943.831583,173.553663 951.416014,175.872955 951.416018,180.96875 C951.41601,225.665365 844.769831,264.921873 845.175781,269.791016 C844.769831,284.398436 853.763668,291.052733 860.820309,291.052733 C973.555552,291.052733 971.538971,279.649826 973.555546,279.652342 C973.555552,291.052733 957.736979,326.591795 802.433594,326.591797 C783.373047,326.591795 782.519219,289.869732 783.373047,279.652344 C786.644531,240.503906 866.361322,173.553663 928.955729,173.075521 Z M877.339661,207.007803 C887.171492,207.007803 893.085437,217.172892 893.085435,222.861396 C893.085434,228.5499 884.428,228.056263 878.175661,228.056264 C862.615885,228.056263 857.062232,231.223886 854.400247,230.917022 C851.738262,230.610158 870.333459,207.007803 877.339661,207.007803 Z M241.68683,96.597237 C241.68683,90.1021603 316.750177,-2.33379128 397.148943,0.771511181 C420.380939,1.66881817 561.303987,29.8940368 561.303987,200.33822 C561.303987,262.009867 482.804409,340.535028 460.327201,340.535028 C428.91358,340.535028 418.44829,326.34838 416.12759,326.348359 C413.806891,326.348337 440.735821,286.667812 455.467047,286.667806 C470.198274,286.6678 491.615154,293.490805 496.893638,283.508229 C502.172122,273.525653 501.106373,259.38024 501.106373,249.063239 C501.106373,120.896772 416.12759,58.7863806 336.758397,58.7863806 C277.59254,58.7863806 241.68683,102.032125 241.68683,96.597237 Z" id="Combined-Shape" stroke="none" fill="#000000" fill-rule="evenodd"></path>
</svg>
