<?xml version="1.0" encoding="UTF-8" standalone="no"?>
<!DOCTYPE svg PUBLIC "-//W3C//DTD SVG 1.1//EN"
 "http://www.w3.org/Graphics/SVG/1.1/DTD/svg11.dtd">
<!-- Generated by graphviz version 2.38.0 (20140413.2041)
 -->
<!-- Title: %3 Pages: 1 -->
<svg width="422pt" height="404pt"
 viewBox="0.00 0.00 421.50 404.00" xmlns="http://www.w3.org/2000/svg" xmlns:xlink="http://www.w3.org/1999/xlink">
<g id="graph0" class="graph" transform="scale(1 1) rotate(0) translate(4 400)">
<title>%3</title>
<polygon fill="white" stroke="none" points="-4,4 -4,-400 417.501,-400 417.501,4 -4,4"/>
<!-- app -->
<g id="node1" class="node"><title>app</title>
<ellipse fill="none" stroke="black" cx="128.629" cy="-378" rx="27" ry="18"/>
<text text-anchor="middle" x="128.629" y="-373.8" font-family="Times,serif" font-size="14.00">app</text>
</g>
<!-- express -->
<g id="node2" class="node"><title>express</title>
<ellipse fill="none" stroke="black" cx="36.6286" cy="-306" rx="36.7576" ry="18"/>
<text text-anchor="middle" x="36.6286" y="-301.8" font-family="Times,serif" font-size="14.00">express</text>
</g>
<!-- app&#45;&gt;express -->
<g id="edge1" class="edge"><title>app&#45;&gt;express</title>
<path fill="none" stroke="black" d="M111.324,-363.834C97.973,-353.675 79.2522,-339.431 63.8927,-327.744"/>
<polygon fill="black" stroke="black" points="65.8385,-324.827 55.7609,-321.557 61.5998,-330.398 65.8385,-324.827"/>
</g>
<!-- getUser -->
<g id="node3" class="node"><title>getUser</title>
<ellipse fill="none" stroke="black" cx="128.629" cy="-306" rx="37.7179" ry="18"/>
<text text-anchor="middle" x="128.629" y="-301.8" font-family="Times,serif" font-size="14.00">getUser</text>
</g>
<!-- app&#45;&gt;getUser -->
<g id="edge2" class="edge"><title>app&#45;&gt;getUser</title>
<path fill="none" stroke="black" d="M128.629,-359.697C128.629,-351.983 128.629,-342.712 128.629,-334.112"/>
<polygon fill="black" stroke="black" points="132.129,-334.104 128.629,-324.104 125.129,-334.104 132.129,-334.104"/>
</g>
<!-- upsertUser -->
<g id="node4" class="node"><title>upsertUser</title>
<ellipse fill="none" stroke="black" cx="236.629" cy="-306" rx="48.3341" ry="18"/>
<text text-anchor="middle" x="236.629" y="-301.8" font-family="Times,serif" font-size="14.00">upsertUser</text>
</g>
<!-- app&#45;&gt;upsertUser -->
<g id="edge3" class="edge"><title>app&#45;&gt;upsertUser</title>
<path fill="none" stroke="black" d="M147.441,-364.807C163.301,-354.527 186.335,-339.598 205.021,-327.486"/>
<polygon fill="black" stroke="black" points="207.038,-330.35 213.526,-321.974 203.231,-324.476 207.038,-330.35"/>
</g>
<!-- getEntry -->
<g id="node5" class="node"><title>getEntry</title>
<ellipse fill="none" stroke="black" cx="126.629" cy="-234" rx="40.6162" ry="18"/>
<text text-anchor="middle" x="126.629" y="-229.8" font-family="Times,serif" font-size="14.00">getEntry</text>
</g>
<!-- getUser&#45;&gt;getEntry -->
<g id="edge4" class="edge"><title>getUser&#45;&gt;getEntry</title>
<path fill="none" stroke="black" d="M128.134,-287.697C127.914,-279.983 127.649,-270.712 127.403,-262.112"/>
<polygon fill="black" stroke="black" points="130.902,-262 127.117,-252.104 123.904,-262.2 130.902,-262"/>
</g>
<!-- upsertUser&#45;&gt;getEntry -->
<g id="edge8" class="edge"><title>upsertUser&#45;&gt;getEntry</title>
<path fill="none" stroke="black" d="M213.3,-290.155C197.082,-279.834 175.289,-265.966 157.614,-254.718"/>
<polygon fill="black" stroke="black" points="159.113,-251.524 148.798,-249.108 155.355,-257.429 159.113,-251.524"/>
</g>
<!-- createEntry -->
<g id="node9" class="node"><title>createEntry</title>
<ellipse fill="none" stroke="black" cx="325.629" cy="-162" rx="50.7138" ry="18"/>
<text text-anchor="middle" x="325.629" y="-157.8" font-family="Times,serif" font-size="14.00">createEntry</text>
</g>
<!-- upsertUser&#45;&gt;createEntry -->
<g id="edge9" class="edge"><title>upsertUser&#45;&gt;createEntry</title>
<path fill="none" stroke="black" d="M260.764,-290.33C274.313,-280.938 290.484,-267.602 300.629,-252 312.751,-233.354 319.075,-208.816 322.326,-190.229"/>
<polygon fill="black" stroke="black" points="325.788,-190.746 323.869,-180.326 318.871,-189.668 325.788,-190.746"/>
</g>
<!-- updateEntry -->
<g id="node10" class="node"><title>updateEntry</title>
<ellipse fill="none" stroke="black" cx="238.629" cy="-234" rx="53.1539" ry="18"/>
<text text-anchor="middle" x="238.629" y="-229.8" font-family="Times,serif" font-size="14.00">updateEntry</text>
</g>
<!-- upsertUser&#45;&gt;updateEntry -->
<g id="edge10" class="edge"><title>upsertUser&#45;&gt;updateEntry</title>
<path fill="none" stroke="black" d="M237.123,-287.697C237.343,-279.983 237.608,-270.712 237.854,-262.112"/>
<polygon fill="black" stroke="black" points="241.353,-262.2 238.14,-252.104 234.356,-262 241.353,-262.2"/>
</g>
<!-- fsPromise -->
<g id="node6" class="node"><title>fsPromise</title>
<ellipse fill="none" stroke="black" cx="109.629" cy="-90" rx="45.4614" ry="18"/>
<text text-anchor="middle" x="109.629" y="-85.8" font-family="Times,serif" font-size="14.00">fsPromise</text>
</g>
<!-- getEntry&#45;&gt;fsPromise -->
<g id="edge5" class="edge"><title>getEntry&#45;&gt;fsPromise</title>
<path fill="none" stroke="black" d="M121.1,-216.017C118.01,-205.717 114.428,-192.241 112.629,-180 109.612,-159.48 108.933,-136.025 108.97,-118.347"/>
<polygon fill="black" stroke="black" points="112.472,-118.198 109.071,-108.164 105.472,-118.129 112.472,-118.198"/>
</g>
<!-- config -->
<g id="node7" class="node"><title>config</title>
<ellipse fill="none" stroke="black" cx="205.629" cy="-90" rx="32.4324" ry="18"/>
<text text-anchor="middle" x="205.629" y="-85.8" font-family="Times,serif" font-size="14.00">config</text>
</g>
<!-- getEntry&#45;&gt;config -->
<g id="edge6" class="edge"><title>getEntry&#45;&gt;config</title>
<path fill="none" stroke="black" d="M127.139,-215.79C128.385,-196.975 132.477,-166.509 145.629,-144 153.359,-130.771 165.558,-119.107 176.943,-110.113"/>
<polygon fill="black" stroke="black" points="179.12,-112.856 185.015,-104.052 174.916,-107.258 179.12,-112.856"/>
</g>
<!-- fs -->
<g id="node8" class="node"><title>fs</title>
<ellipse fill="none" stroke="black" cx="205.629" cy="-18" rx="27" ry="18"/>
<text text-anchor="middle" x="205.629" y="-13.8" font-family="Times,serif" font-size="14.00">fs</text>
</g>
<!-- config&#45;&gt;fs -->
<g id="edge7" class="edge"><title>config&#45;&gt;fs</title>
<path fill="none" stroke="black" d="M205.629,-71.6966C205.629,-63.9827 205.629,-54.7125 205.629,-46.1124"/>
<polygon fill="black" stroke="black" points="209.129,-46.1043 205.629,-36.1043 202.129,-46.1044 209.129,-46.1043"/>
</g>
<!-- createEntry&#45;&gt;fsPromise -->
<g id="edge11" class="edge"><title>createEntry&#45;&gt;fsPromise</title>
<path fill="none" stroke="black" d="M289.475,-149.284C252.053,-137.156 193.57,-118.203 153.52,-105.224"/>
<polygon fill="black" stroke="black" points="154.351,-101.814 143.759,-102.061 152.193,-108.473 154.351,-101.814"/>
</g>
<!-- createEntry&#45;&gt;config -->
<g id="edge13" class="edge"><title>createEntry&#45;&gt;config</title>
<path fill="none" stroke="black" d="M300.473,-146.326C281.64,-135.34 255.797,-120.265 235.843,-108.625"/>
<polygon fill="black" stroke="black" points="237.538,-105.562 227.136,-103.546 234.011,-111.608 237.538,-105.562"/>
</g>
<!-- getLocationFromIp -->
<g id="node11" class="node"><title>getLocationFromIp</title>
<ellipse fill="none" stroke="black" cx="334.629" cy="-90" rx="78.7453" ry="18"/>
<text text-anchor="middle" x="334.629" y="-85.8" font-family="Times,serif" font-size="14.00">getLocationFromIp</text>
</g>
<!-- createEntry&#45;&gt;getLocationFromIp -->
<g id="edge12" class="edge"><title>createEntry&#45;&gt;getLocationFromIp</title>
<path fill="none" stroke="black" d="M327.853,-143.697C328.845,-135.983 330.037,-126.712 331.143,-118.112"/>
<polygon fill="black" stroke="black" points="334.626,-118.469 332.429,-108.104 327.683,-117.576 334.626,-118.469"/>
</g>
<!-- updateEntry&#45;&gt;createEntry -->
<g id="edge16" class="edge"><title>updateEntry&#45;&gt;createEntry</title>
<path fill="none" stroke="black" d="M258.37,-217.116C270.05,-207.718 285.026,-195.669 297.88,-185.326"/>
<polygon fill="black" stroke="black" points="300.368,-187.817 305.965,-178.821 295.98,-182.363 300.368,-187.817"/>
</g>
<!-- deleteEntry -->
<g id="node13" class="node"><title>deleteEntry</title>
<ellipse fill="none" stroke="black" cx="205.629" cy="-162" rx="50.7311" ry="18"/>
<text text-anchor="middle" x="205.629" y="-157.8" font-family="Times,serif" font-size="14.00">deleteEntry</text>
</g>
<!-- updateEntry&#45;&gt;deleteEntry -->
<g id="edge15" class="edge"><title>updateEntry&#45;&gt;deleteEntry</title>
<path fill="none" stroke="black" d="M230.64,-216.055C226.83,-207.973 222.186,-198.121 217.938,-189.112"/>
<polygon fill="black" stroke="black" points="220.973,-187.342 213.543,-179.789 214.642,-190.327 220.973,-187.342"/>
</g>
<!-- requestPromise -->
<g id="node12" class="node"><title>requestPromise</title>
<ellipse fill="none" stroke="black" cx="334.629" cy="-18" rx="64.7632" ry="18"/>
<text text-anchor="middle" x="334.629" y="-13.8" font-family="Times,serif" font-size="14.00">requestPromise</text>
</g>
<!-- getLocationFromIp&#45;&gt;requestPromise -->
<g id="edge14" class="edge"><title>getLocationFromIp&#45;&gt;requestPromise</title>
<path fill="none" stroke="black" d="M334.629,-71.6966C334.629,-63.9827 334.629,-54.7125 334.629,-46.1124"/>
<polygon fill="black" stroke="black" points="338.129,-46.1043 334.629,-36.1043 331.129,-46.1044 338.129,-46.1043"/>
</g>
<!-- deleteEntry&#45;&gt;fsPromise -->
<g id="edge17" class="edge"><title>deleteEntry&#45;&gt;fsPromise</title>
<path fill="none" stroke="black" d="M184.323,-145.465C170.932,-135.7 153.476,-122.972 138.807,-112.276"/>
<polygon fill="black" stroke="black" points="140.686,-109.315 130.544,-106.251 136.562,-114.971 140.686,-109.315"/>
</g>
<!-- deleteEntry&#45;&gt;config -->
<g id="edge18" class="edge"><title>deleteEntry&#45;&gt;config</title>
<path fill="none" stroke="black" d="M205.629,-143.697C205.629,-135.983 205.629,-126.712 205.629,-118.112"/>
<polygon fill="black" stroke="black" points="209.129,-118.104 205.629,-108.104 202.129,-118.104 209.129,-118.104"/>
</g>
</g>
</svg>
